<?xml version="1.0" encoding="utf-8"?>
<!-- Generator: Adobe Illustrator 20.1.0, SVG Export Plug-In . SVG Version: 6.00 Build 0)  -->
<svg version="1.1" id="Layer_1" xmlns="http://www.w3.org/2000/svg" xmlns:xlink="http://www.w3.org/1999/xlink" x="0px" y="0px"
	 viewBox="0 0 1200 630" style="enable-background:new 0 0 1200 630;" xml:space="preserve">
<style type="text/css">
	.st0{opacity:0.4179;fill:#F3A54A;enable-background:new    ;}
	.st1{opacity:2.241349e-02;fill:#F3A54A;enable-background:new    ;}
	.st2{opacity:0.5636;fill:#F3A54A;enable-background:new    ;}
	.st3{opacity:0.5875;fill:#F3A54A;enable-background:new    ;}
	.st4{opacity:0.5467;fill:#F3A54A;enable-background:new    ;}
	.st5{opacity:0.6799;fill:#F3A54A;enable-background:new    ;}
	.st6{opacity:0.4576;fill:#F3A54A;enable-background:new    ;}
	.st7{opacity:0.1578;fill:#F3A54A;enable-background:new    ;}
	.st8{opacity:0.2972;fill:#F3A54A;enable-background:new    ;}
	.st9{opacity:0.6189;fill:#F3A54A;enable-background:new    ;}
	.st10{opacity:0.5212;fill:#F3A54A;enable-background:new    ;}
	.st11{opacity:0.2673;fill:#F3A54A;enable-background:new    ;}
	.st12{opacity:0.6551;fill:#F3A54A;enable-background:new    ;}
	.st13{opacity:0.6971;fill:#F3A54A;enable-background:new    ;}
	.st14{opacity:0.2584;fill:#F3A54A;enable-background:new    ;}
	.st15{opacity:0.2818;fill:#AA7CAA;enable-background:new    ;}
	.st16{opacity:0.6611;fill:#AA7CAA;enable-background:new    ;}
	.st17{opacity:0.1874;fill:#AA7CAA;enable-background:new    ;}
	.st18{opacity:0.2279;fill:#AA7CAA;enable-background:new    ;}
	.st19{opacity:0.3828;fill:#AA7CAA;enable-background:new    ;}
	.st20{opacity:0.2856;fill:#AA7CAA;enable-background:new    ;}
	.st21{opacity:0.476;fill:#AA7CAA;enable-background:new    ;}
	.st22{opacity:0.6959;fill:#AA7CAA;enable-background:new    ;}
	.st23{opacity:0.7547;fill:#AA7CAA;enable-background:new    ;}
	.st24{opacity:0.1364;fill:#AA7CAA;enable-background:new    ;}
	.st25{opacity:0.3486;fill:#AA7CAA;enable-background:new    ;}
	.st26{opacity:0.7377;fill:#AA7CAA;enable-background:new    ;}
	.st27{opacity:0.5046;fill:#AA7CAA;enable-background:new    ;}
	.st28{opacity:4.337379e-02;fill:#AA7CAA;enable-background:new    ;}
	.st29{opacity:0.3148;fill:#AA7CAA;enable-background:new    ;}
	.st30{opacity:1.206275e-02;fill:#CCDE66;enable-background:new    ;}
	.st31{opacity:0.7061;fill:#CCDE66;enable-background:new    ;}
	.st32{opacity:0.7577;fill:#CCDE66;enable-background:new    ;}
	.st33{opacity:0.2797;fill:#CCDE66;enable-background:new    ;}
	.st34{opacity:0.2411;fill:#CCDE66;enable-background:new    ;}
	.st35{opacity:0.3687;fill:#CCDE66;enable-background:new    ;}
	.st36{opacity:0.3432;fill:#CCDE66;enable-background:new    ;}
	.st37{opacity:0.5714;fill:#CCDE66;enable-background:new    ;}
	.st38{opacity:0.1382;fill:#CCDE66;enable-background:new    ;}
	.st39{opacity:0.6127;fill:#CCDE66;enable-background:new    ;}
	.st40{opacity:0.7258;fill:#CCDE66;enable-background:new    ;}
	.st41{opacity:0.6763;fill:#CCDE66;enable-background:new    ;}
	.st42{opacity:0.775;fill:#CCDE66;enable-background:new    ;}
	.st43{opacity:0.6841;fill:#CCDE66;enable-background:new    ;}
	.st44{opacity:0.7704;fill:#CCDE66;enable-background:new    ;}
	.st45{opacity:0.6605;fill:#4B90A6;enable-background:new    ;}
	.st46{opacity:0.2753;fill:#4B90A6;enable-background:new    ;}
	.st47{opacity:0.5027;fill:#4B90A6;enable-background:new    ;}
	.st48{opacity:0.558;fill:#4B90A6;enable-background:new    ;}
	.st49{opacity:0.6083;fill:#4B90A6;enable-background:new    ;}
	.st50{opacity:0.3147;fill:#4B90A6;enable-background:new    ;}
	.st51{opacity:0.2233;fill:#4B90A6;enable-background:new    ;}
	.st52{opacity:0.4071;fill:#4B90A6;enable-background:new    ;}
	.st53{opacity:0.2785;fill:#4B90A6;enable-background:new    ;}
	.st54{opacity:0.2625;fill:#4B90A6;enable-background:new    ;}
	.st55{opacity:0.5636;fill:#4B90A6;enable-background:new    ;}
	.st56{opacity:6.021634e-02;fill:#4B90A6;enable-background:new    ;}
	.st57{opacity:9.308153e-02;fill:#4B90A6;enable-background:new    ;}
	.st58{opacity:0.3355;fill:#4B90A6;enable-background:new    ;}
	.st59{opacity:0.7369;fill:#4B90A6;enable-background:new    ;}
	.st60{fill:#58595B;}
</style>
<path class="st0" d="M179.9,518.2c-0.5,23.2-19.7,41.6-42.9,41.1c-11.3-0.2-22-5-29.8-13.3l4.4-4.1c13.6,14.5,36.4,15.3,50.9,1.7
	c7.1-6.6,11.2-15.8,11.4-25.5L179.9,518.2z"/>
<path class="st1" d="M374.6,275.7c-1.5,1-3,1.9-4.6,2.6l-2.6-5.4c1.4-0.7,2.7-1.4,4-2.3L374.6,275.7z"/>
<path class="st2" d="M599.8,110.5c-13,19.2-39.2,24.2-58.4,11.1c-19.2-13-24.2-39.2-11.1-58.4c0.4-0.6,0.8-1.2,1.2-1.7l4.8,3.6
	c-12,15.9-8.9,38.4,7,50.4c15.9,12,38.4,8.9,50.4-7c0.4-0.5,0.7-1,1.1-1.5L599.8,110.5z"/>
<path class="st3" d="M772.2,312.9c-22.9-3.6-38.6-25.1-35-48c3.6-22.9,25.1-38.6,48-35c2.6,0.4,5.1,1,7.6,1.9l-2,5.7
	c-18.7-6.6-39.3,3.2-46,21.9s3.2,39.3,21.9,46c2.1,0.7,4.3,1.3,6.5,1.6L772.2,312.9z"/>
<path class="st4" d="M926.9,155.3c-3.8,22.9-25.5,38.3-48.4,34.5c-22.2-3.7-37.5-24.2-34.8-46.5l6,0.7
	c-2.4,19.7,11.7,37.7,31.4,40.1c19.1,2.3,36.7-10.8,39.9-29.8L926.9,155.3z"/>
<path class="st5" d="M1034.1,305.4c-1.8,23.1-22,40.4-45.1,38.6s-40.4-22-38.6-45.1c0.8-10,5.1-19.4,12.2-26.5l4.2,4.3
	c-14.1,14-14.1,36.8-0.1,50.9c14,14.1,36.8,14.1,50.9,0.1c6.1-6.1,9.8-14.1,10.5-22.7L1034.1,305.4z"/>
<path class="st6" d="M482.4,535.6c-19,13.3-45.2,8.7-58.5-10.3c-8.4-12-10-27.4-4.1-40.9l5.5,2.4c-7.9,18.2,0.4,39.5,18.7,47.4
	c11.5,5,24.8,3.7,35-3.5L482.4,535.6z"/>
<path class="st7" d="M712.4,235.4c-3.3,12.3-12.1,22.4-23.7,27.5l-2.4-5.5c10-4.4,17.5-13,20.3-23.6L712.4,235.4z"/>
<path class="st8" d="M915.1,592.4c-16.5,16.4-43.1,16.3-59.4-0.2c-1.1-1.1-2.2-2.3-3.1-3.5l4.7-3.7c12.3,15.6,35,18.2,50.6,5.9
	c1.1-0.8,2.1-1.7,3-2.7L915.1,592.4z"/>
<path class="st9" d="M959.8,573.2c-14.8-17.9-12.2-44.4,5.7-59.1s44.4-12.2,59.1,5.7c3.3,3.9,5.8,8.5,7.4,13.3l-5.7,1.9
	c-6.4-18.8-26.8-29-45.6-22.6c-18.8,6.4-29,26.8-22.6,45.6c1.4,4.2,3.6,8,6.3,11.4L959.8,573.2z"/>
<path class="st10" d="M1131.9,234.4c-14.4,18.2-40.9,21.2-59,6.7c-15.8-12.5-20.4-34.5-11.1-52.4l5.3,2.8
	c-9.2,17.6-2.4,39.4,15.2,48.6c15.3,8,34.1,4,44.9-9.5L1131.9,234.4z"/>
<path class="st11" d="M275.1,501.3c15.4,16.1,15.5,41.4,0.3,57.7l-4.4-4.1c13.1-13.9,13-35.6-0.2-49.5L275.1,501.3z"/>
<path class="st12" d="M595.7,405.3c-15.9,16.9-42.5,17.7-59.4,1.8c-16.9-15.9-17.7-42.5-1.8-59.4c5.5-5.8,12.5-10,20.3-12l1.5,5.8
	c-19.3,4.9-31,24.4-26.1,43.7c4.9,19.3,24.4,31,43.7,26.1c6.7-1.7,12.7-5.2,17.4-10.2L595.7,405.3z"/>
<path class="st13" d="M704.1,472.6c14.9,17.8,12.5,44.3-5.3,59.2s-44.3,12.5-59.2-5.3c-7.4-8.8-10.8-20.2-9.5-31.6l6,0.7
	c-2.2,19.8,12.1,37.6,31.8,39.8c19.8,2.2,37.6-12.1,39.8-31.8c1.1-9.8-1.9-19.5-8.2-27.1L704.1,472.6z"/>
<path class="st14" d="M605.5,441.1c5.9,20.7-4.8,42.4-24.7,50.4l-2.2-5.6c17.1-6.9,26.2-25.5,21.2-43.2L605.5,441.1z"/>
<path class="st15" d="M137.1,468.9c26.7-0.4,48.8,20.9,49.2,47.6c0,0.4,0,0.8,0,1.2l-6.4-0.1c0.2-23.2-18.4-42.2-41.6-42.4
	c-0.4,0-0.7,0-1.1,0L137.1,468.9z"/>
<path class="st16" d="M366.5,194.6c25.4,8.3,39.3,35.7,31,61.1s-35.7,39.3-61.1,31c-9.3-3.1-17.5-8.9-23.4-16.7l5.1-3.9
	c14.1,18.5,40.4,22,58.9,7.9s22-40.4,7.9-58.9c-5.2-6.8-12.3-11.8-20.3-14.5L366.5,194.6z"/>
<path class="st17" d="M611.1,101.8c-5.4,16.7-19.4,29.1-36.6,32.6l-1.2-6.3c14.9-3,27.1-13.8,31.8-28.3L611.1,101.8z"/>
<path class="st18" d="M736.6,295.4c-10.7-18.7-7.7-42.3,7.3-57.8l4.6,4.5c-13.1,13.4-15.7,33.9-6.4,50.1L736.6,295.4z"/>
<path class="st19" d="M879.2,100.4c26.5-3.5,50.8,15.2,54.3,41.7c1.3,9.6-0.4,19.4-4.8,28.1l-5.7-2.9c10.5-20.7,2.1-46-18.6-56.4
	c-7.5-3.8-16-5.2-24.4-4.2L879.2,100.4z"/>
<path class="st20" d="M954.1,272.3c16.5-21.1,46.9-24.8,68-8.4c0.6,0.5,1.2,0.9,1.8,1.4l-4.2,4.9c-17.6-15.1-44.1-13.1-59.2,4.5
	c-0.4,0.5-0.8,1-1.2,1.5L954.1,272.3z"/>
<path class="st21" d="M431.8,541.7c-22.4-14.6-28.7-44.6-14.1-67c10.2-15.6,28.5-24,47-21.5l-0.8,6.3c-23-3.1-44.1,13.1-47.2,36.1
	c-2.1,16.1,5.1,31.9,18.7,40.8L431.8,541.7z"/>
<path class="st22" d="M623.9,230.9c-3.6-26.5,15-50.9,41.5-54.5s50.9,15,54.5,41.5c1.7,13-1.8,26.1-9.9,36.4l-5-4
	c14.3-18.2,11.2-44.7-7.1-59c-18.2-14.3-44.7-11.2-59,7.1c-7,8.9-10.1,20.3-8.6,31.6L623.9,230.9z"/>
<path class="st23" d="M859.4,603.5c-22.5-14.4-29.2-44.3-14.8-66.9c14.4-22.5,44.3-29.2,66.9-14.8c15.8,10.1,24.4,28.5,22,47.1
	l-6.3-0.8c3-23-13.2-44.1-36.2-47.1c-23-3-44.1,13.2-47.1,36.2c-2.1,16.2,5.3,32.1,19.1,40.9L859.4,603.5z"/>
<path class="st24" d="M1010.7,501.7c11.7,4.8,21,14,26,25.6l-5.9,2.5c-4.3-10.1-12.4-18-22.6-22.2L1010.7,501.7z"/>
<path class="st25" d="M1058.6,234.9c-14.7-22.3-8.5-52.4,13.8-67.1c5.5-3.6,11.6-6.1,18-7.2l1.1,6.3c-22.8,4.1-38,26-33.9,48.8
	c1,5.6,3.1,10.9,6.3,15.6L1058.6,234.9z"/>
<path class="st26" d="M282.2,560.8c-16.9,20.7-47.4,23.9-68.1,7s-23.9-47.4-7-68.1c10.8-13.3,27.8-19.9,44.7-17.3l-0.9,6.3
	c-22.9-3.4-44.3,12.4-47.8,35.3c-3.4,22.9,12.4,44.3,35.3,47.8c14.7,2.2,29.5-3.5,38.8-15.1L282.2,560.8z"/>
<path class="st27" d="M611.2,391.3c-8.1,25.5-35.4,39.5-60.9,31.4c-20.5-6.6-34.2-25.9-33.6-47.4l6.4,0.2
	c-0.6,23.2,17.7,42.5,40.9,43.1c18.7,0.5,35.4-11.4,41.1-29.2L611.2,391.3z"/>
<path class="st28" d="M705.5,464.8c2.9,2.8,5.4,5.9,7.4,9.2l-5.4,3.4c-1.8-2.9-4-5.6-6.5-8L705.5,464.8z"/>
<path class="st29" d="M557.5,500.4c-26.4-4.2-44.4-29-40.3-55.4c0.5-3.4,1.4-6.7,2.7-9.9l6,2.3c-8.4,21.6,2.4,46,24,54.3
	c2.8,1.1,5.7,1.9,8.6,2.3L557.5,500.4z"/>
<path class="st30" d="M183.9,547.1c-0.7,1-1.4,2.1-2.1,3.1l-5.1-3.8c0.7-0.9,1.3-1.8,1.9-2.7L183.9,547.1z"/>
<path class="st31" d="M318.5,196.8c24.2-18.2,58.6-13.3,76.8,10.8c18.2,24.2,13.3,58.6-10.8,76.8c-12.7,9.6-29,13.1-44.6,9.8
	l1.4-6.3c26.1,5.7,51.9-10.9,57.6-37.1s-10.9-51.9-37.1-57.6c-13.7-3-28.1,0.2-39.4,8.6L318.5,196.8z"/>
<path class="st32" d="M550.4,139.7c-29.2-8.1-46.2-38.3-38.1-67.5c8.1-29.2,38.3-46.2,67.5-38.1c20.8,5.8,36.3,23.3,39.5,44.6
	l-6.3,1c-4-26.4-28.7-44.6-55.1-40.7s-44.6,28.7-40.7,55.1c2.8,18.9,16.5,34.3,34.9,39.4L550.4,139.7z"/>
<path class="st33" d="M832.9,278.9c-4.2,30-31.8,50.9-61.8,46.8c-0.2,0-0.5-0.1-0.7-0.1l1-6.3c26.4,4,51.1-14.1,55.2-40.6
	c0-0.2,0.1-0.4,0.1-0.6L832.9,278.9z"/>
<path class="st34" d="M830.7,151.1c-1.3-25.9,15.8-49.2,40.9-55.8l1.6,6.2c-22.2,5.8-37.3,26.3-36.2,49.2L830.7,151.1z"/>
<path class="st35" d="M940.8,283.3c10.4-28.4,41.9-43,70.3-32.6c8.9,3.3,16.9,8.8,23,16.1l-4.9,4.1c-17.3-20.4-47.8-23-68.2-5.7
	c-6.4,5.4-11.3,12.4-14.2,20.3L940.8,283.3z"/>
<path class="st36" d="M420.6,461.3c22-20.8,56.7-19.8,77.5,2.2c4.7,5,8.4,10.8,11,17.1l-5.9,2.4c-10-24.8-38.2-36.8-63-26.8
	c-5.6,2.3-10.7,5.5-15.1,9.7L420.6,461.3z"/>
<path class="st37" d="M716,192c17.9,24.4,12.7,58.7-11.7,76.6c-24.4,17.9-58.7,12.7-76.6-11.7c-1-1.4-2-2.8-2.9-4.3l5.5-3.3
	c13.7,22.9,43.5,30.4,66.4,16.7c22.9-13.7,30.4-43.5,16.7-66.4c-0.8-1.3-1.6-2.6-2.5-3.8L716,192z"/>
<path class="st38" d="M939.7,554.8c2.1,14.3-1.6,28.9-10.2,40.6l-5.1-3.8c7.6-10.3,10.9-23.2,9-35.8L939.7,554.8z"/>
<path class="st39" d="M955.1,586.8c-22.3-20.5-23.7-55.2-3.2-77.5c20.5-22.3,55.2-23.7,77.5-3.2c4.4,4.1,8.2,8.9,11,14.2l-5.6,3.1
	c-12.8-23.5-42.2-32.2-65.7-19.4c-23.5,12.8-32.2,42.2-19.4,65.7c2.5,4.7,5.8,8.9,9.8,12.5L955.1,586.8z"/>
<path class="st40" d="M1044.3,206.4c1.1-30.3,26.4-53.9,56.7-52.9c30.3,1.1,53.9,26.4,52.9,56.7c-0.6,18.1-10.1,34.7-25.4,44.4
	l-3.4-5.4c22.6-14.3,29.2-44.3,14.9-66.8c-14.3-22.6-44.3-29.2-66.8-14.9c-13.5,8.6-21.9,23.2-22.4,39.2L1044.3,206.4z"/>
<path class="st41" d="M191.1,541.9c-6.4-29.6,12.4-58.8,42-65.2s58.8,12.4,65.2,42c2.7,12.4,1,25.4-4.8,36.7l-5.7-2.9
	c12.2-23.8,2.9-53-20.9-65.2c-23.8-12.2-53-2.9-65.2,20.9c-5.1,10-6.7,21.4-4.3,32.4L191.1,541.9z"/>
<path class="st42" d="M533.4,421.3c-24.7-17.5-30.6-51.7-13.1-76.4c17.5-24.7,51.7-30.6,76.4-13.1c19.3,13.6,27.7,38,20.9,60.6
	l-6.1-1.8c7.7-25.6-6.8-52.6-32.4-60.3c-25.6-7.7-52.6,6.8-60.3,32.4c-6,19.9,1.4,41.5,18.4,53.5L533.4,421.3z"/>
<path class="st43" d="M672.2,554.3c-30.3,0.2-55-24.2-55.2-54.5s24.2-55,54.5-55.2c13.5-0.1,26.6,4.9,36.8,13.9l-4.3,4.8
	c-20-17.8-50.6-16-68.4,4c-17.8,20-16,50.6,4,68.4c8.9,8,20.5,12.3,32.5,12.2L672.2,554.3z"/>
<path class="st44" d="M525.1,490.1c-20.7-22.1-19.6-56.8,2.5-77.5s56.8-19.6,77.5,2.5c15.8,16.8,19.3,41.7,8.9,62.3l-5.7-2.9
	c12.1-23.9,2.5-53-21.3-65.1c-23.9-12.1-53-2.5-65.1,21.3c-9.2,18.2-6,40.1,7.9,55L525.1,490.1z"/>
<path class="st45" d="M77.2,523.7c-3.5-33.5,20.8-63.5,54.3-67.1c33.5-3.5,63.5,20.8,67.1,54.3c1.3,12.2-1.2,24.6-7,35.4l-5.5-2.9
	c14.4-26.6,4.5-59.9-22.2-74.3c-26.6-14.4-59.9-4.5-74.3,22.2c-5.2,9.7-7.4,20.8-6.3,31.8L77.2,523.7z"/>
<path class="st46" d="M310,285.4c-24.5-22.7-26.2-60.9-3.7-85.7l4.6,4.2c-20.2,22.3-18.7,56.6,3.4,77L310,285.4z"/>
<path class="st47" d="M522.6,43c24.2-23.4,62.9-22.8,86.3,1.4c18.7,19.3,22.5,48.6,9.5,72.1l-5.4-3c14.7-26.5,5.2-59.8-21.2-74.6
	c-21.1-11.7-47.4-8.3-64.8,8.5L522.6,43z"/>
<path class="st48" d="M839.6,267.7c2.1,33.6-23.5,62.6-57.2,64.6c-33.6,2.1-62.6-23.5-64.6-57.2c0-0.4,0-0.8-0.1-1.2l6.2-0.3
	c1.3,30.2,26.8,53.7,57.1,52.5c30.2-1.3,53.7-26.8,52.5-57.1c0-0.3,0-0.7-0.1-1L839.6,267.7z"/>
<path class="st49" d="M825.1,157.7c-5.1-33.3,17.7-64.5,51-69.6c33.3-5.1,64.5,17.7,69.6,51c0.9,6.1,1,12.3,0,18.5l-6.1-0.9
	c4.5-29.9-16-57.9-46-62.4c-29.9-4.5-57.9,16-62.4,46c-0.8,5.5-0.8,11.1,0,16.6L825.1,157.7z"/>
<path class="st50" d="M938.3,330.6c-15.7-29.8-4.4-66.7,25.4-82.5c3.8-2,7.8-3.6,12-4.8l1.7,6c-29.1,8.2-46.1,38.5-37.9,67.6
	c1,3.7,2.5,7.3,4.3,10.8L938.3,330.6z"/>
<path class="st51" d="M416,545.2c-19.2-18.4-24.3-47.2-12.5-71l5.6,2.7c-10.6,21.4-6,47.3,11.2,63.8L416,545.2z"/>
<path class="st52" d="M638.1,275.3c-28.1-18.7-35.7-56.5-17-84.6c8.4-12.6,21.1-21.6,35.8-25.4l1.5,6c-29.3,7.4-47.1,37.3-39.6,66.6
	c3.3,13.2,11.5,24.6,22.8,32.2L638.1,275.3z"/>
<path class="st53" d="M908.5,506.2c31.2,12.7,46.2,48.4,33.4,79.6c0,0.1-0.1,0.2-0.2,0.4l-5.7-2.4c11.6-28-1.6-60-29.6-71.7
	c-0.1,0-0.2-0.1-0.3-0.1L908.5,506.2z"/>
<path class="st54" d="M936.3,522.1c12.6-29.1,45.5-43.6,75.5-33.5l-2,5.9c-27-9.1-56.5,3.9-67.8,30.1L936.3,522.1z"/>
<path class="st55" d="M1038.4,201.6c3.7-33.5,33.8-57.7,67.3-54c33.5,3.7,57.7,33.8,54,67.3c-0.1,1-0.3,2.1-0.4,3.1l-6.1-1
	c4.8-29.9-15.5-58-45.4-62.9c-29.9-4.8-58,15.5-62.9,45.4c-0.1,0.9-0.3,1.8-0.4,2.8L1038.4,201.6z"/>
<path class="st56" d="M281.4,481.5c5.6,4.2,10.4,9.3,14.2,15.1l-5.2,3.4c-3.4-5.2-7.8-9.8-12.7-13.6L281.4,481.5z"/>
<path class="st57" d="M526.7,329.1c8.4-6.8,18.4-11.2,29.1-12.8l0.9,6.1c-9.6,1.5-18.6,5.5-26.1,11.5L526.7,329.1z"/>
<path class="st58" d="M701.4,446.1c29.5,16.3,40.2,53.4,23.9,82.9c-3.3,5.9-7.5,11.2-12.4,15.7l-4.2-4.6c22.4-20.3,24.1-55,3.8-77.4
	c-4.1-4.5-8.8-8.2-14.1-11.2L701.4,446.1z"/>
<path class="st59" d="M508.8,428.9c13.1-31,48.9-45.6,79.9-32.5c31,13.1,45.6,48.9,32.5,79.9c-8.4,19.8-26.5,33.7-47.8,36.7
	l-0.9-6.1c30-4.2,50.9-31.9,46.7-61.9c-4.2-30-31.9-50.9-61.9-46.7c-19.1,2.7-35.4,15.2-42.9,33L508.8,428.9z"/>
<path class="st60" d="M137.9,541.6c6.8,0,13.8-2.5,13.8-2.5c0-4.5-2-14-2-14c-1.3-4.3-1.5-9-0.3-11.8c1-2.8,1-5.3,0.8-6.8
	c0-0.5-0.3-1-0.5-1.5c-2-2.8-1.5-12.8-1.5-12.8h-3.3c0,0,1.5,13-7,12.8l0,0c-8.5,0.3-7-12.8-7-12.8h-3.3c0,0,0.8,10-1.5,13
	c-0.3,0.3-0.5,0.8-0.5,1.3c-0.3,1.5-0.3,4,0.8,6.8c1.3,3,1,7.5-0.3,11.8c0,0-2,9.5-2,14C124.1,539.1,131.1,541.6,137.9,541.6
	L137.9,541.6z"/>
<path class="st60" d="M351.5,217.6c-3,0-6.5-0.5-7.8-0.8l0,0l0,0l0,0c0,0.3-0.3,0.5-0.3,0.8c-0.3,0.3-0.5,0.8-0.5,1.3
	c-0.8,1.8-1.3,3.3-1.5,5.3c0,0.3,0,0.5,0,0.8c-0.5,3,0,6,0.5,9c0.5,3.3,0.8,6.3,1,9.5c0.3,4.5,0.3,9.3,0.5,13.8v8
	c0,0,2.5,0.5,3.5,0.5c0,0,2.5,0,3.3-0.5c0-5.5,0-11.3,0-16.8c0-2.5,0-5,0-7.8c0-3,0.3-6.3,0.5-9l0,0c0,0,0-0.8,0.3-1.3
	c0-0.5,0.5-1,1-1c0.5,0,0.8,0.5,1,1c0,0.5,0.3,1.3,0.3,1.3l0,0c0.3,3,0.5,6.3,0.5,9c0,2.5,0,5,0,7.8c0,5.5,0,11.3,0,16.8
	c0.8,0.5,3.3,0.5,3.3,0.5c1,0,3.5-0.5,3.5-0.5v-8c0.3-4.5,0-9.3,0.5-13.8c0.3-3.3,0.5-6.3,1-9.5c-0.5-3,0-6-0.5-9c0-0.3,0-0.5,0-0.8
	c-0.3-2-0.8-3.5-1.5-5.3c-0.3-0.5-0.3-1-0.5-1.5c0-0.3-0.3-0.5-0.3-0.8l0,0l0,0l0,0C358,217.1,354.5,217.6,351.5,217.6"/>
<path class="st60" d="M566.8,111.9c0.8-0.3,1.8-0.3,3.8,0c2,0.3,3.5-0.5,3.5-0.5c0-1.3-2.3-20.5-2.3-23.3c0-2.8-0.8-6.3-1.8-8.8
	c-1-2.5-0.5-5.5-0.5-5.5c0.5-1,2-2.3,1-4.8c-0.5-1.8-0.5-6.3-0.5-6.3l-2.8-1c0,0.8-1,1.5-2.3,1.5l0,0l0,0c-1.3,0-2-0.8-2.3-1.5
	l-2.8,1c0,0,0,4.5-0.5,6c-1,2.8,0.5,4,1,5c0,0,0.8,3-0.5,5.5c-1,2.5-1.3,6.3-1.5,8.8c-0.3,2.5-2.5,21.8-2.3,23.3
	c0,0,1.5,0.8,3.5,0.5c1.8-0.3,3-0.3,3.8,0C563.3,111.9,564.8,112.7,566.8,111.9z"/>
<path class="st60" d="M788.9,279.6c0,0,0,0.3,0.3,0.8l-2.3,5.8c1.3,2.3,3,2.5,4.3,2.3c0.5,2,0.8,3.8,0.8,5.3c0,0-2.8,2.3-13.3,2.3
	c-10.5,0-13.3-2.3-13.3-2.3c0-1.5,0.3-3.3,0.8-5.3l0,0c1.3,0.3,3.3,0,4.3-2.3l-2.3-5.8c0.3-0.5,0.3-0.8,0.3-0.8 M767.9,280.4
	c0.3-0.5,0.3-0.8,0.3-0.8c1-4.3,0.5-14.5-0.8-17.5l-2.8,9.3c0,0.3,0,0.5,0,0.5l5.8,14c-1.8,3.5-5.8,2-5.8,2l-6.3-15.3
	c-0.3-0.8-0.5-1.5-0.3-2.3c0.8-3.5,3.3-13.3,3.8-15.3c0.5-2,2.5-4.8,5.3-5.5l0,0l5.8-2.3c0,0,0.3,9.8,5.8,12.5l0,0
	c5.8-2.8,5.8-12.5,5.8-12.5l5.8,2.3l0,0c2.8,0.8,4.8,3.5,5.3,5.5c0.5,2,3,11.8,3.8,15.3c0.3,0.8,0,1.5-0.3,2.3l-6.3,15.3
	c0,0-3.8,1.5-5.8-2l5.8-14c0-0.3,0-0.5,0-0.5l-3-9.3c-1.3,3-1.8,13.3-0.8,17.5c0,0,0,0.3,0.3,0.8"/>
<path class="st60" d="M885.4,169.9c0,0-4,0.3-6.8-1c-2.8-1.3-5.8-1.3-10-1.3s-6-2.3-6-2.3c1.5-1,6-22.3,6.3-25
	c0.3-2.8,5.5-13.5,5.5-13.5c3.5,1.3,7.5,1.8,11,1.8c3.5,0,7.5-0.5,11.3-1.8c0,0,5,11,5.5,13.5c0.3,2.8,4.8,24,6.3,25
	c0,0-1.8,2.3-6,2.3c-4.3,0-7,0-10,1.3S885.4,169.9,885.4,169.9z"/>
<path class="st60" d="M994,327.1c0.8-0.3,1.8-0.3,3.8,0c2,0.3,3.5-0.5,3.5-0.5c0-1.3-2.3-20.5-2.3-23.3c0-2.8-0.8-6.3-1.8-8.8
	c-1-2.5-0.5-5.5-0.5-5.5c0.5-1,2-2.3,1-4.8c-0.5-1.8-0.5-6.3-0.5-6.3l-2.8-1c0,0.8-1,1.5-2.3,1.5l0,0l0,0c-1.3,0-2-0.8-2.3-1.5
	l-2.8,1c0,0,0,4.5-0.5,6c-1,2.8,0.5,4,1,5c0,0,0.8,3-0.5,5.5c-1,2.5-1.3,6.3-1.5,8.8c-0.3,2.5-2.5,21.8-2.3,23.3
	c0,0,1.5,0.8,3.5,0.5c1.8-0.3,3-0.3,3.8,0C990.5,327.1,992,327.9,994,327.1z"/>
<path class="st60" d="M458.3,478.1c-3,0-6.5-0.5-7.8-0.8l0,0l0,0l0,0c0,0.3-0.3,0.5-0.3,0.8c-0.3,0.3-0.5,0.8-0.5,1.3
	c-0.8,1.8-1.3,3.3-1.5,5.3c0,0.3,0,0.5,0,0.8c-0.5,3,0,6,0.5,9c0.5,3.3,0.8,6.3,1,9.5c0.3,4.5,0.3,9.3,0.5,13.8v8
	c0,0,2.5,0.5,3.5,0.5c0,0,2.5,0,3.3-0.5c0-5.5,0-11.3,0-16.8c0-2.5,0-5,0-7.8c0-3,0.3-6.3,0.5-9l0,0c0,0,0-0.8,0.3-1.3
	c0-0.5,0.5-1,1-1c0.5,0,0.8,0.5,1,1c0,0.5,0.3,1.3,0.3,1.3l0,0c0.3,3,0.5,6.3,0.5,9c0,2.5,0,5,0,7.8c0,5.5,0,11.3,0,16.8
	c0.8,0.5,3.3,0.5,3.3,0.5c1,0,3.5-0.5,3.5-0.5v-8c0.3-4.5,0-9.3,0.5-13.8c0.3-3.3,0.5-6.3,1-9.5c-0.5-3,0-6-0.5-9c0-0.3,0-0.5,0-0.8
	c-0.3-2-0.8-3.5-1.5-5.3c-0.3-0.5-0.3-1-0.5-1.5c0-0.2-0.3-0.5-0.3-0.8l0,0l0,0l0,0C464.8,477.6,461.3,478.1,458.3,478.1"/>
<path class="st60" d="M671.8,201.4c-3,0-6.5-0.5-7.8-0.8l0,0l0,0l0,0c0,0.3-0.3,0.5-0.3,0.8c-0.2,0.3-0.5,0.8-0.5,1.3
	c-0.8,1.8-1.3,3.3-1.5,5.3c0,0.3,0,0.5,0,0.8c-0.5,3,0,6,0.5,9c0.5,3.3,0.8,6.3,1,9.5c0.3,4.5,0.3,9.3,0.5,13.8v8
	c0,0,2.5,0.5,3.5,0.5c0,0,2.5,0,3.3-0.5c0-5.5,0-11.3,0-16.8c0-2.5,0-5,0-7.8c0-3,0.3-6.3,0.5-9l0,0c0,0,0-0.8,0.3-1.3
	c0-0.5,0.5-1,1-1c0.5,0,0.8,0.5,1,1c0,0.5,0.3,1.3,0.3,1.3l0,0c0.3,3,0.5,6.3,0.5,9c0,2.5,0,5,0,7.8c0,5.5,0,11.3,0,16.8
	c0.8,0.5,3.3,0.5,3.3,0.5c1,0,3.5-0.5,3.5-0.5v-8c0.3-4.5,0-9.3,0.5-13.8c0.3-3.3,0.5-6.3,1-9.5c-0.5-3,0-6-0.5-9c0-0.3,0-0.5,0-0.8
	c-0.3-2-0.8-3.5-1.5-5.3c-0.3-0.5-0.3-1-0.5-1.5c0-0.3-0.3-0.5-0.3-0.8l0,0l0,0l0,0C678.4,200.9,674.8,201.4,671.8,201.4"/>
<path class="st60" d="M885.4,584.1c0,0-4,0.3-6.8-1c-2.8-1.3-5.8-1.3-10-1.3s-6-2.3-6-2.3c1.5-1,6-22.3,6.3-25
	c0.3-2.8,5.5-13.5,5.5-13.5c3.5,1.3,7.5,1.8,11,1.8c3.5,0,7.5-0.5,11.3-1.8c0,0,5,11,5.5,13.5c0.3,2.8,4.8,24,6.3,25
	c0,0-1.8,2.3-6,2.3c-4.3,0-7,0-10,1.3S885.4,584.1,885.4,584.1z"/>
<path class="st60" d="M992.2,571.5c-4.8,0-6.5-1.3-6.5-1.3c0.5-2.3,0.8-3.8-0.3-8.3l0,0c-1-4.5-1.8-7.5-1.3-11.3
	c0.3-2.5,1.8-6.8,2-8.3c1-2.8,1-4.3,0.5-5.8c-0.8-1.3-2-4-1.8-6.5l-1.5,5c-2.8,0.3-3.8-1.3-3.8-1.3c0.8-2.8,1.8-6.5,2-7.5
	c0.3-1.3,1.5-2.8,3.5-3.5l0,0l3.5-1.5c-0.5,2.3,1,3.8,3.5,3.8c2.5,0,4-1.5,3.5-3.8l3.5,1.3l0,0c2,0.8,3.3,2.3,3.5,3.5
	c0.3,1,1.3,4.8,2,7.5c0,0-1,1.5-3.8,1.5l-1.5-5.3c0.3,2.8-1,5.5-1.3,6.8c-0.5,1.3-0.5,3,0.5,5.8c0.5,1.5,1.8,5.8,2,8.3
	c0.3,3.8-0.3,7-1.3,11.3l0,0c-1,4.5-1,6-0.3,8.3C998.7,570.2,997,571.5,992.2,571.5z"/>
<path class="st60" d="M1099,185.3c-3,0-6.5-0.5-7.8-0.8l0,0l0,0l0,0c0,0.3-0.2,0.5-0.2,0.8c-0.3,0.3-0.5,0.8-0.5,1.3
	c-0.8,1.8-1.3,3.3-1.5,5.3c0,0.3,0,0.5,0,0.8c-0.5,3,0,6,0.5,9c0.5,3.3,0.8,6.3,1,9.5c0.2,4.5,0.2,9.3,0.5,13.8v8
	c0,0,2.5,0.5,3.5,0.5c0,0,2.5,0,3.3-0.5c0-5.5,0-11.3,0-16.8c0-2.5,0-5,0-7.8c0-3,0.2-6.3,0.5-9l0,0c0,0,0-0.8,0.2-1.3
	c0-0.5,0.5-1,1-1c0.5,0,0.8,0.5,1,1c0,0.5,0.2,1.3,0.2,1.3l0,0c0.2,3,0.5,6.3,0.5,9c0,2.5,0,5,0,7.8c0,5.5,0,11.3,0,16.8
	c0.8,0.5,3.3,0.5,3.3,0.5c1,0,3.5-0.5,3.5-0.5v-8c0.2-4.5,0-9.3,0.5-13.8c0.2-3.3,0.5-6.3,1-9.5c-0.5-3,0-6-0.5-9c0-0.3,0-0.5,0-0.8
	c-0.2-2-0.8-3.5-1.5-5.3c-0.2-0.5-0.2-1-0.5-1.5c0-0.3-0.3-0.5-0.3-0.8l0,0l0,0l0,0C1105.5,184.8,1102,185.3,1099,185.3"/>
<path class="st60" d="M244.7,555.3c-4.8,0-6.5-1.3-6.5-1.3c0.5-2.3,0.8-3.8-0.3-8.3l0,0c-1-4.5-1.8-7.5-1.3-11.3
	c0.3-2.5,1.8-6.8,2-8.3c1-2.8,1-4.3,0.5-5.8c-0.8-1.3-2-4-1.8-6.5l-1.5,5c-2.8,0.3-3.8-1.3-3.8-1.3c0.8-2.8,1.8-6.5,2-7.5
	c0.3-1.3,1.5-2.8,3.5-3.5l0,0l3.5-1.5c-0.5,2.3,1,3.8,3.5,3.8c2.5,0,4-1.5,3.5-3.8l3.5,1.3l0,0c2,0.8,3.3,2.3,3.5,3.5
	c0.3,1,1.3,4.8,2,7.5c0,0-1,1.5-3.8,1.5l-1.5-5.3c0.3,2.8-1,5.5-1.3,6.8c-0.5,1.3-0.5,3,0.5,5.8c0.5,1.5,1.8,5.8,2,8.3
	c0.3,3.8-0.3,7-1.3,11.3l0,0c-1,4.5-1,6-0.3,8.3C251.2,554,249.4,555.3,244.7,555.3z"/>
<path class="st60" d="M566.8,401.6c0.8-0.2,1.8-0.2,3.8,0c2,0.3,3.5-0.5,3.5-0.5c0-1.3-2.3-20.5-2.3-23.3c0-2.8-0.8-6.3-1.8-8.8
	c-1-2.5-0.5-5.5-0.5-5.5c0.5-1,2-2.3,1-4.8c-0.5-1.8-0.5-6.3-0.5-6.3l-2.8-1c0,0.8-1,1.5-2.3,1.5l0,0l0,0c-1.3,0-2-0.8-2.3-1.5
	l-2.8,1c0,0,0,4.5-0.5,6c-1,2.8,0.5,4,1,5c0,0,0.8,3-0.5,5.5c-1,2.5-1.3,6.3-1.5,8.8c-0.3,2.5-2.5,21.8-2.3,23.3
	c0,0,1.5,0.8,3.5,0.5c1.8-0.2,3-0.2,3.8,0C563.3,401.6,564.8,402.3,566.8,401.6z"/>
<path class="st60" d="M673.6,524.5c0.8-0.2,1.8-0.2,3.8,0s3.5-0.5,3.5-0.5c0-1.3-2.3-20.5-2.3-23.3c0-2.8-0.8-6.3-1.8-8.8
	c-1-2.5-0.5-5.5-0.5-5.5c0.5-1,2-2.3,1-4.8c-0.5-1.8-0.5-6.3-0.5-6.3l-2.8-1c0,0.8-1,1.5-2.3,1.5l0,0l0,0c-1.3,0-2-0.8-2.3-1.5
	l-2.8,1c0,0,0,4.5-0.5,6c-1,2.8,0.5,4,1,5c0,0,0.8,3-0.5,5.5c-1,2.5-1.3,6.3-1.5,8.8c-0.3,2.5-2.5,21.8-2.3,23.3
	c0,0,1.5,0.8,3.5,0.5c1.8-0.2,3-0.2,3.8,0C670.1,524.5,671.6,525.3,673.6,524.5z"/>
<path class="st60" d="M565.1,429.6c-3,0-6.5-0.5-7.8-0.8l0,0l0,0l0,0c0,0.3-0.3,0.5-0.3,0.8c-0.2,0.2-0.5,0.8-0.5,1.3
	c-0.8,1.8-1.3,3.3-1.5,5.3c0,0.3,0,0.5,0,0.8c-0.5,3,0,6,0.5,9c0.5,3.3,0.8,6.3,1,9.5c0.3,4.5,0.3,9.3,0.5,13.8v8
	c0,0,2.5,0.5,3.5,0.5c0,0,2.5,0,3.3-0.5c0-5.5,0-11.3,0-16.8c0-2.5,0-5,0-7.8c0-3,0.3-6.3,0.5-9l0,0c0,0,0-0.8,0.3-1.3
	c0-0.5,0.5-1,1-1c0.5,0,0.8,0.5,1,1c0,0.5,0.3,1.3,0.3,1.3l0,0c0.3,3,0.5,6.3,0.5,9c0,2.5,0,5,0,7.8c0,5.5,0,11.3,0,16.8
	c0.8,0.5,3.3,0.5,3.3,0.5c1,0,3.5-0.5,3.5-0.5v-8c0.3-4.5,0-9.3,0.5-13.8c0.3-3.3,0.5-6.3,1-9.5c-0.5-3,0-6-0.5-9c0-0.3,0-0.5,0-0.8
	c-0.3-2-0.8-3.5-1.5-5.3c-0.3-0.5-0.3-1-0.5-1.5c0-0.2-0.3-0.5-0.3-0.8l0,0l0,0l0,0C571.6,429.1,568.1,429.6,565.1,429.6"/>
</svg>
