<?xml version="1.0" encoding="utf-8"?>
<!-- Generator: Adobe Illustrator 20.1.0, SVG Export Plug-In . SVG Version: 6.00 Build 0)  -->
<svg version="1.1" id="Layer_1" xmlns="http://www.w3.org/2000/svg" xmlns:xlink="http://www.w3.org/1999/xlink" x="0px" y="0px"
	 viewBox="0 0 1200 630" style="enable-background:new 0 0 1200 630;" xml:space="preserve">
<style type="text/css">
	.st0{fill:#F3A54A;}
	.st1{fill:#AA7CAA;}
	.st2{fill:#CCDE66;}
	.st3{fill:#4B90A6;}
	.st4{fill:#58595B;}
</style>
<path class="st0" d="M105,105.6c-6.7,7.1-16.1,11.2-25.9,11.1l0-5.1c8.4,0,16.4-3.4,22.2-9.6L105,105.6z"/>
<path class="st0" d="M301.8,115.3c-18.8-5.5-29.6-25.2-24.1-44.1s25.2-29.6,44.1-24.1c14.7,4.3,25.1,17.6,25.5,33l-5.1,0.2
	c-0.5-16.8-14.6-30-31.4-29.4c-16.8,0.5-30,14.6-29.4,31.4c0.4,13.2,9.3,24.6,21.9,28.2L301.8,115.3z"/>
<path class="st0" d="M575.7,64.5c9.3,17.3,2.7,38.8-14.6,48.1c-5.2,2.8-10.9,4.2-16.8,4.2l0-5.1c16.8,0,30.5-13.6,30.5-30.4
	c0-5-1.2-10-3.6-14.4L575.7,64.5z"/>
<path class="st0" d="M798.7,53.1c8.3,6.4,13.3,16.1,13.7,26.5l-5.1,0.2c-0.4-8.9-4.7-17.3-11.8-22.7L798.7,53.1z"/>
<path class="st0" d="M909.6,112.8c-17.4,9-38.9,2.2-47.9-15.2s-2.2-38.9,15.2-47.9c7.1-3.7,15.2-4.9,23.1-3.3l-1,5
	c-16.5-3.2-32.5,7.6-35.7,24.1c-3.2,16.5,7.6,32.5,24.1,35.7c6.7,1.3,13.7,0.3,19.8-2.9L909.6,112.8z"/>
<path class="st0" d="M987,108.7c-15.2-12.4-17.4-34.8-5-50c12.4-15.2,34.8-17.4,50-5c10.6,8.7,15.3,22.7,12,36l-4.9-1.2
	c4-16.3-5.9-32.8-22.3-36.9S984,57.6,980,73.9c-2.8,11.4,1.2,23.4,10.3,30.8L987,108.7z"/>
<path class="st0" d="M1127.5,116.7c-19.3,0.9-35.8-13.8-37.1-33.1l5.1-0.3c1.1,16.5,15.3,29.1,31.8,28.3L1127.5,116.7z"/>
<path class="st0" d="M112.3,210.4c-7.1,18.3-27.7,27.3-46,20.2c-2.8-1.1-5.4-2.5-7.8-4.2l3-4.1c13.7,9.8,32.7,6.6,42.5-7
	c1.5-2.1,2.7-4.3,3.6-6.6L112.3,210.4z"/>
<path class="st0" d="M214.5,227.5c-16.6,10.5-38.5,5.6-49-10.9c-7.9-12.5-7.3-28.5,1.5-40.4l4.1,3c-10.1,13.5-7.4,32.5,6.1,42.6
	c10.1,7.6,23.9,8.1,34.6,1.3L214.5,227.5z"/>
<path class="st0" d="M309.1,162.1c4-0.3,7.9,0.1,11.8,1.1l-1.3,4.9c-3.3-0.9-6.7-1.2-10.1-0.9L309.1,162.1z"/>
<path class="st0" d="M449.3,226c-15.7,11.7-38,8.4-49.7-7.3s-8.4-38,7.3-49.7c3.5-2.6,7.5-4.6,11.7-5.7l1.3,4.9
	c-16.2,4.5-25.7,21.2-21.3,37.4c4.5,16.2,21.2,25.7,37.4,21.3c3.6-1,7-2.7,10.1-4.9L449.3,226z"/>
<path class="st0" d="M542.7,162c19.6-0.9,36.2,14.3,37.1,33.9c0.3,5.6-0.8,11.3-3.2,16.4l-4.6-2.1c7-15.3,0.3-33.4-15-40.4
	c-4.4-2-9.2-2.9-14-2.7L542.7,162z"/>
<path class="st0" d="M648,230.7c-18.3-7-27.5-27.5-20.5-45.9c4.7-12.3,15.9-21,29-22.6l0.6,5c-16.7,2-28.6,17.1-26.6,33.8
	c1.3,11.2,8.8,20.8,19.4,24.8L648,230.7z"/>
<path class="st0" d="M742,191.1c3.5-18.9,21.5-31.6,40.5-28.6l-0.8,5c-16.3-2.6-31.7,8.3-34.7,24.5L742,191.1z"/>
<path class="st0" d="M904.6,231.2c-13.7,4.6-28.8,0.5-38.2-10.4l3.8-3.3c8.1,9.4,21,12.9,32.8,8.9L904.6,231.2z"/>
<path class="st0" d="M1090.3,197.9c-0.2-19.6,15.5-35.7,35.1-35.9c5.3-0.1,10.5,1.1,15.3,3.3l-2.1,4.6c-15.3-7.1-33.4-0.4-40.4,14.8
	c-1.9,4.1-2.9,8.6-2.8,13.1L1090.3,197.9z"/>
<path class="st0" d="M95.1,282c17.5,8.8,24.7,30.1,15.9,47.7c-5.3,10.6-15.6,17.9-27.4,19.4l-0.6-5c16.7-2.1,28.6-17.3,26.5-33.9
	c-1.2-10.1-7.5-18.9-16.6-23.5L95.1,282z"/>
<path class="st0" d="M189.7,348.9c-19.4-3.2-32.4-21.5-29.2-40.8c0.8-5.1,2.8-9.9,5.7-14.2l4.2,2.9c-9.4,13.9-5.8,32.8,8.1,42.3
	c3.6,2.5,7.8,4.1,12.1,4.9L189.7,348.9z"/>
<path class="st0" d="M278.4,301.7c4.7-12.8,16.3-21.8,29.8-23.2l0.5,5c-11.6,1.2-21.6,8.9-25.6,19.9L278.4,301.7z"/>
<path class="st0" d="M525.1,343.7c-16.5-10.6-21.3-32.6-10.7-49.1c3-4.7,7.1-8.6,11.9-11.4l2.6,4.4c-14.5,8.5-19.3,27.2-10.8,41.7
	c2.4,4.1,5.8,7.6,9.8,10.2L525.1,343.7z"/>
<path class="st0" d="M646.6,281.2c18-7.8,38.9,0.5,46.7,18.5s-0.5,38.9-18.5,46.7c-0.8,0.4-1.6,0.7-2.5,1l-1.7-4.8
	c15.9-5.5,24.3-22.8,18.8-38.7c-5.5-15.9-22.8-24.3-38.7-18.8c-0.7,0.2-1.4,0.5-2.1,0.8L646.6,281.2z"/>
<path class="st0" d="M928.2,320.2c-3.5,19.3-22,32.1-41.3,28.5c-9.3-1.7-17.6-7.1-23-15l4.2-2.9c9.5,13.9,28.4,17.5,42.3,8
	c6.7-4.6,11.4-11.7,12.8-19.7L928.2,320.2z"/>
<path class="st0" d="M974.6,307.2c1.4-7.5,5.2-14.4,10.9-19.6l3.4,3.7c-4.8,4.4-8.1,10.3-9.3,16.8L974.6,307.2z"/>
<path class="st0" d="M1150,339.8c-14.4,13.3-36.9,12.5-50.2-1.9c-13.3-14.4-12.5-36.9,1.9-50.2c9.5-8.9,23.1-11.8,35.5-7.6l-1.6,4.8
	c-15.9-5.3-33.2,3.2-38.6,19.2c-5.3,15.9,3.2,33.2,19.2,38.6c10.6,3.5,22.2,1,30.4-6.6L1150,339.8z"/>
<path class="st0" d="M104.9,405.6c13.6,14.2,13,36.7-1.1,50.2s-36.7,13-50.2-1.1c-9.9-10.4-12.6-25.7-6.8-38.8l4.6,2
	c-6.8,15.4,0.3,33.4,15.7,40.1c15.4,6.8,33.4-0.3,40.1-15.7c4.9-11.3,2.6-24.4-5.9-33.3L104.9,405.6z"/>
<path class="st0" d="M288.2,403.5c14.7-13,37.1-11.7,50.1,3c6.1,6.9,9.3,16,8.9,25.2l-5.1-0.2c0.8-16.8-12.2-31-29-31.8
	c-7.9-0.4-15.7,2.4-21.6,7.6L288.2,403.5z"/>
<path class="st0" d="M424,394.8c4.8-0.6,9.6-0.1,14.2,1.2l-1.4,4.9c-3.9-1.2-8.1-1.5-12.2-1.1L424,394.8z"/>
<path class="st0" d="M557.8,397.2c2.1,0.8,4,1.9,5.9,3.1l-2.8,4.3c-1.6-1-3.3-1.9-5.1-2.6L557.8,397.2z"/>
<path class="st0" d="M808.6,446.2c-8.9,17.5-30.3,24.5-47.8,15.6c-17.5-8.9-24.5-30.3-15.6-47.8c4.3-8.4,11.8-14.8,20.8-17.7
	l1.6,4.8c-16,5.2-24.8,22.3-19.6,38.3c5.2,16,22.3,24.8,38.3,19.6c7.7-2.5,14.1-8,17.8-15.2L808.6,446.2z"/>
<path class="st0" d="M928.6,433.3c-1.8,19.5-19,34-38.6,32.2c-9.4-0.8-18-5.4-24.1-12.6l3.9-3.3c10.8,12.9,30,14.6,42.9,3.8
	c6.2-5.2,10.1-12.6,10.8-20.6L928.6,433.3z"/>
<path class="st0" d="M1041.8,415.3c5.1,11.2,4.1,24.3-2.7,34.5l-4.2-2.8c5.9-8.8,6.7-20,2.3-29.6L1041.8,415.3z"/>
<path class="st0" d="M1128.8,465.5c-19.5,1.6-36.7-12.9-38.4-32.4s12.9-36.7,32.4-38.4c10-0.8,19.8,2.6,27.1,9.4l-3.5,3.7
	c-12.3-11.4-31.6-10.7-43,1.6s-10.7,31.6,1.6,43c6.3,5.8,14.7,8.7,23.2,8L1128.8,465.5z"/>
<path class="st0" d="M56.2,519.3c15-12.7,37.4-10.8,50.1,4.1c12.7,15,10.8,37.4-4.1,50.1c-10.8,9.2-26.1,11-38.8,4.7l2.3-4.5
	c15.1,7.5,33.3,1.3,40.8-13.7c7.5-15.1,1.3-33.3-13.7-40.8c-10.9-5.4-24-3.8-33.2,4L56.2,519.3z"/>
<path class="st0" d="M174.8,575.3c-16-11.4-19.6-33.6-8.2-49.6c11.4-16,33.6-19.6,49.6-8.2c9.9,7.1,15.5,18.8,14.8,31l-5.1-0.3
	c1-16.8-11.8-31.2-28.6-32.2s-31.2,11.8-32.2,28.6c-0.6,10.4,4.2,20.5,12.7,26.6L174.8,575.3z"/>
<path class="st0" d="M346,537c5.2,18.9-6,38.5-24.9,43.6c-4.2,1.2-8.6,1.5-13,1.1l0.5-5c16.7,1.7,31.7-10.5,33.4-27.2
	c0.4-3.7,0.1-7.5-0.9-11.1L346,537z"/>
<path class="st0" d="M429.9,510.9c19.6,1,34.7,17.7,33.7,37.3c-1,19.6-17.7,34.7-37.3,33.7c-1.3-0.1-2.7-0.2-4-0.4l0.8-5
	c16.6,2.7,32.3-8.5,35-25.1s-8.5-32.3-25.1-35c-1.1-0.2-2.3-0.3-3.4-0.4L429.9,510.9z"/>
<path class="st0" d="M631.3,566.5c-2.1-3.1-3.7-6.4-4.8-10l4.9-1.4c0.9,3,2.3,5.9,4.1,8.6L631.3,566.5z"/>
<path class="st0" d="M743,557c-5.8-18.7,4.6-38.6,23.4-44.5c18.7-5.8,38.6,4.6,44.5,23.4c4.1,13.1,0.3,27.3-9.8,36.6l-3.4-3.7
	c12.3-11.4,13.1-30.7,1.7-43c-11.4-12.3-30.7-13.1-43-1.7c-8.6,8-11.9,20.2-8.4,31.4L743,557z"/>
<path class="st0" d="M902.6,580.7c-18.9,5.2-38.5-6-43.6-24.9c-2.7-9.9-1-20.5,4.7-29.1l4.2,2.8c-9.3,14-5.6,32.9,8.4,42.2
	c7.3,4.9,16.4,6.4,24.9,4L902.6,580.7z"/>
<path class="st0" d="M1093.5,561.2c-5.9-12.7-3.7-27.7,5.5-38.2l3.8,3.3c-7.9,9-9.8,21.9-4.8,32.8L1093.5,561.2z"/>
<path class="st1" d="M118.1,94c-0.9,2.8-2.2,5.5-3.7,8.1l-4.7-2.8c1.3-2.2,2.4-4.6,3.2-7L118.1,94z"/>
<path class="st1" d="M282.7,52.4c4.7-4.7,10.5-8.2,16.9-10.2l1.6,5.2c-5.5,1.7-10.6,4.8-14.6,8.9L282.7,52.4z"/>
<path class="st1" d="M522.1,46.9c19-12.3,44.3-6.8,56.6,12.1s6.8,44.3-12.1,56.6c-9.5,6.1-21.1,8.1-32.1,5.4l1.3-5.3
	c19,4.7,38.3-6.9,43-25.9c4.7-19-6.9-38.3-25.9-43c-9.5-2.4-19.6-0.7-27.9,4.6L522.1,46.9z"/>
<path class="st1" d="M811.4,103.3c-12.2,19-37.5,24.6-56.6,12.4c-19-12.2-24.6-37.5-12.4-56.6c1.4-2.2,3-4.2,4.7-6l3.9,3.7
	c-13.5,14.3-12.9,36.7,1.4,50.2s36.7,12.9,50.2-1.4c1.5-1.6,2.9-3.4,4.1-5.2L811.4,103.3z"/>
<path class="st1" d="M867.7,49.2c17.7-14.1,43.4-11.2,57.5,6.5c8.2,10.3,11,24,7.3,36.8l-5.2-1.5c5.4-18.9-5.5-38.5-24.4-43.9
	c-11-3.2-22.9-0.8-31.9,6.4L867.7,49.2z"/>
<path class="st1" d="M970.9,67.6c7.5-21.3,30.9-32.5,52.2-25s32.5,30.9,25,52.2c-0.1,0.2-0.1,0.4-0.2,0.6l-5.1-1.9
	c6.8-18.4-2.6-38.8-21-45.6c-18.4-6.8-38.8,2.6-45.6,21c-0.1,0.2-0.1,0.4-0.2,0.5L970.9,67.6z"/>
<path class="st1" d="M1101.9,48c13.3-9.6,31.1-10.3,45.1-1.8l-2.8,4.6c-12.2-7.4-27.6-6.8-39.2,1.5L1101.9,48z"/>
<path class="st1" d="M117.1,213c-8.6,20.9-32.4,31-53.4,22.4c-13.6-5.5-23.2-17.9-25.1-32.5l5.4-0.7c2.6,19.4,20.5,33.1,39.9,30.5
	c12.6-1.7,23.4-10,28.2-21.8L117.1,213z"/>
<path class="st1" d="M155.9,187.2c4.4-16.8,18.9-29.1,36.3-30.5l0.4,5.4c-15,1.2-27.7,11.8-31.5,26.4L155.9,187.2z"/>
<path class="st1" d="M281.3,224.8c-3-3.3-5.4-7.1-7.1-11.2l5-2.1c1.5,3.6,3.6,6.8,6.2,9.7L281.3,224.8z"/>
<path class="st1" d="M465,179.9c9.7,20.4,1,44.8-19.4,54.5c-20.4,9.7-44.8,1-54.5-19.4c-7.3-15.4-4.3-33.7,7.5-46l3.9,3.8
	c-13.6,14.1-13.2,36.6,0.9,50.2c14.1,13.6,36.6,13.2,50.2-0.9c10.3-10.7,12.9-26.6,6.5-39.9L465,179.9z"/>
<path class="st1" d="M518.9,165.5c14.6-11.6,35.3-11.8,50.1-0.6l-3.3,4.3c-12.9-9.8-30.8-9.6-43.5,0.5L518.9,165.5z"/>
<path class="st1" d="M642.1,234c-20.2-10.2-28.2-34.9-18-55c5.1-10,14-17.4,24.6-20.6l1.6,5.2c-18.8,5.7-29.4,25.5-23.7,44.3
	c2.8,9.3,9.3,17,17.9,21.4L642.1,234z"/>
<path class="st1" d="M749.1,227.6c-15.6-14.5-17.5-38.6-4.4-55.3l4.3,3.3c-11.4,14.5-9.8,35.4,3.8,48L749.1,227.6z"/>
<path class="st1" d="M852.4,194.2c1.5-18.6,15.4-33.8,33.8-37l0.9,5.3c-16,2.8-28,16-29.3,32.1L852.4,194.2z"/>
<path class="st1" d="M1110.3,235.4c-4.7-1.9-9-4.7-12.7-8.2l3.7-3.9c3.2,3.1,7,5.5,11.1,7.2L1110.3,235.4z"/>
<path class="st1" d="M108.3,285c15.9,16.1,15.8,42-0.3,57.9s-42,15.8-57.9-0.3c-7.1-7.2-11.4-16.8-11.8-27l5.4-0.2
	c0.9,19.6,17.5,34.8,37.1,33.9s34.8-17.5,33.9-37.1c-0.4-8.8-4-17.1-10.2-23.4L108.3,285z"/>
<path class="st1" d="M233.4,298.4c2.6,6.3,3.5,13.2,2.7,20l-5.4-0.6c0.7-5.9-0.2-11.9-2.4-17.4L233.4,298.4z"/>
<path class="st1" d="M335.9,280.8c16.3,11.9,21.5,34,12.1,52l-4.8-2.5c8.1-15.6,3.7-34.7-10.5-45.1L335.9,280.8z"/>
<path class="st1" d="M516.2,284.1c0.6-0.6,1.2-1.1,1.8-1.6l3.5,4.1c-0.5,0.4-1,0.9-1.6,1.4L516.2,284.1z"/>
<path class="st1" d="M633.4,283.3c2.3-2,4.8-3.8,7.5-5.3l2.6,4.7c-2.3,1.3-4.5,2.8-6.5,4.6L633.4,283.3z"/>
<path class="st1" d="M887.6,354.4c-15.5-2.1-28.4-12.9-33.3-27.7l5.1-1.7c4.3,12.9,15.5,22.2,28.9,24L887.6,354.4z"/>
<path class="st1" d="M986.5,347.6c-18.7-12.7-23.5-38.2-10.8-56.9c6.5-9.6,16.8-16,28.3-17.5l0.7,5.4c-19.4,2.6-33.1,20.5-30.4,40
	c1.4,10,6.9,18.9,15.2,24.6L986.5,347.6z"/>
<path class="st1" d="M1159.9,336.5c-12.5,18.8-37.9,23.9-56.8,11.4c0,0,0,0,0,0l3-4.5c16.3,10.9,38.4,6.5,49.3-9.8c0,0,0,0,0,0
	L1159.9,336.5z"/>
<path class="st1" d="M117.6,444.2c-7.8,21.2-31.3,32.2-52.5,24.4c-10.3-3.8-18.7-11.5-23.2-21.5l4.9-2.2c8.1,17.9,29.2,25.7,47,17.6
	c8.7-3.9,15.4-11.2,18.6-20.1L117.6,444.2z"/>
<path class="st1" d="M321,390.2c22,5.1,35.7,27.1,30.6,49.1c-5.1,22-27.1,35.7-49.1,30.6c-12.1-2.8-22.2-10.9-27.6-22.1l4.9-2.4
	c8.5,17.7,29.8,25.1,47.4,16.5s25.1-29.8,16.5-47.4c-4.7-9.7-13.5-16.7-23.9-19.1L321,390.2z"/>
<path class="st1" d="M407.2,394.9c19.4-11.5,44.6-5.1,56.1,14.3c11.5,19.4,5.1,44.6-14.3,56.1c-9.2,5.5-20.2,7.1-30.6,4.6l1.3-5.3
	c19.1,4.6,38.3-7.1,42.9-26.1s-7.1-38.3-26.1-42.9c-9-2.2-18.5-0.8-26.5,4L407.2,394.9z"/>
<path class="st1" d="M545.5,471c-22.6,0.7-41.4-17.1-42.1-39.7c-0.7-22.6,17.1-41.4,39.7-42.1c13.8-0.4,27,6.2,34.8,17.6l-4.5,3.1
	c-11.2-16.1-33.3-20.2-49.4-9c-16.1,11.2-20.2,33.3-9,49.4c6.8,9.9,18.2,15.6,30.2,15.3L545.5,471z"/>
<path class="st1" d="M759.8,392.9c20.5-9.4,44.8-0.4,54.3,20.1s0.4,44.8-20.1,54.3c-13.6,6.3-29.6,4.6-41.7-4.4l3.2-4.3
	c15.7,11.8,38,8.6,49.7-7.1c11.8-15.7,8.6-38-7.1-49.7c-10.4-7.8-24.3-9.3-36.1-3.9L759.8,392.9z"/>
<path class="st1" d="M899.8,389.7c6.1,1,11.8,3.3,16.9,6.8l-3.1,4.4c-4.4-3-9.4-5.1-14.6-5.9L899.8,389.7z"/>
<path class="st1" d="M1041.7,455.4c-14,17.8-39.7,20.9-57.5,6.9c-10.4-8.2-16.2-20.8-15.6-34l5.4,0.2c-0.9,19.6,14.3,36.2,33.9,37.1
	c11.5,0.5,22.5-4.5,29.5-13.6L1041.7,455.4z"/>
<path class="st1" d="M1144,393.4c20.2,10.1,28.5,34.6,18.4,54.9c-6,12-17.4,20.3-30.7,22.3l-0.8-5.4c19.4-2.9,32.8-20.9,30-40.3
	c-1.7-11.5-8.9-21.5-19.3-26.6L1144,393.4z"/>
<path class="st1" d="M71.9,506.1c22.3-4,43.5,10.8,47.5,33c2.5,14.1-2.5,28.5-13.2,37.9l-3.6-4.1c14.7-13,16.1-35.4,3.1-50.1
	c-8.2-9.3-20.7-13.7-32.9-11.5L71.9,506.1z"/>
<path class="st1" d="M176.4,510.2c20-10.5,44.8-2.8,55.3,17.2c0.8,1.4,1.4,2.9,2,4.5l-5.1,1.9c-7-18.3-27.5-27.5-45.9-20.5
	c-1.3,0.5-2.6,1.1-3.9,1.7L176.4,510.2z"/>
<path class="st1" d="M298,585c-21.3-7.6-32.4-31-24.8-52.3c0.6-1.7,1.3-3.3,2.1-4.9l4.8,2.5c-8.9,17.5-2,38.9,15.5,47.8
	c1.4,0.7,2.8,1.3,4.2,1.8L298,585z"/>
<path class="st1" d="M436.2,506.3c15.4,3.1,27.7,14.8,31.6,30l-5.2,1.3c-3.4-13.2-14-23.4-27.4-26.1L436.2,506.3z"/>
<path class="st1" d="M640.1,581.8c-5.2-3-9.6-7.1-13-12l4.4-3.1c3,4.3,6.8,7.8,11.3,10.4L640.1,581.8z"/>
<path class="st1" d="M766.7,586c-21.9-5.7-35.1-28-29.4-49.9s28-35.1,49.9-29.4c8.3,2.2,15.8,6.9,21.3,13.5l-4.2,3.5
	c-12.5-15.1-34.9-17.2-50-4.7c-15.1,12.5-17.2,34.9-4.7,50c4.8,5.8,11.2,9.9,18.5,11.7L766.7,586z"/>
<path class="st1" d="M882.3,507c21.8-6,44.3,6.7,50.4,28.5s-6.7,44.3-28.5,50.4c-16.9,4.7-34.9-1.9-44.8-16.4l4.5-3
	c11,16.2,33.1,20.4,49.4,9.4c16.2-11,20.4-33.1,9.4-49.4c-8.6-12.6-24.2-18.3-38.9-14.2L882.3,507z"/>
<path class="st1" d="M1111.6,584.8c-21.2-7.9-32-31.4-24.1-52.6c5.6-15.1,19.6-25.5,35.7-26.6l0.4,5.4
	c-19.6,1.3-34.4,18.2-33.1,37.8c0.9,14,10,26.1,23.1,30.9L1111.6,584.8z"/>
<path class="st2" d="M114.1,111.8c-1.3,1.5-2.7,2.9-4.1,4.2l-3.6-4.1c1.3-1.1,2.5-2.4,3.7-3.7L114.1,111.8z"/>
<path class="st2" d="M265.8,75.1c3.4-25.4,26.7-43.2,52.1-39.8c10.7,1.4,20.5,6.5,27.8,14.4l-4,3.7c-15.4-16.6-41.3-17.5-57.9-2.1
	c-6.9,6.5-11.4,15.1-12.7,24.6L265.8,75.1z"/>
<path class="st2" d="M498,79.8c0.8-25.6,22.2-45.7,47.8-44.9c25.6,0.8,45.7,22.2,44.9,47.8c-0.3,10.7-4.4,21-11.4,29.1l-4.1-3.6
	c14.9-17,13.1-42.9-3.9-57.8s-42.9-13.1-57.8,3.9c-6.2,7.1-9.8,16.2-10.1,25.7L498,79.8z"/>
<path class="st2" d="M823.1,77.1c2.3,25.5-16.5,48-42,50.3c-25.5,2.3-48-16.5-50.3-42c-0.6-6.4,0.2-12.9,2.3-19l5.1,1.7
	c-7.2,21.4,4.2,44.6,25.7,51.9c21.4,7.2,44.6-4.2,51.9-25.7c1.8-5.4,2.5-11.1,2-16.8L823.1,77.1z"/>
<path class="st2" d="M893.9,34.9c25.6,0.4,46,21.5,45.6,47.1c0,0.4,0,0.7,0,1.1l-5.4-0.2c0.9-22.6-16.7-41.6-39.3-42.5
	c-0.3,0-0.6,0-1,0L893.9,34.9z"/>
<path class="st2" d="M994.7,37.3c24.2-8.2,50.6,4.8,58.8,29.1c0.5,1.6,1,3.3,1.4,4.9l-5.3,1.2c-4.8-22.1-26.7-36.1-48.7-31.2
	c-1.5,0.3-2.9,0.7-4.3,1.2L994.7,37.3z"/>
<path class="st2" d="M1101.7,120.8c-12.2-7.4-20.3-20.1-22-34.3l5.4-0.6c1.4,12.6,8.6,23.8,19.4,30.3L1101.7,120.8z"/>
<path class="st2" d="M76.6,243.8c-6.1-0.3-12.1-1.9-17.6-4.6l2.4-4.9c4.9,2.4,10.2,3.7,15.6,4L76.6,243.8z"/>
<path class="st2" d="M183.6,242.3c-24.7-6.5-39.5-31.9-33-56.6c2.2-8.2,6.5-15.6,12.6-21.5l3.8,3.9c-16.2,15.7-16.7,41.6-1,57.9
	c5.2,5.4,11.7,9.2,19,11.1L183.6,242.3z"/>
<path class="st2" d="M353,176.3c3.6,7,5.4,14.8,5.1,22.7l-5.4-0.2c0.2-7-1.3-13.9-4.5-20L353,176.3z"/>
<path class="st2" d="M464.4,168.7c15.9,20,12.6,49.2-7.5,65.1c-20,15.9-49.2,12.6-65.1-7.5c-0.2-0.2-0.3-0.4-0.5-0.6l4.3-3.3
	c13.8,17.9,39.5,21.3,57.4,7.6c17.9-13.8,21.3-39.5,7.6-57.4c-0.1-0.2-0.3-0.4-0.4-0.5L464.4,168.7z"/>
<path class="st2" d="M572.4,160.6c20.4,15.5,24.4,44.6,8.9,64.9s-44.6,24.4-64.9,8.9c-9.3-7.1-15.6-17.4-17.6-29l5.3-0.9
	c3.9,22.3,25.1,37.2,47.3,33.3s37.2-25.1,33.3-47.3c-1.8-10.2-7.3-19.3-15.6-25.6L572.4,160.6z"/>
<path class="st2" d="M634.4,235.7c-20.6-14.1-26.3-42.1-12.9-63.2l4.6,2.9c-11.9,18.6-6.9,43.3,11.4,55.8L634.4,235.7z"/>
<path class="st2" d="M745.8,163.2c19-17.2,48.3-15.7,65.5,3.3c17.2,19,15.7,48.3-3.3,65.5c-12.7,11.5-30.7,15-46.8,9.2l1.8-5.1
	c21.3,7.7,44.7-3.3,52.4-24.6s-3.3-44.7-24.6-52.4c-14.2-5.1-30.1-2-41.4,8.2L745.8,163.2z"/>
<path class="st2" d="M871.8,238.6c-11.3-5.9-19.7-16.2-23.2-28.6l5.2-1.5c3.1,10.9,10.5,20,20.5,25.2L871.8,238.6z"/>
<path class="st2" d="M1143.9,154.8c19.9,8.4,31.3,29.4,27.6,50.7l-5.3-0.9c3.3-18.8-6.8-37.4-24.4-44.8L1143.9,154.8z"/>
<path class="st2" d="M91,269c24.8,6.5,39.5,31.9,33,56.6c-6.5,24.8-31.9,39.5-56.6,33c-1.7-0.5-3.4-1-5.1-1.7l2-5
	c21.1,8.2,44.8-2.2,53-23.2c8.2-21.1-2.2-44.8-23.2-53c-1.5-0.6-3-1.1-4.5-1.5L91,269z"/>
<path class="st2" d="M159.3,284.8c16-20,45.2-23.2,65.2-7.1c20,16,23.2,45.2,7.1,65.2c-12.4,15.5-33.3,21.3-52,14.5l1.9-5.1
	c21.2,7.7,44.7-3.2,52.5-24.5c7.7-21.2-3.2-44.7-24.5-52.5c-16.5-6-34.9-0.8-45.9,12.8L159.3,284.8z"/>
<path class="st2" d="M265.5,311.5c1.3-25.6,23.1-45.2,48.6-43.9c2.3,0.1,4.6,0.4,6.9,0.9l-1.1,5.3c-22.2-4.5-43.8,9.8-48.3,31.9
	c-0.4,2-0.7,4-0.8,6.1L265.5,311.5z"/>
<path class="st2" d="M576.3,347.4c-18.5,17.6-47.9,16.9-65.5-1.6c-17.6-18.5-16.9-47.9,1.6-65.5c2.6-2.5,5.5-4.6,8.6-6.5l2.7,4.7
	c-19.5,11.4-26.1,36.5-14.7,56c11.4,19.5,36.5,26.1,56,14.7c2.7-1.6,5.3-3.5,7.6-5.7L576.3,347.4z"/>
<path class="st2" d="M700.1,338.2c-13.4,21.8-42,28.5-63.8,15.1c-9.4-5.8-16.4-14.7-19.8-25.2l5.2-1.7c6.9,21.5,30,33.3,51.5,26.4
	c9.3-3,17.2-9.2,22.3-17.5L700.1,338.2z"/>
<path class="st2" d="M855.6,340.8c-14.9-20.8-10.1-49.8,10.7-64.7c20.8-14.9,49.8-10.1,64.7,10.7c10.8,15.1,11.6,35.3,1.9,51.1
	l-4.6-2.8c11.8-19.3,5.7-44.5-13.6-56.3c-19.3-11.8-44.5-5.7-56.3,13.6c-8.6,14-7.9,31.8,1.7,45.2L855.6,340.8z"/>
<path class="st2" d="M977.7,280.1c18.6-17.6,47.9-16.7,65.5,1.9c17.6,18.6,16.7,47.9-1.9,65.5c-12.3,11.6-29.9,15.6-46,10.4l1.7-5.2
	c21.5,6.9,44.6-4.9,51.5-26.4c6.9-21.5-4.9-44.6-26.4-51.5c-14.2-4.6-29.8-1-40.6,9.2L977.7,280.1z"/>
<path class="st2" d="M1113.6,358.5c-15.5-4.2-27.7-16.1-32.2-31.5l5.2-1.5c4,13.6,14.8,24.1,28.5,27.8L1113.6,358.5z"/>
<path class="st2" d="M107.2,467c-20.4,15.5-49.5,11.5-64.9-8.9s-11.5-49.5,8.9-64.9c10.1-7.6,22.8-10.8,35.3-8.9l-0.8,5.3
	c-22.3-3.5-43.3,11.7-46.8,34.1s11.7,43.3,34.1,46.8c11,1.7,22.3-1.1,31.1-7.8L107.2,467z"/>
<path class="st2" d="M338.7,392.4c11.2,8,18.3,20.7,19.3,34.4l-5.4,0.4c-0.9-12.2-7.1-23.3-17-30.4L338.7,392.4z"/>
<path class="st2" d="M463.3,400c16.6,19.5,14.4,48.7-5.1,65.3s-48.7,14.4-65.3-5.1c-10-11.7-13.5-27.6-9.5-42.4l5.2,1.4
	c-6,21.8,6.8,44.3,28.6,50.3c21.8,6,44.3-6.8,50.3-28.6c3.6-13.1,0.5-27.1-8.4-37.5L463.3,400z"/>
<path class="st2" d="M582.5,403.7c14.6,21,9.3,49.9-11.7,64.5c-21,14.6-49.9,9.3-64.5-11.7c-7.2-10.4-9.9-23.4-7.3-35.9l5.3,1.1
	c-4.6,22.1,9.6,43.8,31.7,48.4c22.1,4.6,43.8-9.6,48.4-31.7c2.3-11,0-22.4-6.4-31.7L582.5,403.7z"/>
<path class="st2" d="M808.2,464.3c-18.9,17.3-48.2,16-65.5-2.9c-17.3-18.9-16-48.2,2.9-65.5c5.1-4.7,11.2-8.1,17.8-10.2l1.6,5.2
	c-21.6,6.6-33.9,29.4-27.3,51c6.6,21.6,29.4,33.9,51,27.3c5.9-1.8,11.2-4.8,15.8-9L808.2,464.3z"/>
<path class="st2" d="M879,474.2c-24.4-7.8-37.8-34-29.9-58.3c7.8-24.4,34-37.8,58.3-29.9c4.9,1.6,9.4,3.9,13.5,7l-3.2,4.3
	c-18.1-13.5-43.8-9.8-57.3,8.3c-13.5,18.1-9.8,43.8,8.3,57.3c3.6,2.7,7.6,4.8,11.9,6.2L879,474.2z"/>
<path class="st2" d="M999.7,384.8c25-5.4,49.7,10.5,55.1,35.5c5.4,25-10.5,49.7-35.5,55.1c-3.2,0.7-6.5,1-9.8,1l0-5.4
	c22.6,0,40.9-18.3,41-40.9s-18.3-40.9-40.9-41c-2.9,0-5.8,0.3-8.7,0.9L999.7,384.8z"/>
<path class="st2" d="M1106.9,387.8c10.3-4.6,21.9-5.3,32.6-2l-1.6,5.2c-9.5-2.9-19.7-2.3-28.8,1.7L1106.9,387.8z"/>
<path class="st2" d="M101.6,505.8c22.4,12.4,30.5,40.6,18.2,63c-10.3,18.6-31.9,27.8-52.4,22.4l1.4-5.2c21.9,5.8,44.3-7.3,50-29.1
	c4.8-18.1-3.4-37.2-19.8-46.3L101.6,505.8z"/>
<path class="st2" d="M174.1,505.3c22.7-11.8,50.7-2.9,62.5,19.8c11.8,22.7,2.9,50.7-19.8,62.5c-17.3,9-38.5,6.2-52.8-7.1l3.7-4
	c16.6,15.3,42.5,14.3,57.8-2.3s14.3-42.5-2.3-57.8c-12.7-11.7-31.3-14.2-46.6-6.3L174.1,505.3z"/>
<path class="st2" d="M358.1,544.6c0.6,16-7,31.1-20.3,40.1l-3-4.5c11.7-7.9,18.4-21.3,17.9-35.4L358.1,544.6z"/>
<path class="st2" d="M385.9,565.6c-10.6-23.3-0.3-50.8,23-61.4c4.3-2,9-3.3,13.7-3.8l0.6,5.4c-22.4,2.7-38.5,23-35.8,45.5
	c0.5,4.2,1.6,8.3,3.4,12.1L385.9,565.6z"/>
<path class="st2" d="M616.2,533.4c6.7-22.9,29.6-36.9,53.1-32.5l-1,5.3c-20.7-3.9-40.9,8.5-46.9,28.7L616.2,533.4z"/>
<path class="st2" d="M814,518.5c1.8,2.4,3.4,5,4.7,7.8l-4.9,2.3c-1.2-2.4-2.6-4.7-4.2-6.9L814,518.5z"/>
<path class="st2" d="M936.3,563.5c-4,10.1-11.4,18.4-20.9,23.6l-2.6-4.8c8.4-4.6,14.9-12,18.5-20.9L936.3,563.5z"/>
<path class="st2" d="M1090.8,576.7c-1.5-1.8-2.9-3.6-4.2-5.6l4.6-2.9c1.1,1.7,2.3,3.4,3.7,5L1090.8,576.7z"/>
<path class="st3" d="M130.4,87.5c-3.5,28.3-29.2,48.4-57.5,44.9c-13-1.6-25-8.1-33.4-18.2l4-3.4c16.4,19.7,45.6,22.4,65.3,6
	c9.1-7.5,14.9-18.3,16.4-30L130.4,87.5z"/>
<path class="st3" d="M281.8,39.2c6.6-4.7,14.1-7.7,22.1-9l0.8,5.2c-7.2,1.1-14,3.9-19.9,8.1L281.8,39.2z"/>
<path class="st3" d="M566.1,128c-25.8,12-56.5,0.8-68.5-25.1c-8.6-18.6-5.4-40.6,8.2-56l3.9,3.5c-17,19.1-15.3,48.4,3.9,65.4
	c13.8,12.3,33.5,15.2,50.3,7.4L566.1,128z"/>
<path class="st3" d="M802.8,36.6c24.7,14.3,33.1,45.8,18.8,70.5c-12.8,22.1-39.9,31.6-63.6,22.1l1.9-4.9c23.8,9.4,50.7-2.2,60.2-26
	c8.5-21.4,0-45.7-19.9-57.2L802.8,36.6z"/>
<path class="st3" d="M903.3,131.8c-27.9,5.5-55.1-12.6-60.6-40.6c-0.6-3.2-1-6.5-1-9.7l5.2,0c0.1,25.6,21,46.2,46.6,46.1
	c2.9,0,5.9-0.3,8.7-0.9L903.3,131.8z"/>
<path class="st3" d="M1056.4,102.8c-3.9,8.5-10,15.7-17.7,21l-3-4.3c6.9-4.7,12.4-11.2,15.9-18.8L1056.4,102.8z"/>
<path class="st3" d="M1152.1,36.9c15.9,9.4,25.6,26.7,25.3,45.2l-5.2-0.1c0.3-16.6-8.4-32.1-22.7-40.6L1152.1,36.9z"/>
<path class="st3" d="M77.7,249.1c-28.5-0.8-50.9-24.6-50.1-53.1c0.8-28.5,24.6-50.9,53.1-50.1c12.6,0.4,24.6,5.3,33.8,13.9l-3.6,3.8
	c-18.7-17.5-48-16.5-65.5,2.2s-16.5,48,2.2,65.5c8.3,7.7,19,12.2,30.3,12.5L77.7,249.1z"/>
<path class="st3" d="M243,217.6c-11.1,26.2-41.4,38.5-67.6,27.4s-38.5-41.4-27.4-67.6c5.8-13.7,17.2-24.2,31.4-28.9l1.6,5
	c-24.3,8-37.5,34.2-29.5,58.5s34.2,37.5,58.5,29.5c12.7-4.2,23-13.6,28.2-25.9L243,217.6z"/>
<path class="st3" d="M339.8,154.2c23.9,15.5,30.7,47.5,15.2,71.4c-6.2,9.6-15.4,16.8-26.1,20.6l-1.7-4.9c24.1-8.5,36.8-35,28.3-59.1
	c-3.4-9.7-9.9-17.9-18.5-23.5L339.8,154.2z"/>
<path class="st3" d="M376.8,203.3c-2.9-25.1,13-48.6,37.3-55.5l1.4,5c-21.9,6.1-36.1,27.3-33.5,49.8L376.8,203.3z"/>
<path class="st3" d="M594.6,209.3c-6.5,27.7-34.3,44.9-62,38.4c-8.8-2.1-16.9-6.4-23.5-12.6l3.6-3.8c18.7,17.5,48,16.6,65.5-2.1
	c5.6-5.9,9.5-13.2,11.3-21.1L594.6,209.3z"/>
<path class="st3" d="M711.6,189.6c4.4,28.2-14.9,54.5-43,58.9s-54.5-14.9-58.9-43c-0.3-1.9-0.5-3.9-0.6-5.8l5.2-0.2
	c1.1,25.6,22.7,45.4,48.2,44.4c25.6-1.1,45.4-22.7,44.4-48.2c-0.1-1.7-0.2-3.5-0.5-5.2L711.6,189.6z"/>
<path class="st3" d="M773.5,249c-28.4-1.9-50-26.5-48.1-54.9c1-15.7,9.2-30.1,22.2-39.1l3,4.3c-21.1,14.5-26.4,43.4-11.9,64.5
	c8,11.7,21,19,35.1,19.9L773.5,249z"/>
<path class="st3" d="M908.4,148.2c27.2,8.4,42.5,37.2,34.1,64.5c-1.3,4.1-3.1,8.1-5.3,11.8l-4.5-2.7c13.4-21.8,6.5-50.4-15.3-63.7
	c-3.3-2-6.9-3.6-10.6-4.8L908.4,148.2z"/>
<path class="st3" d="M1074.7,204.9c-4.1-28.2,15.5-54.4,43.7-58.4c28.2-4.1,54.4,15.5,58.4,43.7c0.2,1.2,0.3,2.4,0.4,3.6l-5.2,0.4
	c-1.9-25.5-24.1-44.7-49.6-42.8s-44.7,24.1-42.8,49.6c0.1,1.1,0.2,2.2,0.4,3.2L1074.7,204.9z"/>
<path class="st3" d="M28,307.1c2.5-19,15.2-35,33.2-41.7l1.8,4.9c-16.1,6-27.6,20.4-29.8,37.4L28,307.1z"/>
<path class="st3" d="M188.7,262.7c4.3-0.6,8.7-0.6,13-0.1l-0.6,5.2c-3.9-0.5-7.8-0.5-11.6,0.1L188.7,262.7z"/>
<path class="st3" d="M349.4,349.1c-19.5,20.8-52.2,21.8-72.9,2.3c-20.8-19.5-21.8-52.2-2.3-72.9c3.5-3.8,7.6-7,12.1-9.5l2.6,4.6
	c-22.2,12.7-30,41-17.4,63.2s41,30,63.2,17.4c4-2.3,7.7-5.2,10.9-8.5L349.4,349.1z"/>
<path class="st3" d="M502.7,344.2c-8.5-11.6-11.7-26.2-8.9-40.3l5.1,1c-2.5,12.7,0.4,25.8,8,36.2L502.7,344.2z"/>
<path class="st3" d="M620.9,346.8c-0.8-1-1.6-2-2.3-3l4.3-3c0.7,0.9,1.3,1.8,2.1,2.7L620.9,346.8z"/>
<path class="st3" d="M870,359.9c-25.4-12.8-35.6-43.9-22.8-69.3c9.1-17.9,27.7-29,47.8-28.3l-0.2,5.2c-25.6-0.9-47,19.2-47.9,44.8
	c-0.6,18,9.3,34.8,25.4,42.9L870,359.9z"/>
<path class="st3" d="M1028.6,265.9c26.5,10.5,39.4,40.5,28.9,67s-40.5,39.4-67,28.9c-15.9-6.3-27.6-20.1-31.3-36.8l5.1-1.1
	c5.5,25,30.3,40.8,55.3,35.2s40.8-30.3,35.2-55.3c-3.3-15-13.9-27.4-28.1-33.1L1028.6,265.9z"/>
<path class="st3" d="M1098,270.4c24-15.4,55.9-8.4,71.3,15.6c15.4,24,8.4,55.9-15.6,71.3c-0.9,0.6-1.8,1.1-2.7,1.6l-2.6-4.6
	c22.4-12.5,30.4-40.7,17.9-63.1s-40.7-30.4-63.1-17.9c-0.8,0.5-1.6,0.9-2.4,1.5L1098,270.4z"/>
<path class="st3" d="M114.5,392.5c7.1,6.7,12.2,15.3,14.6,24.8l-5.1,1.3c-2.2-8.5-6.7-16.2-13.1-22.2L114.5,392.5z"/>
<path class="st3" d="M355.3,402.4c15.3,24,8.2,55.9-15.8,71.2s-55.9,8.2-71.2-15.8c-6.5-10.2-9.2-22.4-7.6-34.4l5.2,0.7
	c-3.3,25.4,14.6,48.6,39.9,52c25.4,3.3,48.6-14.6,52-39.9c1.4-10.8-1-21.7-6.9-30.9L355.3,402.4z"/>
<path class="st3" d="M380.5,450c-5.4-12.8-5.3-27.2,0.1-40l4.8,2c-4.8,11.5-4.9,24.4,0,35.9L380.5,450z"/>
<path class="st3" d="M583.4,396.4c18.6,21.6,16.2,54.2-5.4,72.8c-6.6,5.7-14.5,9.6-23,11.4l-1.1-5.1c25-5.3,41-29.9,35.7-54.9
	c-1.6-7.6-5.1-14.7-10.2-20.7L583.4,396.4z"/>
<path class="st3" d="M797.8,477.3c-26.1,11.5-56.5-0.3-68-26.3c-11.5-26.1,0.3-56.5,26.3-68c0.7-0.3,1.5-0.6,2.3-0.9l1.9,4.9
	c-23.9,9.2-35.7,36.1-26.5,59.9s36.1,35.7,59.9,26.5c0.7-0.3,1.4-0.5,2-0.8L797.8,477.3z"/>
<path class="st3" d="M898.9,481.4c-28.3,3.1-53.8-17.3-57-45.6c-0.4-3.2-0.4-6.4-0.2-9.6l5.2,0.4c-1.9,25.5,17.2,47.8,42.8,49.7
	c2.9,0.2,5.7,0.2,8.6-0.2L898.9,481.4z"/>
<path class="st3" d="M1053.1,457.7c-15.3,24.1-47.1,31.2-71.2,16c-22-13.9-30.1-42-19.1-65.5l4.7,2.2c-10.9,23.2-0.9,50.8,22.2,61.7
	c21.1,9.9,46.4,2.6,58.9-17.1L1053.1,457.7z"/>
<path class="st3" d="M1169.4,402.5c12.5,19.7,10.2,45.2-5.5,62.4l-3.9-3.5c14.1-15.4,16.1-38.4,4.9-56.1L1169.4,402.5z"/>
<path class="st3" d="M62.4,595.2c-23.3-8-37.7-31.5-34.3-55.9l5.2,0.7c-3.1,22,9.8,43,30.8,50.2L62.4,595.2z"/>
<path class="st3" d="M230.3,584.4c-21,19.2-53.6,17.8-72.9-3.2c-16.4-17.9-18.1-44.9-4-64.8l4.3,3c-14.8,20.9-10,49.8,10.9,64.6
	c17.8,12.7,42.1,11.2,58.2-3.6L230.3,584.4z"/>
<path class="st3" d="M327.1,595.7c-27.2,8.4-56.1-6.8-64.6-34c-1.5-4.8-2.3-9.8-2.3-14.8l5.2,0c0.2,25.6,21.2,46.2,46.8,45.9
	c4.5,0,9-0.7,13.3-2.1L327.1,595.7z"/>
<path class="st3" d="M462.6,508.1c21.1,19.1,22.8,51.7,3.7,72.9c-19.1,21.1-51.7,22.8-72.9,3.7c-8.2-7.4-13.8-17.3-16-28.1l5.1-1
	c5,25.1,29.5,41.4,54.6,36.3c25.1-5,41.4-29.5,36.3-54.6c-2-9.7-7-18.6-14.4-25.3L462.6,508.1z"/>
<path class="st3" d="M611.7,562.7c-9-27,5.7-56.2,32.7-65.2c1.4-0.5,2.8-0.9,4.3-1.2l1.2,5.1c-24.9,5.9-40.3,30.9-34.3,55.8
	c0.3,1.3,0.7,2.6,1.1,3.9L611.7,562.7z"/>
<path class="st3" d="M810.5,507.2c21.6,18.6,24.1,51.1,5.6,72.7c-18.6,21.6-51.1,24.1-72.7,5.6c-7.9-6.8-13.6-15.9-16.3-26l5.1-1.3
	c6.5,24.7,31.9,39.5,56.6,33s39.5-31.9,33-56.6c-2.4-9.1-7.5-17.2-14.6-23.3L810.5,507.2z"/>
<path class="st3" d="M875.7,594.9c-26.8-9.7-40.7-39.2-31-66c9.7-26.8,39.2-40.7,66-31c1.1,0.4,2.1,0.8,3.1,1.2l-2.1,4.8
	c-23.5-10.2-50.8,0.5-61,24c-10.2,23.5,0.5,50.8,24,61c0.9,0.4,1.9,0.8,2.8,1.1L875.7,594.9z"/>
<path class="st3" d="M1090.6,508.6c20.9-19.4,53.5-18.3,72.9,2.6c19.4,20.9,18.3,53.5-2.6,72.9c-1,0.9-2,1.8-3,2.6l-3.3-4.1
	c20-16,23.3-45.1,7.4-65.1c-16-20-45.1-23.3-65.1-7.4c-0.9,0.7-1.8,1.5-2.7,2.3L1090.6,508.6z"/>
<path class="st4" d="M79.2,101.7c5.7,0,11.6-2.1,11.6-2.1c0-3.8-1.7-11.8-1.7-11.8c-1.1-3.6-1.3-7.6-0.2-9.9
	c0.8-2.3,0.8-4.4,0.6-5.7c0-0.4-0.2-0.8-0.4-1.3c-1.7-2.3-1.3-10.8-1.3-10.8h-2.7c0,0,1.3,11-5.9,10.8l0,0
	c-7.2,0.2-5.9-10.8-5.9-10.8h-2.7c0,0,0.6,8.5-1.3,11c-0.2,0.2-0.4,0.6-0.4,1.1c-0.2,1.3-0.2,3.4,0.6,5.7c1.1,2.5,0.8,6.3-0.2,9.9
	c0,0-1.7,8-1.7,11.8C67.6,99.6,73.5,101.7,79.2,101.7L79.2,101.7z"/>
<path class="st4" d="M311.8,61.8c-2.5,0-5.5-0.4-6.6-0.6l0,0l0,0l0,0c0,0.2-0.2,0.4-0.2,0.6c-0.2,0.2-0.4,0.6-0.4,1.1
	c-0.6,1.5-1.1,2.7-1.3,4.4c0,0.2,0,0.4,0,0.6c-0.4,2.5,0,5.1,0.4,7.6c0.4,2.7,0.6,5.3,0.8,8c0.2,3.8,0.2,7.8,0.4,11.6v6.8
	c0,0,2.1,0.4,3,0.4c0,0,2.1,0,2.7-0.4c0-4.7,0-9.5,0-14.2c0-2.1,0-4.2,0-6.6c0-2.5,0.2-5.3,0.4-7.6l0,0c0,0,0-0.6,0.2-1.1
	c0-0.4,0.4-0.8,0.8-0.8c0.4,0,0.6,0.4,0.8,0.8c0,0.4,0.2,1.1,0.2,1.1l0,0c0.2,2.5,0.4,5.3,0.4,7.6c0,2.1,0,4.2,0,6.6
	c0,4.7,0,9.5,0,14.2c0.6,0.4,2.7,0.4,2.7,0.4c0.8,0,3-0.4,3-0.4v-6.8c0.2-3.8,0-7.8,0.4-11.6c0.2-2.7,0.4-5.3,0.8-8
	c-0.4-2.5,0-5.1-0.4-7.6c0-0.2,0-0.4,0-0.6c-0.2-1.7-0.6-3-1.3-4.4c-0.2-0.4-0.2-0.8-0.4-1.3c0-0.2-0.2-0.4-0.2-0.6l0,0l0,0l0,0
	C317.3,61.4,314.3,61.8,311.8,61.8"/>
<path class="st4" d="M545.8,102.4c0.6-0.2,1.5-0.2,3.2,0s3-0.4,3-0.4c0-1.1-1.9-17.3-1.9-19.7c0-2.3-0.6-5.3-1.5-7.4
	c-0.8-2.1-0.4-4.7-0.4-4.7c0.4-0.8,1.7-1.9,0.8-4c-0.4-1.5-0.4-5.3-0.4-5.3l-2.3-0.8c0,0.6-0.8,1.3-1.9,1.3l0,0l0,0
	c-1.1,0-1.7-0.6-1.9-1.3l-2.3,0.8c0,0,0,3.8-0.4,5.1c-0.8,2.3,0.4,3.4,0.8,4.2c0,0,0.6,2.5-0.4,4.7c-0.8,2.1-1.1,5.3-1.3,7.4
	c-0.2,2.1-2.1,18.4-1.9,19.7c0,0,1.3,0.6,3,0.4c1.5-0.2,2.5-0.2,3.2,0C542.9,102.4,544.1,103,545.8,102.4z"/>
<path class="st4" d="M776.9,101.7c5.7,0,11.6-2.1,11.6-2.1c0-3.8-1.7-11.8-1.7-11.8c-1.1-3.6-1.3-7.6-0.2-9.9
	c0.8-2.3,0.8-4.4,0.6-5.7c0-0.4-0.2-0.8-0.4-1.3c-1.7-2.3-1.3-10.8-1.3-10.8h-2.7c0,0,1.3,11-5.9,10.8l0,0
	c-7.2,0.2-5.9-10.8-5.9-10.8h-2.7c0,0,0.6,8.5-1.3,11c-0.2,0.2-0.4,0.6-0.4,1.1c-0.2,1.3-0.2,3.4,0.6,5.7c1.1,2.5,0.8,6.3-0.2,9.9
	c0,0-1.7,8-1.7,11.8C765.3,99.6,771.2,101.7,776.9,101.7L776.9,101.7z"/>
<path class="st4" d="M901.9,88.2c0,0,0,0.2,0.2,0.6l-1.9,4.9c1.1,1.9,2.5,2.1,3.6,1.9c0.4,1.7,0.6,3.2,0.6,4.4c0,0-2.3,1.9-11.2,1.9
	c-8.9,0-11.2-1.9-11.2-1.9c0-1.3,0.2-2.7,0.6-4.4l0,0c1.1,0.2,2.7,0,3.6-1.9l-1.9-4.9c0.2-0.4,0.2-0.6,0.2-0.6 M884.1,88.8
	c0.2-0.4,0.2-0.6,0.2-0.6c0.8-3.6,0.4-12.3-0.6-14.8l-2.3,7.8c0,0.2,0,0.4,0,0.4l4.9,11.8c-1.5,3-4.9,1.7-4.9,1.7l-5.3-12.9
	c-0.2-0.6-0.4-1.3-0.2-1.9c0.6-3,2.7-11.2,3.2-12.9c0.4-1.7,2.1-4,4.4-4.7l0,0l4.9-1.9c0,0,0.2,8.2,4.9,10.6l0,0
	c4.9-2.3,4.9-10.6,4.9-10.6l4.9,1.9l0,0c2.3,0.6,4,3,4.4,4.7c0.4,1.7,2.5,9.9,3.2,12.9c0.2,0.6,0,1.3-0.2,1.9l-5.3,12.9
	c0,0-3.2,1.3-4.9-1.7l4.9-11.8c0-0.2,0-0.4,0-0.4l-2.5-7.8c-1.1,2.5-1.5,11.2-0.6,14.8c0,0,0,0.2,0.2,0.6"/>
<path class="st4" d="M1009.5,102.4c-4,0-5.5-1.1-5.5-1.1c0.4-1.9,0.6-3.2-0.2-7l0,0c-0.8-3.8-1.5-6.3-1.1-9.5c0.2-2.1,1.5-5.7,1.7-7
	c0.8-2.3,0.8-3.6,0.4-4.9c-0.6-1.1-1.7-3.4-1.5-5.5l-1.3,4.2c-2.3,0.2-3.2-1.1-3.2-1.1c0.6-2.3,1.5-5.5,1.7-6.3c0.2-1.1,1.3-2.3,3-3
	l0,0l3-1.3c-0.4,1.9,0.8,3.2,3,3.2s3.4-1.3,3-3.2l3,1.1l0,0c1.7,0.6,2.7,1.9,3,3c0.2,0.8,1.1,4,1.7,6.3c0,0-0.8,1.3-3.2,1.3
	l-1.3-4.4c0.2,2.3-0.8,4.7-1.1,5.7c-0.4,1.1-0.4,2.5,0.4,4.9c0.4,1.3,1.5,4.9,1.7,7c0.2,3.2-0.2,5.9-1.1,9.5l0,0
	c-0.8,3.8-0.8,5.1-0.2,7C1015,101.3,1013.5,102.4,1009.5,102.4z"/>
<path class="st4" d="M1127.3,102.4c0.6-0.2,1.5-0.2,3.2,0c1.7,0.2,3-0.4,3-0.4c0-1.1-1.9-17.3-1.9-19.7c0-2.3-0.6-5.3-1.5-7.4
	c-0.8-2.1-0.4-4.7-0.4-4.7c0.4-0.8,1.7-1.9,0.8-4c-0.4-1.5-0.4-5.3-0.4-5.3l-2.3-0.8c0,0.6-0.8,1.3-1.9,1.3l0,0l0,0
	c-1.1,0-1.7-0.6-1.9-1.3l-2.3,0.8c0,0,0,3.8-0.4,5.1c-0.8,2.3,0.4,3.4,0.8,4.2c0,0,0.6,2.5-0.4,4.7c-0.8,2.1-1.1,5.3-1.3,7.4
	c-0.2,2.1-2.1,18.4-1.9,19.7c0,0,1.3,0.6,3,0.4c1.5-0.2,2.5-0.2,3.2,0C1124.3,102.4,1125.6,103,1127.3,102.4z"/>
<path class="st4" d="M79.2,215.7c0,0-3.4,0.2-5.7-0.8c-2.3-1.1-4.9-1.1-8.5-1.1c-3.6,0-5.1-1.9-5.1-1.9c1.3-0.8,5.1-18.8,5.3-21.1
	s4.7-11.4,4.7-11.4c3,1.1,6.3,1.5,9.3,1.5s6.3-0.4,9.5-1.5c0,0,4.2,9.3,4.7,11.4c0.2,2.3,4,20.3,5.3,21.1c0,0-1.5,1.9-5.1,1.9
	c-3.6,0-5.9,0-8.5,1.1S79.2,215.7,79.2,215.7z"/>
<path class="st4" d="M195.5,218c5.7,0,11.6-2.1,11.6-2.1c0-3.8-1.7-11.8-1.7-11.8c-1.1-3.6-1.3-7.6-0.2-9.9c0.8-2.3,0.8-4.4,0.6-5.7
	c0-0.4-0.2-0.8-0.4-1.3c-1.7-2.3-1.3-10.8-1.3-10.8h-2.7c0,0,1.3,11-5.9,10.8l0,0c-7.2,0.2-5.9-10.8-5.9-10.8h-2.7
	c0,0,0.6,8.5-1.3,11c-0.2,0.2-0.4,0.6-0.4,1.1c-0.2,1.3-0.2,3.4,0.6,5.7c1.1,2.5,0.8,6.3-0.2,9.9c0,0-1.7,8-1.7,11.8
	C183.9,215.9,189.8,218,195.5,218L195.5,218z"/>
<path class="st4" d="M320.4,204.5c0,0,0,0.2,0.2,0.6l-1.9,4.9c1.1,1.9,2.5,2.1,3.6,1.9c0.4,1.7,0.6,3.2,0.6,4.4
	c0,0-2.3,1.9-11.2,1.9c-8.9,0-11.2-1.9-11.2-1.9c0-1.3,0.2-2.7,0.6-4.4l0,0c1.1,0.2,2.7,0,3.6-1.9l-1.9-4.9c0.2-0.4,0.2-0.6,0.2-0.6
	 M302.7,205.1c0.2-0.4,0.2-0.6,0.2-0.6c0.8-3.6,0.4-12.3-0.6-14.8l-2.3,7.8c0,0.2,0,0.4,0,0.4l4.9,11.8c-1.5,3-4.9,1.7-4.9,1.7
	l-5.3-12.9c-0.2-0.6-0.4-1.3-0.2-1.9c0.6-3,2.7-11.2,3.2-12.9c0.4-1.7,2.1-4,4.4-4.7l0,0l4.9-1.9c0,0,0.2,8.2,4.9,10.6l0,0
	c4.9-2.3,4.9-10.6,4.9-10.6l4.9,1.9l0,0c2.3,0.6,4,3,4.4,4.7c0.4,1.7,2.5,9.9,3.2,12.9c0.2,0.6,0,1.3-0.2,1.9l-5.3,12.9
	c0,0-3.2,1.3-4.9-1.7l4.9-11.8c0-0.2,0-0.4,0-0.4l-2.5-7.8c-1.1,2.5-1.5,11.2-0.6,14.8c0,0,0,0.2,0.2,0.6"/>
<path class="st4" d="M428.1,215.7c0,0-3.4,0.2-5.7-0.8c-2.3-1.1-4.9-1.1-8.5-1.1s-5.1-1.9-5.1-1.9c1.3-0.8,5.1-18.8,5.3-21.1
	c0.2-2.3,4.7-11.4,4.7-11.4c3,1.1,6.3,1.5,9.3,1.5s6.3-0.4,9.5-1.5c0,0,4.2,9.3,4.7,11.4c0.2,2.3,4,20.3,5.3,21.1
	c0,0-1.5,1.9-5.1,1.9s-5.9,0-8.5,1.1S428.1,215.7,428.1,215.7z"/>
<path class="st4" d="M544.4,218c5.7,0,11.6-2.1,11.6-2.1c0-3.8-1.7-11.8-1.7-11.8c-1.1-3.6-1.3-7.6-0.2-9.9c0.8-2.3,0.8-4.4,0.6-5.7
	c0-0.4-0.2-0.8-0.4-1.3c-1.7-2.3-1.3-10.8-1.3-10.8h-2.7c0,0,1.3,11-5.9,10.8l0,0c-7.2,0.2-5.9-10.8-5.9-10.8h-2.7
	c0,0,0.6,8.5-1.3,11c-0.2,0.2-0.4,0.6-0.4,1.1c-0.2,1.3-0.2,3.4,0.6,5.7c1.1,2.5,0.8,6.3-0.2,9.9c0,0-1.7,8-1.7,11.8
	C532.7,215.9,538.6,218,544.4,218L544.4,218z"/>
<path class="st4" d="M669.3,204.5c0,0,0,0.2,0.2,0.6l-1.9,4.9c1.1,1.9,2.5,2.1,3.6,1.9c0.4,1.7,0.6,3.2,0.6,4.4
	c0,0-2.3,1.9-11.2,1.9s-11.2-1.9-11.2-1.9c0-1.3,0.2-2.7,0.6-4.4l0,0c1.1,0.2,2.7,0,3.6-1.9l-1.9-4.9c0.2-0.4,0.2-0.6,0.2-0.6
	 M651.6,205.1c0.2-0.4,0.2-0.6,0.2-0.6c0.8-3.6,0.4-12.3-0.6-14.8l-2.3,7.8c0,0.2,0,0.4,0,0.4l4.9,11.8c-1.5,3-4.9,1.7-4.9,1.7
	l-5.3-12.9c-0.2-0.6-0.4-1.3-0.2-1.9c0.6-3,2.7-11.2,3.2-12.9c0.4-1.7,2.1-4,4.4-4.7l0,0l4.9-1.9c0,0,0.2,8.2,4.9,10.6l0,0
	c4.9-2.3,4.9-10.6,4.9-10.6l4.9,1.9l0,0c2.3,0.6,4,3,4.4,4.7c0.4,1.7,2.5,9.9,3.2,12.9c0.2,0.6,0,1.3-0.2,1.9l-5.3,12.9
	c0,0-3.2,1.3-4.9-1.7l4.9-11.8c0-0.2,0-0.4,0-0.4l-2.5-7.8c-1.1,2.5-1.5,11.2-0.6,14.8c0,0,0,0.2,0.2,0.6"/>
<path class="st4" d="M787.1,184.8c3,1.9,5.5,21.1,5.5,21.1s-3.2,1.7-7.2,1.7s-4.7,0.2-6.1,0.8l-2.5-6.3l-2.5,6.3
	c-1.5-0.8-2.3-0.8-6.1-0.8s-6.8-1.7-6.8-1.7s2.5-19.2,5.5-21.1C766.8,184.8,775.9,189.3,787.1,184.8z"/>
<path class="st4" d="M893.2,218c5.7,0,11.6-2.1,11.6-2.1c0-3.8-1.7-11.8-1.7-11.8c-1.1-3.6-1.3-7.6-0.2-9.9c0.8-2.3,0.8-4.4,0.6-5.7
	c0-0.4-0.2-0.8-0.4-1.3c-1.7-2.3-1.3-10.8-1.3-10.8h-2.7c0,0,1.3,11-5.9,10.8l0,0c-7.2,0.2-5.9-10.8-5.9-10.8h-2.7
	c0,0,0.6,8.5-1.3,11c-0.2,0.2-0.4,0.6-0.4,1.1c-0.2,1.3-0.2,3.4,0.6,5.7c1.1,2.5,0.8,6.3-0.2,9.9c0,0-1.7,8-1.7,11.8
	C881.6,215.9,887.5,218,893.2,218L893.2,218z"/>
<path class="st4" d="M1125.8,218c5.7,0,11.6-2.1,11.6-2.1c0-3.8-1.7-11.8-1.7-11.8c-1.1-3.6-1.3-7.6-0.2-9.9
	c0.8-2.3,0.8-4.4,0.6-5.7c0-0.4-0.2-0.8-0.4-1.3c-1.7-2.3-1.3-10.8-1.3-10.8h-2.7c0,0,1.3,11-5.9,10.8l0,0
	c-7.2,0.2-5.9-10.8-5.9-10.8h-2.7c0,0,0.6,8.5-1.3,11c-0.2,0.2-0.4,0.6-0.4,1.1c-0.2,1.3-0.2,3.4,0.6,5.7c1.1,2.5,0.8,6.3-0.2,9.9
	c0,0-1.7,8-1.7,11.8C1114.2,215.9,1120.1,218,1125.8,218L1125.8,218z"/>
<path class="st4" d="M79.2,294.4c-2.5,0-5.5-0.4-6.6-0.6l0,0l0,0l0,0c0,0.2-0.2,0.4-0.2,0.6c-0.2,0.2-0.4,0.6-0.4,1.1
	c-0.6,1.5-1.1,2.7-1.3,4.4c0,0.2,0,0.4,0,0.6c-0.4,2.5,0,5.1,0.4,7.6c0.4,2.7,0.6,5.3,0.8,8c0.2,3.8,0.2,7.8,0.4,11.6v6.8
	c0,0,2.1,0.4,3,0.4c0,0,2.1,0,2.7-0.4c0-4.7,0-9.5,0-14.2c0-2.1,0-4.2,0-6.6c0-2.5,0.2-5.3,0.4-7.6l0,0c0,0,0-0.6,0.2-1.1
	c0-0.4,0.4-0.8,0.8-0.8s0.6,0.4,0.8,0.8c0,0.4,0.2,1.1,0.2,1.1l0,0c0.2,2.5,0.4,5.3,0.4,7.6c0,2.1,0,4.2,0,6.6c0,4.7,0,9.5,0,14.2
	c0.6,0.4,2.7,0.4,2.7,0.4c0.8,0,3-0.4,3-0.4v-6.8c0.2-3.8,0-7.8,0.4-11.6c0.2-2.7,0.4-5.3,0.8-8c-0.4-2.5,0-5.1-0.4-7.6
	c0-0.2,0-0.4,0-0.6c-0.2-1.7-0.6-3-1.3-4.4c-0.2-0.4-0.2-0.8-0.4-1.3c0-0.2-0.2-0.4-0.2-0.6l0,0l0,0l0,0
	C84.7,293.9,81.7,294.4,79.2,294.4"/>
<path class="st4" d="M195.5,332c0,0-3.4,0.2-5.7-0.8c-2.3-1.1-4.9-1.1-8.5-1.1s-5.1-1.9-5.1-1.9c1.3-0.8,5.1-18.8,5.3-21.1
	c0.2-2.3,4.7-11.4,4.7-11.4c3,1.1,6.3,1.5,9.3,1.5s6.3-0.4,9.5-1.5c0,0,4.2,9.3,4.7,11.4c0.2,2.3,4,20.3,5.3,21.1
	c0,0-1.5,1.9-5.1,1.9s-5.9,0-8.5,1.1C198.9,332.2,195.5,332,195.5,332z"/>
<path class="st4" d="M311.8,294.4c-2.5,0-5.5-0.4-6.6-0.6l0,0l0,0l0,0c0,0.2-0.2,0.4-0.2,0.6c-0.2,0.2-0.4,0.6-0.4,1.1
	c-0.6,1.5-1.1,2.7-1.3,4.4c0,0.2,0,0.4,0,0.6c-0.4,2.5,0,5.1,0.4,7.6c0.4,2.7,0.6,5.3,0.8,8c0.2,3.8,0.2,7.8,0.4,11.6v6.8
	c0,0,2.1,0.4,3,0.4c0,0,2.1,0,2.7-0.4c0-4.7,0-9.5,0-14.2c0-2.1,0-4.2,0-6.6c0-2.5,0.2-5.3,0.4-7.6l0,0c0,0,0-0.6,0.2-1.1
	c0-0.4,0.4-0.8,0.8-0.8c0.4,0,0.6,0.4,0.8,0.8c0,0.4,0.2,1.1,0.2,1.1l0,0c0.2,2.5,0.4,5.3,0.4,7.6c0,2.1,0,4.2,0,6.6
	c0,4.7,0,9.5,0,14.2c0.6,0.4,2.7,0.4,2.7,0.4c0.8,0,3-0.4,3-0.4v-6.8c0.2-3.8,0-7.8,0.4-11.6c0.2-2.7,0.4-5.3,0.8-8
	c-0.4-2.5,0-5.1-0.4-7.6c0-0.2,0-0.4,0-0.6c-0.2-1.7-0.6-3-1.3-4.4c-0.2-0.4-0.2-0.8-0.4-1.3c0-0.2-0.2-0.4-0.2-0.6l0,0l0,0l0,0
	C317.3,293.9,314.3,294.4,311.8,294.4"/>
<path class="st4" d="M544.4,335c-4,0-5.5-1.1-5.5-1.1c0.4-1.9,0.6-3.2-0.2-7l0,0c-0.8-3.8-1.5-6.3-1.1-9.5c0.2-2.1,1.5-5.7,1.7-7
	c0.8-2.3,0.8-3.6,0.4-4.9c-0.6-1.1-1.7-3.4-1.5-5.5l-1.3,4.2c-2.3,0.2-3.2-1.1-3.2-1.1c0.6-2.3,1.5-5.5,1.7-6.3c0.2-1.1,1.3-2.3,3-3
	l0,0l3-1.3c-0.4,1.9,0.8,3.2,3,3.2s3.4-1.3,3-3.2l3,1.1l0,0c1.7,0.6,2.7,1.9,3,3c0.2,0.8,1.1,4,1.7,6.3c0,0-0.8,1.3-3.2,1.3
	l-1.3-4.4c0.2,2.3-0.8,4.7-1.1,5.7c-0.4,1.1-0.4,2.5,0.4,4.9c0.4,1.3,1.5,4.9,1.7,7c0.2,3.2-0.2,5.9-1.1,9.5l0,0
	c-0.8,3.8-0.8,5.1-0.2,7C549.9,333.9,548.4,335,544.4,335z"/>
<path class="st4" d="M660.6,294.4c-2.5,0-5.5-0.4-6.6-0.6l0,0l0,0l0,0c0,0.2-0.2,0.4-0.2,0.6c-0.2,0.2-0.4,0.6-0.4,1.1
	c-0.6,1.5-1.1,2.7-1.3,4.4c0,0.2,0,0.4,0,0.6c-0.4,2.5,0,5.1,0.4,7.6c0.4,2.7,0.6,5.3,0.8,8c0.2,3.8,0.2,7.8,0.4,11.6v6.8
	c0,0,2.1,0.4,3,0.4c0,0,2.1,0,2.7-0.4c0-4.7,0-9.5,0-14.2c0-2.1,0-4.2,0-6.6c0-2.5,0.2-5.3,0.4-7.6l0,0c0,0,0-0.6,0.2-1.1
	c0-0.4,0.4-0.8,0.8-0.8s0.6,0.4,0.8,0.8c0,0.4,0.2,1.1,0.2,1.1l0,0c0.2,2.5,0.4,5.3,0.4,7.6c0,2.1,0,4.2,0,6.6c0,4.7,0,9.5,0,14.2
	c0.6,0.4,2.7,0.4,2.7,0.4c0.8,0,3-0.4,3-0.4v-6.8c0.2-3.8,0-7.8,0.4-11.6c0.2-2.7,0.4-5.3,0.8-8c-0.4-2.5,0-5.1-0.4-7.6
	c0-0.2,0-0.4,0-0.6c-0.2-1.7-0.6-3-1.3-4.4c-0.2-0.4-0.2-0.8-0.4-1.3c0-0.2-0.2-0.4-0.2-0.6l0,0l0,0l0,0
	C666.1,293.9,663.2,294.4,660.6,294.4"/>
<path class="st4" d="M893.2,334.3c5.7,0,11.6-2.1,11.6-2.1c0-3.8-1.7-11.8-1.7-11.8c-1.1-3.6-1.3-7.6-0.2-9.9
	c0.8-2.3,0.8-4.4,0.6-5.7c0-0.4-0.2-0.8-0.4-1.3c-1.7-2.3-1.3-10.8-1.3-10.8h-2.7c0,0,1.3,11-5.9,10.8l0,0
	c-7.2,0.2-5.9-10.8-5.9-10.8h-2.7c0,0,0.6,8.5-1.3,11c-0.2,0.2-0.4,0.6-0.4,1.1c-0.2,1.3-0.2,3.4,0.6,5.7c1.1,2.5,0.8,6.3-0.2,9.9
	c0,0-1.7,8-1.7,11.8C881.6,332.2,887.5,334.3,893.2,334.3L893.2,334.3z"/>
<path class="st4" d="M1011,335c0.6-0.2,1.5-0.2,3.2,0c1.7,0.2,3-0.4,3-0.4c0-1.1-1.9-17.3-1.9-19.7c0-2.3-0.6-5.3-1.5-7.4
	c-0.8-2.1-0.4-4.7-0.4-4.7c0.4-0.8,1.7-1.9,0.8-4c-0.4-1.5-0.4-5.3-0.4-5.3l-2.3-0.8c0,0.6-0.8,1.3-1.9,1.3l0,0l0,0
	c-1.1,0-1.7-0.6-1.9-1.3l-2.3,0.8c0,0,0,3.8-0.4,5.1c-0.8,2.3,0.4,3.4,0.8,4.2c0,0,0.6,2.5-0.4,4.7c-0.8,2.1-1.1,5.3-1.3,7.4
	c-0.2,2.1-2.1,18.4-1.9,19.7c0,0,1.3,0.6,3,0.4c1.5-0.2,2.5-0.2,3.2,0C1008,335,1009.3,335.6,1011,335z"/>
<path class="st4" d="M1125.8,334.3c5.7,0,11.6-2.1,11.6-2.1c0-3.8-1.7-11.8-1.7-11.8c-1.1-3.6-1.3-7.6-0.2-9.9
	c0.8-2.3,0.8-4.4,0.6-5.7c0-0.4-0.2-0.8-0.4-1.3c-1.7-2.3-1.3-10.8-1.3-10.8h-2.7c0,0,1.3,11-5.9,10.8l0,0
	c-7.2,0.2-5.9-10.8-5.9-10.8h-2.7c0,0,0.6,8.5-1.3,11c-0.2,0.2-0.4,0.6-0.4,1.1c-0.2,1.3-0.2,3.4,0.6,5.7c1.1,2.5,0.8,6.3-0.2,9.9
	c0,0-1.7,8-1.7,11.8C1114.2,332.2,1120.1,334.3,1125.8,334.3L1125.8,334.3z"/>
<path class="st4" d="M79.2,450.6c5.7,0,11.6-2.1,11.6-2.1c0-3.8-1.7-11.8-1.7-11.8c-1.1-3.6-1.3-7.6-0.2-9.9
	c0.8-2.3,0.8-4.4,0.6-5.7c0-0.4-0.2-0.8-0.4-1.3c-1.7-2.3-1.3-10.8-1.3-10.8h-2.7c0,0,1.3,11-5.9,10.8l0,0C72,420,73.3,409,73.3,409
	h-2.7c0,0,0.6,8.5-1.3,11c-0.2,0.2-0.4,0.6-0.4,1.1c-0.2,1.3-0.2,3.4,0.6,5.7c1.1,2.5,0.8,6.3-0.2,9.9c0,0-1.7,8-1.7,11.8
	C67.6,448.5,73.5,450.6,79.2,450.6L79.2,450.6z"/>
<path class="st4" d="M311.8,451.2c-4,0-5.5-1.1-5.5-1.1c0.4-1.9,0.6-3.2-0.2-7l0,0c-0.8-3.8-1.5-6.3-1.1-9.5c0.2-2.1,1.5-5.7,1.7-7
	c0.8-2.3,0.8-3.6,0.4-4.9c-0.6-1.1-1.7-3.4-1.5-5.5l-1.3,4.2c-2.3,0.2-3.2-1.1-3.2-1.1c0.6-2.3,1.5-5.5,1.7-6.3c0.2-1.1,1.3-2.3,3-3
	l0,0l3-1.3c-0.4,1.9,0.8,3.2,3,3.2c2.1,0,3.4-1.3,3-3.2l3,1.1l0,0c1.7,0.6,2.7,1.9,3,3c0.2,0.8,1.1,4,1.7,6.3c0,0-0.8,1.3-3.2,1.3
	l-1.3-4.4c0.2,2.3-0.8,4.7-1.1,5.7c-0.4,1.1-0.4,2.5,0.4,4.9c0.4,1.3,1.5,4.9,1.7,7c0.2,3.2-0.2,5.9-1.1,9.5l0,0
	c-0.8,3.8-0.8,5.1-0.2,7C317.3,450.2,315.8,451.2,311.8,451.2z"/>
<path class="st4" d="M429.5,451.2c0.6-0.2,1.5-0.2,3.2,0s3-0.4,3-0.4c0-1.1-1.9-17.3-1.9-19.7s-0.6-5.3-1.5-7.4s-0.4-4.7-0.4-4.7
	c0.4-0.8,1.7-1.9,0.8-4c-0.4-1.5-0.4-5.3-0.4-5.3L430,409c0,0.6-0.8,1.3-1.9,1.3l0,0l0,0c-1.1,0-1.7-0.6-1.9-1.3l-2.3,0.8
	c0,0,0,3.8-0.4,5.1c-0.8,2.3,0.4,3.4,0.8,4.2c0,0,0.6,2.5-0.4,4.7c-0.8,2.1-1.1,5.3-1.3,7.4s-2.1,18.4-1.9,19.7c0,0,1.3,0.6,3,0.4
	c1.5-0.2,2.5-0.2,3.2,0C426.6,451.2,427.9,451.9,429.5,451.2z"/>
<path class="st4" d="M544.4,410.7c-2.5,0-5.5-0.4-6.6-0.6l0,0l0,0l0,0c0,0.2-0.2,0.4-0.2,0.6c-0.2,0.2-0.4,0.6-0.4,1.1
	c-0.6,1.5-1.1,2.7-1.3,4.4c0,0.2,0,0.4,0,0.6c-0.4,2.5,0,5.1,0.4,7.6c0.4,2.7,0.6,5.3,0.8,8c0.2,3.8,0.2,7.8,0.4,11.6v6.8
	c0,0,2.1,0.4,3,0.4c0,0,2.1,0,2.7-0.4c0-4.7,0-9.5,0-14.2c0-2.1,0-4.2,0-6.6c0-2.5,0.2-5.3,0.4-7.6l0,0c0,0,0-0.6,0.2-1.1
	c0-0.4,0.4-0.8,0.8-0.8c0.4,0,0.6,0.4,0.8,0.8c0,0.4,0.2,1.1,0.2,1.1l0,0c0.2,2.5,0.4,5.3,0.4,7.6c0,2.1,0,4.2,0,6.6
	c0,4.7,0,9.5,0,14.2c0.6,0.4,2.7,0.4,2.7,0.4c0.8,0,3-0.4,3-0.4v-6.8c0.2-3.8,0-7.8,0.4-11.6c0.2-2.7,0.4-5.3,0.8-8
	c-0.4-2.5,0-5.1-0.4-7.6c0-0.2,0-0.4,0-0.6c-0.2-1.7-0.6-3-1.3-4.4c-0.2-0.4-0.2-0.8-0.4-1.3c0-0.2-0.2-0.4-0.2-0.6l0,0l0,0l0,0
	C549.9,410.2,546.9,410.7,544.4,410.7"/>
<path class="st4" d="M778.4,451.2c0.6-0.2,1.5-0.2,3.2,0s3-0.4,3-0.4c0-1.1-1.9-17.3-1.9-19.7s-0.6-5.3-1.5-7.4
	c-0.8-2.1-0.4-4.7-0.4-4.7c0.4-0.8,1.7-1.9,0.8-4c-0.4-1.5-0.4-5.3-0.4-5.3l-2.3-0.8c0,0.6-0.8,1.3-1.9,1.3l0,0l0,0
	c-1.1,0-1.7-0.6-1.9-1.3l-2.3,0.8c0,0,0,3.8-0.4,5.1c-0.8,2.3,0.4,3.4,0.8,4.2c0,0,0.6,2.5-0.4,4.7c-0.8,2.1-1.1,5.3-1.3,7.4
	c-0.2,2.1-2.1,18.4-1.9,19.7c0,0,1.3,0.6,3,0.4c1.5-0.2,2.5-0.2,3.2,0C775.5,451.2,776.7,451.9,778.4,451.2z"/>
<path class="st4" d="M901.9,437.1c0,0,0,0.2,0.2,0.6l-1.9,4.9c1.1,1.9,2.5,2.1,3.6,1.9c0.4,1.7,0.6,3.2,0.6,4.4
	c0,0-2.3,1.9-11.2,1.9c-8.9,0-11.2-1.9-11.2-1.9c0-1.3,0.2-2.7,0.6-4.4l0,0c1.1,0.2,2.7,0,3.6-1.9l-1.9-4.9c0.2-0.4,0.2-0.6,0.2-0.6
	 M884.1,437.7c0.2-0.4,0.2-0.6,0.2-0.6c0.8-3.6,0.4-12.3-0.6-14.8l-2.3,7.8c0,0.2,0,0.4,0,0.4l4.9,11.8c-1.5,3-4.9,1.7-4.9,1.7
	l-5.3-12.9c-0.2-0.6-0.4-1.3-0.2-1.9c0.6-3,2.7-11.2,3.2-12.9c0.4-1.7,2.1-4,4.4-4.7l0,0l4.9-1.9c0,0,0.2,8.2,4.9,10.6l0,0
	c4.9-2.3,4.9-10.6,4.9-10.6l4.9,1.9l0,0c2.3,0.6,4,3,4.4,4.7s2.5,9.9,3.2,12.9c0.2,0.6,0,1.3-0.2,1.9l-5.3,12.9c0,0-3.2,1.3-4.9-1.7
	l4.9-11.8c0-0.2,0-0.4,0-0.4l-2.5-7.8c-1.1,2.5-1.5,11.2-0.6,14.8c0,0,0,0.2,0.2,0.6"/>
<path class="st4" d="M1018.2,437.1c0,0,0,0.2,0.2,0.6l-1.9,4.9c1.1,1.9,2.5,2.1,3.6,1.9c0.4,1.7,0.6,3.2,0.6,4.4
	c0,0-2.3,1.9-11.2,1.9s-11.2-1.9-11.2-1.9c0-1.3,0.2-2.7,0.6-4.4l0,0c1.1,0.2,2.7,0,3.6-1.9l-1.9-4.9c0.2-0.4,0.2-0.6,0.2-0.6
	 M1000.4,437.7c0.2-0.4,0.2-0.6,0.2-0.6c0.8-3.6,0.4-12.3-0.6-14.8l-2.3,7.8c0,0.2,0,0.4,0,0.4l4.9,11.8c-1.5,3-4.9,1.7-4.9,1.7
	l-5.3-12.9c-0.2-0.6-0.4-1.3-0.2-1.9c0.6-3,2.7-11.2,3.2-12.9c0.4-1.7,2.1-4,4.4-4.7l0,0l4.9-1.9c0,0,0.2,8.2,4.9,10.6l0,0
	c4.9-2.3,4.9-10.6,4.9-10.6l4.9,1.9l0,0c2.3,0.6,4,3,4.4,4.7s2.5,9.9,3.2,12.9c0.2,0.6,0,1.3-0.2,1.9l-5.3,12.9c0,0-3.2,1.3-4.9-1.7
	l4.9-11.8c0-0.2,0-0.4,0-0.4l-2.5-7.8c-1.1,2.5-1.5,11.2-0.6,14.8c0,0,0,0.2,0.2,0.6"/>
<path class="st4" d="M1134.5,437.1c0,0,0,0.2,0.2,0.6l-1.9,4.9c1.1,1.9,2.5,2.1,3.6,1.9c0.4,1.7,0.6,3.2,0.6,4.4
	c0,0-2.3,1.9-11.2,1.9s-11.2-1.9-11.2-1.9c0-1.3,0.2-2.7,0.6-4.4l0,0c1.1,0.2,2.7,0,3.6-1.9l-1.9-4.9c0.2-0.4,0.2-0.6,0.2-0.6
	 M1116.7,437.7c0.2-0.4,0.2-0.6,0.2-0.6c0.8-3.6,0.4-12.3-0.6-14.8l-2.3,7.8c0,0.2,0,0.4,0,0.4l4.9,11.8c-1.5,3-4.9,1.7-4.9,1.7
	l-5.3-12.9c-0.2-0.6-0.4-1.3-0.2-1.9c0.6-3,2.7-11.2,3.2-12.9c0.4-1.7,2.1-4,4.4-4.7l0,0l4.9-1.9c0,0,0.2,8.2,4.9,10.6l0,0
	c4.9-2.3,4.9-10.6,4.9-10.6l4.9,1.9l0,0c2.3,0.6,4,3,4.4,4.7c0.4,1.7,2.5,9.9,3.2,12.9c0.2,0.6,0,1.3-0.2,1.9l-5.3,12.9
	c0,0-3.2,1.3-4.9-1.7l4.9-11.8c0-0.2,0-0.4,0-0.4l-2.5-7.8c-1.1,2.5-1.5,11.2-0.6,14.8c0,0,0,0.2,0.2,0.6"/>
<path class="st4" d="M80.7,567.5c0.6-0.2,1.5-0.2,3.2,0c1.7,0.2,3-0.4,3-0.4c0-1.1-1.9-17.3-1.9-19.7s-0.6-5.3-1.5-7.4
	c-0.8-2.1-0.4-4.7-0.4-4.7c0.4-0.8,1.7-1.9,0.8-4c-0.4-1.5-0.4-5.3-0.4-5.3l-2.3-0.8c0,0.6-0.8,1.3-1.9,1.3l0,0l0,0
	c-1.1,0-1.7-0.6-1.9-1.3l-2.3,0.8c0,0,0,3.8-0.4,5.1c-0.8,2.3,0.4,3.4,0.8,4.2c0,0,0.6,2.5-0.4,4.7c-0.8,2.1-1.1,5.3-1.3,7.4
	s-2.1,18.4-1.9,19.7c0,0,1.3,0.6,3,0.4c1.5-0.2,2.5-0.2,3.2,0C77.7,567.5,79,568.2,80.7,567.5z"/>
<path class="st4" d="M195.5,567.5c-4,0-5.5-1.1-5.5-1.1c0.4-1.9,0.6-3.2-0.2-7l0,0c-0.8-3.8-1.5-6.3-1.1-9.5c0.2-2.1,1.5-5.7,1.7-7
	c0.8-2.3,0.8-3.6,0.4-4.9c-0.6-1.1-1.7-3.4-1.5-5.5l-1.3,4.2c-2.3,0.2-3.2-1.1-3.2-1.1c0.6-2.3,1.5-5.5,1.7-6.3c0.2-1.1,1.3-2.3,3-3
	l0,0l3-1.3c-0.4,1.9,0.8,3.2,3,3.2s3.4-1.3,3-3.2l3,1.1l0,0c1.7,0.6,2.7,1.9,3,3c0.2,0.8,1.1,4,1.7,6.3c0,0-0.8,1.3-3.2,1.3
	l-1.3-4.4c0.2,2.3-0.8,4.7-1.1,5.7c-0.4,1.1-0.4,2.5,0.4,4.9c0.4,1.3,1.5,4.9,1.7,7c0.2,3.2-0.2,5.9-1.1,9.5l0,0
	c-0.8,3.8-0.8,5.1-0.2,7C201,566.5,199.5,567.5,195.5,567.5z"/>
<path class="st4" d="M311.8,566.9c5.7,0,11.6-2.1,11.6-2.1c0-3.8-1.7-11.8-1.7-11.8c-1.1-3.6-1.3-7.6-0.2-9.9
	c0.8-2.3,0.8-4.4,0.6-5.7c0-0.4-0.2-0.8-0.4-1.3c-1.7-2.3-1.3-10.8-1.3-10.8h-2.7c0,0,1.3,11-5.9,10.8l0,0
	c-7.2,0.2-5.9-10.8-5.9-10.8h-2.7c0,0,0.6,8.5-1.3,11c-0.2,0.2-0.4,0.6-0.4,1.1c-0.2,1.3-0.2,3.4,0.6,5.7c1.1,2.5,0.8,6.3-0.2,9.9
	c0,0-1.7,8-1.7,11.8C300.1,564.8,306.1,566.9,311.8,566.9L311.8,566.9z"/>
<path class="st4" d="M429.5,567.5c0.6-0.2,1.5-0.2,3.2,0s3-0.4,3-0.4c0-1.1-1.9-17.3-1.9-19.7s-0.6-5.3-1.5-7.4s-0.4-4.7-0.4-4.7
	c0.4-0.8,1.7-1.9,0.8-4c-0.4-1.5-0.4-5.3-0.4-5.3l-2.3-0.8c0,0.6-0.8,1.3-1.9,1.3l0,0l0,0c-1.1,0-1.7-0.6-1.9-1.3l-2.3,0.8
	c0,0,0,3.8-0.4,5.1c-0.8,2.3,0.4,3.4,0.8,4.2c0,0,0.6,2.5-0.4,4.7c-0.8,2.1-1.1,5.3-1.3,7.4s-2.1,18.4-1.9,19.7c0,0,1.3,0.6,3,0.4
	c1.5-0.2,2.5-0.2,3.2,0C426.6,567.5,427.9,568.2,429.5,567.5z"/>
<path class="st4" d="M670.8,533.7c3,1.9,5.5,21.1,5.5,21.1s-3.2,1.7-7.2,1.7s-4.7,0.2-6.1,0.8l-2.5-6.3l-2.5,6.3
	c-1.5-0.8-2.3-0.8-6.1-0.8c-3.8,0-6.8-1.7-6.8-1.7s2.5-19.2,5.5-21.1C650.5,533.7,659.6,538.1,670.8,533.7z"/>
<path class="st4" d="M776.9,526.9c-2.5,0-5.5-0.4-6.6-0.6l0,0l0,0l0,0c0,0.2-0.2,0.4-0.2,0.6c-0.2,0.2-0.4,0.6-0.4,1.1
	c-0.6,1.5-1.1,2.7-1.3,4.4c0,0.2,0,0.4,0,0.6c-0.4,2.5,0,5.1,0.4,7.6c0.4,2.7,0.6,5.3,0.8,8c0.2,3.8,0.2,7.8,0.4,11.6v6.8
	c0,0,2.1,0.4,3,0.4c0,0,2.1,0,2.7-0.4c0-4.7,0-9.5,0-14.2c0-2.1,0-4.2,0-6.6c0-2.5,0.2-5.3,0.4-7.6l0,0c0,0,0-0.6,0.2-1.1
	c0-0.4,0.4-0.8,0.8-0.8c0.4,0,0.6,0.4,0.8,0.8c0,0.4,0.2,1.1,0.2,1.1l0,0c0.2,2.5,0.4,5.3,0.4,7.6c0,2.1,0,4.2,0,6.6
	c0,4.7,0,9.5,0,14.2c0.6,0.4,2.7,0.4,2.7,0.4c0.8,0,3-0.4,3-0.4v-6.8c0.2-3.8,0-7.8,0.4-11.6c0.2-2.7,0.4-5.3,0.8-8
	c-0.4-2.5,0-5.1-0.4-7.6c0-0.2,0-0.4,0-0.6c-0.2-1.7-0.6-3-1.3-4.4c-0.2-0.4-0.2-0.8-0.4-1.3c0-0.2-0.2-0.4-0.2-0.6l0,0l0,0l0,0
	C782.4,526.5,779.5,526.9,776.9,526.9"/>
<path class="st4" d="M893.2,566.9c5.7,0,11.6-2.1,11.6-2.1c0-3.8-1.7-11.8-1.7-11.8c-1.1-3.6-1.3-7.6-0.2-9.9
	c0.8-2.3,0.8-4.4,0.6-5.7c0-0.4-0.2-0.8-0.4-1.3c-1.7-2.3-1.3-10.8-1.3-10.8h-2.7c0,0,1.3,11-5.9,10.8l0,0
	c-7.2,0.2-5.9-10.8-5.9-10.8h-2.7c0,0,0.6,8.5-1.3,11c-0.2,0.2-0.4,0.6-0.4,1.1c-0.2,1.3-0.2,3.4,0.6,5.7c1.1,2.5,0.8,6.3-0.2,9.9
	c0,0-1.7,8-1.7,11.8C881.6,564.8,887.5,566.9,893.2,566.9L893.2,566.9z"/>
<path class="st4" d="M1127.3,567.5c0.6-0.2,1.5-0.2,3.2,0c1.7,0.2,3-0.4,3-0.4c0-1.1-1.9-17.3-1.9-19.7s-0.6-5.3-1.5-7.4
	s-0.4-4.7-0.4-4.7c0.4-0.8,1.7-1.9,0.8-4c-0.4-1.5-0.4-5.3-0.4-5.3l-2.3-0.8c0,0.6-0.8,1.3-1.9,1.3l0,0l0,0c-1.1,0-1.7-0.6-1.9-1.3
	l-2.3,0.8c0,0,0,3.8-0.4,5.1c-0.8,2.3,0.4,3.4,0.8,4.2c0,0,0.6,2.5-0.4,4.7c-0.8,2.1-1.1,5.3-1.3,7.4s-2.1,18.4-1.9,19.7
	c0,0,1.3,0.6,3,0.4c1.5-0.2,2.5-0.2,3.2,0C1124.3,567.5,1125.6,568.2,1127.3,567.5z"/>
</svg>
