<?xml version="1.0" encoding="utf-8"?>
<!-- Generator: Adobe Illustrator 20.1.0, SVG Export Plug-In . SVG Version: 6.00 Build 0)  -->
<svg version="1.1" id="Layer_1" xmlns="http://www.w3.org/2000/svg" xmlns:xlink="http://www.w3.org/1999/xlink" x="0px" y="0px"
	 viewBox="0 0 137.1 114.7" style="enable-background:new 0 0 137.1 114.7;" xml:space="preserve">
<style type="text/css">
	.st0{fill:#F15D62;}
</style>
<path class="st0" d="M34.3,80.1c7.4,0,13.9-1.9,20.2-6.6c-6.6-0.8-11-3.8-13.4-9.7c2-0.1,3.8-0.2,5.6-0.3c0.1-0.1,0.1-0.3,0.2-0.4
	c-6.6-2.3-10.5-6.6-11.1-13.8c2.1,0.5,4,1,5.9,1.5c-5.7-5.5-7.3-11.7-4-19.3c8,9.2,17.8,14.2,29.9,15c-0.5-3.7-0.3-7,1.4-10.1
	c4.3-8.1,15.1-10.2,22-4.2c1,0.9,1.8,1.1,3,0.7c2.3-0.8,4.6-1.7,7-2.5c-0.9,3.1-3.1,5.1-5.3,7.4c2.2-0.5,4.4-1.1,6.7-1.6
	c0.1,0.1,0.2,0.2,0.3,0.3c-1.6,1.7-3.1,3.5-4.9,4.9c-1.3,1-1.6,2.1-1.7,3.7c-0.9,17.2-8.6,30.3-24.6,37.4
	c-12.1,5.4-24.4,4.5-36.2-1.7C35,80.6,34.6,80.3,34.3,80.1z"/>
</svg>
