<?xml version="1.0" encoding="utf-8"?>
<!-- Generator: Adobe Illustrator 20.1.0, SVG Export Plug-In . SVG Version: 6.00 Build 0)  -->
<svg version="1.1" xmlns="http://www.w3.org/2000/svg" xmlns:xlink="http://www.w3.org/1999/xlink" x="0px" y="0px"
	 viewBox="0 0 141.1 35.6" enable-background="new 0 0 141.1 35.6" xml:space="preserve">
<g id="Layer_1">
	<g>
		<g>
			
				<path fill="none" stroke="#58595B" stroke-width="0.5" stroke-linecap="round" stroke-linejoin="round" stroke-miterlimit="10" d="
				M42.5,10.8H3.6c-1.8,0-3.3-1.4-3.3-3.1V3.4c0-1.7,1.5-3.1,3.3-3.1h38.9c1.8,0,3.3,1.4,3.3,3.1v4.3C45.8,9.4,44.3,10.8,42.5,10.8z
				"/>
			
				<path fill="none" stroke="#58595B" stroke-width="0.5" stroke-linecap="round" stroke-linejoin="round" stroke-miterlimit="10" d="
				M42.5,23.2H3.6c-1.8,0-3.3-1.4-3.3-3.1v-4.3c0-1.7,1.5-3.1,3.3-3.1h38.9c1.8,0,3.3,1.4,3.3,3.1V20C45.8,21.8,44.3,23.2,42.5,23.2
				z"/>
			
				<path fill="none" stroke="#58595B" stroke-width="0.5" stroke-linecap="round" stroke-linejoin="round" stroke-miterlimit="10" d="
				M42.5,35.3H3.6c-1.8,0-3.3-1.4-3.3-3.1v-4.3c0-1.7,1.5-3.1,3.3-3.1h38.9c1.8,0,3.3,1.4,3.3,3.1v4.3
				C45.8,33.9,44.3,35.3,42.5,35.3z"/>
			<g>
				<g>
					
						<line fill="none" stroke="#58595B" stroke-width="2" stroke-linecap="round" stroke-linejoin="round" x1="35.1" y1="4.5" x2="35.1" y2="4.5"/>
					
						<line fill="none" stroke="#58595B" stroke-width="2" stroke-linecap="round" stroke-linejoin="round" stroke-dasharray="0,3.2155" x1="38.3" y1="4.5" x2="39.9" y2="4.5"/>
					
						<line fill="none" stroke="#58595B" stroke-width="2" stroke-linecap="round" stroke-linejoin="round" x1="41.5" y1="4.5" x2="41.5" y2="4.5"/>
				</g>
			</g>
			
				<path fill="none" stroke="#58595B" stroke-width="0.5" stroke-linecap="round" stroke-linejoin="round" stroke-miterlimit="10" d="
				M6.3,8.8H5.1c-0.9,0-1.6-0.7-1.6-1.6V3.8c0-0.9,0.7-1.6,1.6-1.6h1.2c0.9,0,1.6,0.7,1.6,1.6v3.4C7.9,8.1,7.2,8.8,6.3,8.8z"/>
			
				<path fill="none" stroke="#58595B" stroke-width="0.5" stroke-linecap="round" stroke-linejoin="round" stroke-miterlimit="10" d="
				M6.3,21.1H5.1c-0.9,0-1.6-0.7-1.6-1.6v-3.4c0-0.9,0.7-1.6,1.6-1.6h1.2c0.9,0,1.6,0.7,1.6,1.6v3.4C7.9,20.4,7.2,21.1,6.3,21.1z"/>
			
				<path fill="none" stroke="#58595B" stroke-width="0.5" stroke-linecap="round" stroke-linejoin="round" stroke-miterlimit="10" d="
				M6.3,33.3H5.1c-0.9,0-1.6-0.7-1.6-1.6v-3.4c0-0.9,0.7-1.6,1.6-1.6h1.2c0.9,0,1.6,0.7,1.6,1.6v3.4C7.9,32.6,7.2,33.3,6.3,33.3z"/>
			<g>
				<g>
					
						<line fill="none" stroke="#58595B" stroke-width="2" stroke-linecap="round" stroke-linejoin="round" x1="35.1" y1="16.9" x2="35.1" y2="16.9"/>
					
						<line fill="none" stroke="#58595B" stroke-width="2" stroke-linecap="round" stroke-linejoin="round" stroke-dasharray="0,3.2155" x1="38.3" y1="16.9" x2="39.9" y2="16.9"/>
					
						<line fill="none" stroke="#58595B" stroke-width="2" stroke-linecap="round" stroke-linejoin="round" x1="41.5" y1="16.9" x2="41.5" y2="16.9"/>
				</g>
			</g>
			<g>
				<g>
					
						<line fill="none" stroke="#58595B" stroke-width="2" stroke-linecap="round" stroke-linejoin="round" x1="35.1" y1="29" x2="35.1" y2="29"/>
					
						<line fill="none" stroke="#58595B" stroke-width="2" stroke-linecap="round" stroke-linejoin="round" stroke-dasharray="0,3.2155" x1="38.3" y1="29" x2="39.9" y2="29"/>
					
						<line fill="none" stroke="#58595B" stroke-width="2" stroke-linecap="round" stroke-linejoin="round" x1="41.5" y1="29" x2="41.5" y2="29"/>
				</g>
			</g>
		</g>
		<g>
			
				<path fill="none" stroke="#58595B" stroke-width="0.5" stroke-linecap="round" stroke-linejoin="round" stroke-miterlimit="10" d="
				M90,10.8H51.1c-1.8,0-3.3-1.4-3.3-3.1V3.4c0-1.7,1.5-3.1,3.3-3.1H90c1.8,0,3.3,1.4,3.3,3.1v4.3C93.3,9.4,91.8,10.8,90,10.8z"/>
			
				<path fill="none" stroke="#58595B" stroke-width="0.5" stroke-linecap="round" stroke-linejoin="round" stroke-miterlimit="10" d="
				M90,23.2H51.1c-1.8,0-3.3-1.4-3.3-3.1v-4.3c0-1.7,1.5-3.1,3.3-3.1H90c1.8,0,3.3,1.4,3.3,3.1V20C93.3,21.8,91.8,23.2,90,23.2z"/>
			
				<path fill="none" stroke="#58595B" stroke-width="0.5" stroke-linecap="round" stroke-linejoin="round" stroke-miterlimit="10" d="
				M90,35.3H51.1c-1.8,0-3.3-1.4-3.3-3.1v-4.3c0-1.7,1.5-3.1,3.3-3.1H90c1.8,0,3.3,1.4,3.3,3.1v4.3C93.3,33.9,91.8,35.3,90,35.3z"/>
			<g>
				<g>
					
						<line fill="none" stroke="#58595B" stroke-width="2" stroke-linecap="round" stroke-linejoin="round" x1="82.6" y1="4.5" x2="82.6" y2="4.5"/>
					
						<line fill="none" stroke="#58595B" stroke-width="2" stroke-linecap="round" stroke-linejoin="round" stroke-dasharray="0,3.2155" x1="85.8" y1="4.5" x2="87.4" y2="4.5"/>
					
						<line fill="none" stroke="#58595B" stroke-width="2" stroke-linecap="round" stroke-linejoin="round" x1="89" y1="4.5" x2="89" y2="4.5"/>
				</g>
			</g>
			
				<path fill="none" stroke="#58595B" stroke-width="0.5" stroke-linecap="round" stroke-linejoin="round" stroke-miterlimit="10" d="
				M53.8,8.8h-1.2c-0.9,0-1.6-0.7-1.6-1.6V3.8c0-0.9,0.7-1.6,1.6-1.6h1.2c0.9,0,1.6,0.7,1.6,1.6v3.4C55.4,8.1,54.7,8.8,53.8,8.8z"/>
			
				<path fill="none" stroke="#58595B" stroke-width="0.5" stroke-linecap="round" stroke-linejoin="round" stroke-miterlimit="10" d="
				M53.8,21.1h-1.2c-0.9,0-1.6-0.7-1.6-1.6v-3.4c0-0.9,0.7-1.6,1.6-1.6h1.2c0.9,0,1.6,0.7,1.6,1.6v3.4
				C55.4,20.4,54.7,21.1,53.8,21.1z"/>
			
				<path fill="none" stroke="#58595B" stroke-width="0.5" stroke-linecap="round" stroke-linejoin="round" stroke-miterlimit="10" d="
				M53.8,33.3h-1.2c-0.9,0-1.6-0.7-1.6-1.6v-3.4c0-0.9,0.7-1.6,1.6-1.6h1.2c0.9,0,1.6,0.7,1.6,1.6v3.4
				C55.4,32.6,54.7,33.3,53.8,33.3z"/>
			<g>
				<g>
					
						<line fill="none" stroke="#58595B" stroke-width="2" stroke-linecap="round" stroke-linejoin="round" x1="82.6" y1="16.9" x2="82.6" y2="16.9"/>
					
						<line fill="none" stroke="#58595B" stroke-width="2" stroke-linecap="round" stroke-linejoin="round" stroke-dasharray="0,3.2155" x1="85.8" y1="16.9" x2="87.4" y2="16.9"/>
					
						<line fill="none" stroke="#58595B" stroke-width="2" stroke-linecap="round" stroke-linejoin="round" x1="89" y1="16.9" x2="89" y2="16.9"/>
				</g>
			</g>
			<g>
				<g>
					
						<line fill="none" stroke="#58595B" stroke-width="2" stroke-linecap="round" stroke-linejoin="round" x1="82.6" y1="29" x2="82.6" y2="29"/>
					
						<line fill="none" stroke="#58595B" stroke-width="2" stroke-linecap="round" stroke-linejoin="round" stroke-dasharray="0,3.2155" x1="85.8" y1="29" x2="87.4" y2="29"/>
					
						<line fill="none" stroke="#58595B" stroke-width="2" stroke-linecap="round" stroke-linejoin="round" x1="89" y1="29" x2="89" y2="29"/>
				</g>
			</g>
		</g>
		<g>
			
				<path fill="none" stroke="#58595B" stroke-width="0.5" stroke-linecap="round" stroke-linejoin="round" stroke-miterlimit="10" d="
				M137.5,10.8H98.6c-1.8,0-3.3-1.4-3.3-3.1V3.4c0-1.7,1.5-3.1,3.3-3.1h38.9c1.8,0,3.3,1.4,3.3,3.1v4.3
				C140.8,9.4,139.3,10.8,137.5,10.8z"/>
			
				<path fill="none" stroke="#58595B" stroke-width="0.5" stroke-linecap="round" stroke-linejoin="round" stroke-miterlimit="10" d="
				M137.5,23.2H98.6c-1.8,0-3.3-1.4-3.3-3.1v-4.3c0-1.7,1.5-3.1,3.3-3.1h38.9c1.8,0,3.3,1.4,3.3,3.1V20
				C140.8,21.8,139.3,23.2,137.5,23.2z"/>
			
				<path fill="none" stroke="#58595B" stroke-width="0.5" stroke-linecap="round" stroke-linejoin="round" stroke-miterlimit="10" d="
				M137.5,35.3H98.6c-1.8,0-3.3-1.4-3.3-3.1v-4.3c0-1.7,1.5-3.1,3.3-3.1h38.9c1.8,0,3.3,1.4,3.3,3.1v4.3
				C140.8,33.9,139.3,35.3,137.5,35.3z"/>
			<g>
				<g>
					
						<line fill="none" stroke="#58595B" stroke-width="2" stroke-linecap="round" stroke-linejoin="round" x1="130.1" y1="4.5" x2="130.1" y2="4.5"/>
					
						<line fill="none" stroke="#58595B" stroke-width="2" stroke-linecap="round" stroke-linejoin="round" stroke-dasharray="0,3.2155" x1="133.3" y1="4.5" x2="135" y2="4.5"/>
					
						<line fill="none" stroke="#58595B" stroke-width="2" stroke-linecap="round" stroke-linejoin="round" x1="136.6" y1="4.5" x2="136.6" y2="4.5"/>
				</g>
			</g>
			
				<path fill="none" stroke="#58595B" stroke-width="0.5" stroke-linecap="round" stroke-linejoin="round" stroke-miterlimit="10" d="
				M101.3,8.8h-1.2c-0.9,0-1.6-0.7-1.6-1.6V3.8c0-0.9,0.7-1.6,1.6-1.6h1.2c0.9,0,1.6,0.7,1.6,1.6v3.4C102.9,8.1,102.2,8.8,101.3,8.8
				z"/>
			
				<path fill="none" stroke="#58595B" stroke-width="0.5" stroke-linecap="round" stroke-linejoin="round" stroke-miterlimit="10" d="
				M101.3,21.1h-1.2c-0.9,0-1.6-0.7-1.6-1.6v-3.4c0-0.9,0.7-1.6,1.6-1.6h1.2c0.9,0,1.6,0.7,1.6,1.6v3.4
				C102.9,20.4,102.2,21.1,101.3,21.1z"/>
			
				<path fill="none" stroke="#58595B" stroke-width="0.5" stroke-linecap="round" stroke-linejoin="round" stroke-miterlimit="10" d="
				M101.3,33.3h-1.2c-0.9,0-1.6-0.7-1.6-1.6v-3.4c0-0.9,0.7-1.6,1.6-1.6h1.2c0.9,0,1.6,0.7,1.6,1.6v3.4
				C102.9,32.6,102.2,33.3,101.3,33.3z"/>
			<g>
				<g>
					
						<line fill="none" stroke="#58595B" stroke-width="2" stroke-linecap="round" stroke-linejoin="round" x1="130.1" y1="16.9" x2="130.1" y2="16.9"/>
					
						<line fill="none" stroke="#58595B" stroke-width="2" stroke-linecap="round" stroke-linejoin="round" stroke-dasharray="0,3.2155" x1="133.3" y1="16.9" x2="135" y2="16.9"/>
					
						<line fill="none" stroke="#58595B" stroke-width="2" stroke-linecap="round" stroke-linejoin="round" x1="136.6" y1="16.9" x2="136.6" y2="16.9"/>
				</g>
			</g>
			<g>
				<g>
					
						<line fill="none" stroke="#58595B" stroke-width="2" stroke-linecap="round" stroke-linejoin="round" x1="130.1" y1="29" x2="130.1" y2="29"/>
					
						<line fill="none" stroke="#58595B" stroke-width="2" stroke-linecap="round" stroke-linejoin="round" stroke-dasharray="0,3.2155" x1="133.3" y1="29" x2="135" y2="29"/>
					
						<line fill="none" stroke="#58595B" stroke-width="2" stroke-linecap="round" stroke-linejoin="round" x1="136.6" y1="29" x2="136.6" y2="29"/>
				</g>
			</g>
		</g>
	</g>
</g>
<g id="Layer_2">
</g>
</svg>
