<?xml version="1.0" encoding="utf-8"?>
<!-- Generator: Adobe Illustrator 20.1.0, SVG Export Plug-In . SVG Version: 6.00 Build 0)  -->
<svg version="1.1" id="Layer_1" xmlns="http://www.w3.org/2000/svg" xmlns:xlink="http://www.w3.org/1999/xlink" x="0px" y="0px"
	 viewBox="0 0 53.4 55.3" enable-background="new 0 0 53.4 55.3" xml:space="preserve">
<path fill="#FFFFFF" stroke="#58595B" stroke-width="0.5" stroke-linecap="round" stroke-linejoin="round" stroke-miterlimit="10" d="
	M23.6,4.1c-0.1-0.3-0.3-0.7-0.3-1c0-1.5,1.5-2.8,3.4-2.8s3.4,1.2,3.4,2.8c0,0.4-0.1,0.7-0.2,1"/>
<g>
	<g>
		<g>
			
				<path fill="#FFFFFF" stroke="#58595B" stroke-width="0.5" stroke-linecap="round" stroke-linejoin="round" stroke-miterlimit="10" d="
				M43.3,33.4L43.3,33.4c-0.4-2.8-2.8-4.9-5.7-4.9H15.8c-2.9,0-5.3,2.1-5.6,4.9h0c0.3-2.3,1.1-5.6,2.8-6.4c0,0,0.1,0,0.1,0
				c1.2-0.4,2.7-0.8,4.2-1.1c1.5-0.3,3.1-0.6,4.3-0.8c2.1-0.4,1.9-5.2,1.8-5.9c1,1,2.1,1.7,3.3,1.7c1.2,0,2.3-0.6,3.3-1.6
				c0,0.8-0.3,5.5,1.9,5.9c1.2,0.2,2.7,0.5,4.3,0.8c1.5,0.3,2.9,0.7,4.2,1.1c0,0,0.1,0,0.1,0C42.2,27.8,43,31.1,43.3,33.4z"/>
		</g>
	</g>
</g>
<g>
	
		<line fill="#FFFFFF" stroke="#58595B" stroke-width="0.5" stroke-linecap="round" stroke-linejoin="round" stroke-miterlimit="10" x1="22.4" y1="28.5" x2="21.5" y2="25.1"/>
	
		<line fill="#FFFFFF" stroke="#58595B" stroke-width="0.5" stroke-linecap="round" stroke-linejoin="round" stroke-miterlimit="10" x1="31.9" y1="25.1" x2="31" y2="28.5"/>
</g>
<path fill="#FFFFFF" stroke="#58595B" stroke-width="0.5" stroke-linecap="round" stroke-linejoin="round" stroke-miterlimit="10" d="
	M33.7,10.3c0,1-0.2,2.3-0.6,3.5c-0.6,2-1.7,4-3,5.3c-1,1-2.1,1.6-3.3,1.6c-1.2,0-2.3-0.6-3.3-1.7c-2.2-2.2-3.7-6.2-3.7-8.9
	c0-2.7,1.6-5.1,3.9-6.3c0.9-0.5,2-0.7,3.1-0.7C30.6,3.3,33.7,6.5,33.7,10.3z"/>
<path fill="#FFFFFF" stroke="#58595B" stroke-width="0.5" stroke-linecap="round" stroke-linejoin="round" stroke-miterlimit="10" d="
	M33.1,13.9c-2.3-0.5-3.6-2.8-4.7-4.9c-1.1,2.2-4.2,4.4-8.1,4.8"/>
<rect x="0.2" y="52.1" fill="#FFFFFF" stroke="#58595B" stroke-width="0.5" stroke-linecap="round" stroke-linejoin="round" stroke-miterlimit="10" width="52.9" height="2.9"/>
<g>
	
		<path fill="#FFFFFF" stroke="#58595B" stroke-width="0.5" stroke-linecap="round" stroke-linejoin="round" stroke-miterlimit="10" d="
		M43.3,33.4c-0.4-2.8-2.8-4.9-5.6-4.9H15.8c-2.9,0-5.3,2.1-5.6,4.9c0,0.3-0.1,0.5-0.1,0.8v12.2c0,3.2,2.6,5.7,5.7,5.7h21.8
		c3.2,0,5.7-2.5,5.7-5.7V34.2C43.3,33.9,43.3,33.7,43.3,33.4z M26.7,42.6c-1.3,0-2.3-1-2.3-2.3c0-1.3,1-2.3,2.3-2.3
		c1.3,0,2.3,1,2.3,2.3C29.1,41.6,28,42.6,26.7,42.6z"/>
	
		<path fill="#FFFFFF" stroke="#58595B" stroke-width="0.5" stroke-linecap="round" stroke-linejoin="round" stroke-miterlimit="10" d="
		M29.1,40.3c0,1.3-1,2.3-2.3,2.3c-1.3,0-2.3-1-2.3-2.3c0-1.3,1-2.3,2.3-2.3C28,38,29.1,39,29.1,40.3z"/>
	
		<path fill="#FFFFFF" stroke="#58595B" stroke-width="0.5" stroke-linecap="round" stroke-linejoin="round" stroke-miterlimit="10" d="
		M29.1,40.3c0,1.3-1,2.3-2.3,2.3c-1.3,0-2.3-1-2.3-2.3c0-1.3,1-2.3,2.3-2.3C28,38,29.1,39,29.1,40.3z"/>
</g>
</svg>
