<?xml version="1.0" encoding="utf-8"?>
<!-- Generator: Adobe Illustrator 20.1.0, SVG Export Plug-In . SVG Version: 6.00 Build 0)  -->
<svg version="1.1" xmlns="http://www.w3.org/2000/svg" xmlns:xlink="http://www.w3.org/1999/xlink" x="0px" y="0px"
	 viewBox="0 0 53.4 52.5" enable-background="new 0 0 53.4 52.5" xml:space="preserve">
<g id="Layer_1">
	<g>
		<g>
			<g>
				<g>
					
						<path fill="#FFFFFF" stroke="#58595B" stroke-width="0.5" stroke-linecap="round" stroke-linejoin="round" stroke-miterlimit="10" d="
						M43.3,30.7L43.3,30.7c-0.4-2.8-2.8-4.9-5.6-4.9H15.8c-2.9,0-5.2,2.1-5.6,4.9h0c0.3-2.3,1.1-5.6,2.8-6.4c0,0,0.1,0,0.1,0
						c1.2-0.4,2.7-0.8,4.2-1.1c1.5-0.3,3-0.6,4.2-0.8c0,0,0.1,0,0.1,0c2.2-0.4,1.9-5.2,1.9-5.9c1,1,2.1,1.7,3.3,1.7
						c1.2,0,2.3-0.6,3.3-1.6c0,0.7-0.3,5.5,1.9,5.9c0,0,0.1,0,0.1,0c1.2,0.2,2.7,0.5,4.1,0.8c1.5,0.3,2.9,0.7,4.2,1.1
						c0,0,0.1,0,0.1,0C42.2,25.1,43,28.3,43.3,30.7z"/>
				</g>
			</g>
		</g>
		
			<path fill="#FFFFFF" stroke="#58595B" stroke-width="0.5" stroke-linecap="round" stroke-linejoin="round" stroke-miterlimit="10" d="
			M33.2,10.7C33.2,10.7,33.2,10.7,33.2,10.7c-0.6,2.1-1.8,4.3-3.2,5.8c-1,1-2.1,1.6-3.3,1.6c-1.2,0-2.3-0.6-3.3-1.7
			c-1.6-1.6-2.8-4-3.3-6.3c0.6-0.1,1.3-0.4,2.1-1.1c1.2-1,2.5-2.2,4.1-2.7c1.3-0.5,3.4,0.1,4.5-0.9C30.8,5.6,33.2,8.1,33.2,10.7z"/>
		
			<polyline fill="#FFFFFF" stroke="#58595B" stroke-width="0.5" stroke-linecap="round" stroke-linejoin="round" stroke-miterlimit="10" points="
			21.4,22.4 21.4,22.4 24.8,25.8 		"/>
		
			<polyline fill="#FFFFFF" stroke="#58595B" stroke-width="0.5" stroke-linecap="round" stroke-linejoin="round" stroke-miterlimit="10" points="
			28.6,25.8 32,22.4 32,22.4 		"/>
		
			<path fill="#FFFFFF" stroke="#58595B" stroke-width="0.5" stroke-linecap="round" stroke-linejoin="round" stroke-miterlimit="10" d="
			M33.3,10.4c0,0.1-0.1,0.2-0.1,0.3c0,0,0,0,0,0c0-2.6-2.4-5.1-2.4-5.1c-1.2,1-3.2,0.4-4.5,0.9c-1.6,0.5-2.9,1.6-4.1,2.7
			c-0.8,0.7-1.5,1-2.1,1.1c-1.5,0.2-2.3-1.1-2.3-1.1c0-0.1,0.7-0.9,0.8-1c0.7-0.9,0.9-1.8,1.1-2.9c0.3-1.7,1.7-3.3,3.2-4.1
			c1.7-0.9,3.4-1,5.2-0.7c1.5,0.2,3.2,1.1,3.9,2.5c0,0,1,0.2,1.8,1.6C34.5,5.6,33.6,9.3,33.3,10.4z"/>
		
			<rect x="0.2" y="49.4" fill="#FFFFFF" stroke="#58595B" stroke-width="0.5" stroke-linecap="round" stroke-linejoin="round" stroke-miterlimit="10" width="52.9" height="2.9"/>
		<g>
			
				<path fill="#FFFFFF" stroke="#58595B" stroke-width="0.5" stroke-linecap="round" stroke-linejoin="round" stroke-miterlimit="10" d="
				M43.3,30.7c-0.4-2.8-2.8-4.9-5.6-4.9H15.8c-2.9,0-5.2,2.1-5.6,4.9c0,0.3-0.1,0.5-0.1,0.8v12.2c0,3.2,2.6,5.7,5.7,5.7h21.8
				c3.1,0,5.7-2.5,5.7-5.7V31.5C43.3,31.2,43.3,30.9,43.3,30.7z M26.7,39.9c-1.3,0-2.3-1-2.3-2.3c0-1.3,1-2.3,2.3-2.3
				c1.3,0,2.3,1,2.3,2.3C29,38.8,28,39.9,26.7,39.9z"/>
			
				<path fill="#FFFFFF" stroke="#58595B" stroke-width="0.5" stroke-linecap="round" stroke-linejoin="round" stroke-miterlimit="10" d="
				M29,37.6c0,1.3-1,2.3-2.3,2.3c-1.3,0-2.3-1-2.3-2.3c0-1.3,1-2.3,2.3-2.3C28,35.2,29,36.3,29,37.6z"/>
			
				<path fill="#FFFFFF" stroke="#58595B" stroke-width="0.5" stroke-linecap="round" stroke-linejoin="round" stroke-miterlimit="10" d="
				M29,37.6c0,1.3-1,2.3-2.3,2.3c-1.3,0-2.3-1-2.3-2.3c0-1.3,1-2.3,2.3-2.3C28,35.2,29,36.3,29,37.6z"/>
		</g>
	</g>
</g>
<g id="Layer_2">
</g>
</svg>
