<?xml version="1.0" encoding="utf-8"?>
<!-- Generator: Adobe Illustrator 20.1.0, SVG Export Plug-In . SVG Version: 6.00 Build 0)  -->
<svg version="1.1" id="Layer_1" xmlns="http://www.w3.org/2000/svg" xmlns:xlink="http://www.w3.org/1999/xlink" x="0px" y="0px"
	 viewBox="0 0 53.4 56" enable-background="new 0 0 53.4 56" xml:space="preserve">
<g>
	
		<path fill="#FFFFFF" stroke="#58595B" stroke-width="0.5" stroke-linecap="round" stroke-linejoin="round" stroke-miterlimit="10" d="
		M35.6,8.8C34.7,4,31.1-1.2,26.7,0.6c-4.4-1.8-8,3.4-8.8,8.2c-0.7,3.9-1.5,8.9,1.1,11.3c1.5,1.4,3,2.3,4.4,2.8
		c0.1-1.1,0.1-2.3,0.1-2.7c-0.9-0.9-1.7-2.1-2.3-3.3c0,0,0-0.1-0.1-0.1c-0.9-1.9-1.4-3.9-1.4-5.5v0c0-2.9,1.8-5.4,4.3-6.5
		c0,0,0.1,0,0.1-0.1c0.5-0.2,1.1-0.4,1.8-0.4c0.7,1.6,2.1,3.2,4,4.4c1.2,0.7,2.5,1.1,3.7,1.3c0.1,0.4,0.2,0.8,0.2,1.2v0.1
		c0,1.6-0.5,3.7-1.5,5.6h0c-0.6,1.3-1.4,2.4-2.3,3.3c0,0.5-0.1,1.6,0.1,2.7c1.4-0.5,2.9-1.4,4.3-2.8C37,17.7,36.3,12.8,35.6,8.8z"/>
	<g>
		<g>
			
				<path fill="#FFFFFF" stroke="#58595B" stroke-width="0.5" stroke-linecap="round" stroke-linejoin="round" stroke-miterlimit="10" d="
				M31.3,25.7l-4.6,1.5l-4.5-1.5c0.7-0.5,1-1.7,1.2-2.8c0.1-1.1,0.1-2.3,0.1-2.7c1,1,2.1,1.6,3.3,1.6s2.3-0.6,3.3-1.6
				c0,0.5-0.1,1.6,0.1,2.7C30.3,24.1,30.6,25.2,31.3,25.7z"/>
			
				<path fill="#FFFFFF" stroke="#58595B" stroke-width="0.5" stroke-linecap="round" stroke-linejoin="round" stroke-miterlimit="10" d="
				M26.7,27.3L26,29.2H15.8c-2.7,0-5,1.9-5.6,4.4c0.4-2.3,1.1-5,2.7-5.7c0,0,0.1,0,0.1,0c1.2-0.4,2.7-0.8,4.2-1.1
				c1.5-0.3,3.1-0.6,4.3-0.8c0.2,0,0.5-0.1,0.6-0.3L26.7,27.3z"/>
			
				<path fill="#FFFFFF" stroke="#58595B" stroke-width="0.5" stroke-linecap="round" stroke-linejoin="round" stroke-miterlimit="10" d="
				M43.3,34.3L43.3,34.3c-0.3-2.9-2.7-5.1-5.7-5.1H26l0.7-1.9l4.6-1.5c0.2,0.1,0.4,0.2,0.6,0.3c1.2,0.2,2.7,0.5,4.3,0.8
				c1.5,0.3,3,0.7,4.2,1.1c0,0,0.1,0,0.1,0C42.2,28.7,43,32,43.3,34.3z"/>
		</g>
		
			<path fill="#FFFFFF" stroke="#58595B" stroke-width="0.5" stroke-linecap="round" stroke-linejoin="round" stroke-miterlimit="10" d="
			M33.8,11.2L33.8,11.2c0,1.7-0.5,3.8-1.5,5.7h0c-0.6,1.3-1.4,2.4-2.3,3.3c-1,1-2.1,1.6-3.3,1.6s-2.3-0.6-3.3-1.6
			c-0.9-0.9-1.7-2.1-2.3-3.3c0,0,0-0.1-0.1-0.1c-0.9-1.9-1.4-3.9-1.4-5.5v0c0-2.9,1.8-5.4,4.3-6.5c0,0,0.1,0,0.1-0.1
			c0.5-0.2,1.1-0.4,1.8-0.4c0.7,1.6,2.1,3.2,4,4.4c1.2,0.7,2.5,1.1,3.7,1.3C33.6,10.3,33.7,10.8,33.8,11.2z"/>
	</g>
	<g>
		
			<line fill="#FFFFFF" stroke="#58595B" stroke-width="0.5" stroke-linecap="round" stroke-linejoin="round" stroke-miterlimit="10" x1="23" y1="29.2" x2="21" y2="26.1"/>
		
			<line fill="#FFFFFF" stroke="#58595B" stroke-width="0.5" stroke-linecap="round" stroke-linejoin="round" stroke-miterlimit="10" x1="32.5" y1="26.1" x2="30.4" y2="29.2"/>
		
			<line fill="#FFFFFF" stroke="#58595B" stroke-width="0.5" stroke-linecap="round" stroke-linejoin="round" stroke-miterlimit="10" x1="27.4" y1="29.2" x2="26.7" y2="27.3"/>
	</g>
</g>
<rect x="0.2" y="52.8" fill="#FFFFFF" stroke="#58595B" stroke-width="0.5" stroke-linecap="round" stroke-linejoin="round" stroke-miterlimit="10" width="52.9" height="2.9"/>
<g>
	
		<path fill="#FFFFFF" stroke="#58595B" stroke-width="0.5" stroke-linecap="round" stroke-linejoin="round" stroke-miterlimit="10" d="
		M43.3,34.3c-0.3-2.9-2.7-5.1-5.7-5.1H15.8c-2.7,0-5,1.9-5.6,4.4c-0.1,0.2-0.1,0.4-0.1,0.7c0,0.2,0,0.4,0,0.6v12.2
		c0,3.2,2.6,5.7,5.7,5.7h21.8c3.1,0,5.7-2.5,5.7-5.7V34.9C43.3,34.7,43.3,34.5,43.3,34.3z M26.7,43.4c-1.3,0-2.3-1-2.3-2.3
		c0-1.3,1-2.3,2.3-2.3c1.3,0,2.3,1,2.3,2.3C29.1,42.3,28,43.4,26.7,43.4z"/>
	
		<path fill="#FFFFFF" stroke="#58595B" stroke-width="0.5" stroke-linecap="round" stroke-linejoin="round" stroke-miterlimit="10" d="
		M29.1,41c0,1.3-1,2.3-2.3,2.3c-1.3,0-2.3-1-2.3-2.3c0-1.3,1-2.3,2.3-2.3C28,38.7,29.1,39.7,29.1,41z"/>
	
		<path fill="#FFFFFF" stroke="#58595B" stroke-width="0.5" stroke-linecap="round" stroke-linejoin="round" stroke-miterlimit="10" d="
		M29.1,41c0,1.3-1,2.3-2.3,2.3c-1.3,0-2.3-1-2.3-2.3c0-1.3,1-2.3,2.3-2.3C28,38.7,29.1,39.7,29.1,41z"/>
</g>
</svg>
