<?xml version="1.0" encoding="utf-8"?>
<!-- Generator: Adobe Illustrator 20.1.0, SVG Export Plug-In . SVG Version: 6.00 Build 0)  -->
<svg version="1.1" id="Layer_1" xmlns="http://www.w3.org/2000/svg" xmlns:xlink="http://www.w3.org/1999/xlink" x="0px" y="0px"
	 viewBox="0 0 53.4 52.4" enable-background="new 0 0 53.4 52.4" xml:space="preserve">
<rect x="0.2" y="49.2" fill="#FFFFFF" stroke="#58595B" stroke-width="0.5" stroke-linecap="round" stroke-linejoin="round" stroke-miterlimit="10" width="52.9" height="2.9"/>
<g>
	<g>
		<g>
			
				<path fill="#FFFFFF" stroke="#58595B" stroke-width="0.5" stroke-linecap="round" stroke-linejoin="round" stroke-miterlimit="10" d="
				M43.3,30.5L43.3,30.5c-0.4-2.8-2.8-4.9-5.7-4.9H15.8c-2.9,0-5.2,2.1-5.6,4.9h0c0.3-2.3,1.1-5.6,2.8-6.4c0,0,0.1,0,0.1,0
				c1.2-0.4,2.7-0.8,4.2-1.1c1.2-0.3,2.5-0.5,3.6-0.7c0,0,0,0,0,0c0.2-0.1,0.5-0.1,0.7-0.1c2-0.4,1.9-4.6,1.9-5.7
				c1,1,2.1,1.7,3.3,1.7s2.3-0.7,3.3-1.7c0,1.1-0.1,5.3,1.9,5.7c0.2,0,0.5,0.1,0.7,0.1c0,0,0,0,0,0c1.1,0.2,2.3,0.4,3.6,0.7
				c1.5,0.3,2.9,0.7,4.2,1.1c0,0,0.1,0,0.1,0C42.2,24.9,43,28.2,43.3,30.5z"/>
		</g>
	</g>
</g>
<polyline fill="#FFFFFF" stroke="#58595B" stroke-width="0.5" stroke-linecap="round" stroke-linejoin="round" stroke-miterlimit="10" points="
	20.8,25.6 20.8,22.4 20.8,22.3 20.8,22.4 23,25.6 "/>
<polyline fill="#FFFFFF" stroke="#58595B" stroke-width="0.5" stroke-linecap="round" stroke-linejoin="round" stroke-miterlimit="10" points="
	25.9,25.6 26.7,23.7 22,22.1 "/>
<polyline fill="#FFFFFF" stroke="#58595B" stroke-width="0.5" stroke-linecap="round" stroke-linejoin="round" stroke-miterlimit="10" points="
	32.6,25.6 32.6,22.4 32.6,22.3 32.6,22.4 30.4,25.6 "/>
<polyline fill="#FFFFFF" stroke="#58595B" stroke-width="0.5" stroke-linecap="round" stroke-linejoin="round" stroke-miterlimit="10" points="
	27.4,25.6 26.7,23.7 31.5,22.1 "/>
<g>
	
		<path fill="#FFFFFF" stroke="#58595B" stroke-width="0.5" stroke-linecap="round" stroke-linejoin="round" stroke-miterlimit="10" d="
		M20,8.3c0,0.4,0.1,1.1,0.2,1.5C20.1,9.3,20,8.8,20,8.3z"/>
	
		<path fill="#FFFFFF" stroke="#58595B" stroke-width="0.5" stroke-linecap="round" stroke-linejoin="round" stroke-miterlimit="10" d="
		M31.3,5.2C30,5.7,28.4,6,26.7,6c-1.7,0-3.3-0.3-4.6-0.8c0,0,0.1,3-1.9,4.8c0.5,2.2,1.6,4.9,3.2,6.5c1,1,2.1,1.7,3.3,1.7
		s2.3-0.7,3.3-1.7c1.6-1.7,2.8-4.3,3.2-6.5C31.3,8.3,31.3,5.2,31.3,5.2z M21.3,10.9v-1c0-0.6,0.5-1.1,1.1-1.1h2.2
		c0.6,0,1.1,0.5,1.1,1.1v1c0,0.6-0.5,1.1-1.1,1.1h-2.2C21.8,12,21.3,11.5,21.3,10.9z M31,12h-2.2c-0.6,0-1.1-0.5-1.1-1.1v-1
		c0-0.6,0.5-1.1,1.1-1.1H31c0.6,0,1.1,0.5,1.1,1.1v1C32.1,11.5,31.7,12,31,12z"/>
	
		<path fill="#FFFFFF" stroke="#58595B" stroke-width="0.5" stroke-linecap="round" stroke-linejoin="round" stroke-miterlimit="10" d="
		M25.7,9.9v1c0,0.6-0.5,1.1-1.1,1.1h-2.2c-0.6,0-1.1-0.5-1.1-1.1v-1c0-0.6,0.5-1.1,1.1-1.1h2.2C25.2,8.8,25.7,9.3,25.7,9.9z"/>
	
		<path fill="#FFFFFF" stroke="#58595B" stroke-width="0.5" stroke-linecap="round" stroke-linejoin="round" stroke-miterlimit="10" d="
		M32.1,9.9v1c0,0.6-0.5,1.1-1.1,1.1h-2.2c-0.6,0-1.1-0.5-1.1-1.1v-1c0-0.6,0.5-1.1,1.1-1.1H31C31.7,8.8,32.1,9.3,32.1,9.9z"/>
	
		<path fill="#FFFFFF" stroke="#58595B" stroke-width="0.5" stroke-linecap="round" stroke-linejoin="round" stroke-miterlimit="10" d="
		M33.4,8.1c0,0.6-0.1,1.2-0.2,1.9c-1.9-1.7-1.9-4.8-1.9-4.8C30,5.7,28.4,6,26.7,6c-1.7,0-3.3-0.3-4.6-0.8c0,0,0.1,3-1.9,4.8
		c0,0,0-0.1,0-0.1c0,0,0-0.1,0-0.1c0-0.3-0.1-0.9-0.2-1.3c0-0.1,0-0.1,0-0.2c0-0.1,0-0.2,0-0.2c0-0.3,0-4,0-4c0-2.1,1.7-3.9,3.9-3.9
		h5.7c2.1,0,3.9,1.7,3.9,3.9C33.4,4.1,33.4,8,33.4,8.1z"/>
	
		<path fill="#FFFFFF" stroke="#58595B" stroke-width="0.5" stroke-linecap="round" stroke-linejoin="round" stroke-miterlimit="10" d="
		M20.2,9.9c0,0,0,0.1,0,0.1l0,0C20.2,10,20.2,10,20.2,9.9z"/>
	
		<path fill="#FFFFFF" stroke="#58595B" stroke-width="0.5" stroke-linecap="round" stroke-linejoin="round" stroke-miterlimit="10" d="
		M33.2,10L33.2,10c0.1-0.7,0.2-1.3,0.2-1.9C33.5,8.8,33.2,10,33.2,10z"/>
	<g>
		
			<path fill="#FFFFFF" stroke="#58595B" stroke-width="0.5" stroke-linecap="round" stroke-linejoin="round" stroke-miterlimit="10" d="
			M25.7,9.9v1c0,0.6-0.5,1.1-1.1,1.1h-2.2c-0.6,0-1.1-0.5-1.1-1.1v-1c0-0.6,0.5-1.1,1.1-1.1h2.2C25.2,8.8,25.7,9.3,25.7,9.9z"/>
		
			<path fill="#FFFFFF" stroke="#58595B" stroke-width="0.5" stroke-linecap="round" stroke-linejoin="round" stroke-miterlimit="10" d="
			M32.1,9.9v1c0,0.6-0.5,1.1-1.1,1.1h-2.2c-0.6,0-1.1-0.5-1.1-1.1v-1c0-0.6,0.5-1.1,1.1-1.1H31C31.7,8.8,32.1,9.3,32.1,9.9z"/>
		
			<line fill="#FFFFFF" stroke="#58595B" stroke-width="0.5" stroke-linecap="round" stroke-linejoin="round" stroke-miterlimit="10" x1="25.7" y1="10.4" x2="27.7" y2="10.4"/>
	</g>
</g>
<g>
	
		<path fill="#FFFFFF" stroke="#58595B" stroke-width="0.5" stroke-linecap="round" stroke-linejoin="round" stroke-miterlimit="10" d="
		M43.3,30.5c-0.4-2.8-2.8-4.9-5.6-4.9H15.8c-2.9,0-5.2,2.1-5.6,4.9c0,0.3-0.1,0.5-0.1,0.8v12.2c0,3.2,2.6,5.7,5.7,5.7h21.8
		c3.2,0,5.7-2.5,5.7-5.7V31.3C43.3,31.1,43.3,30.8,43.3,30.5z M26.7,39.8c-1.3,0-2.3-1-2.3-2.3c0-1.3,1-2.3,2.3-2.3
		c1.3,0,2.3,1,2.3,2.3C29.1,38.7,28,39.8,26.7,39.8z"/>
	
		<path fill="#FFFFFF" stroke="#58595B" stroke-width="0.5" stroke-linecap="round" stroke-linejoin="round" stroke-miterlimit="10" d="
		M29.1,37.4c0,1.3-1,2.3-2.3,2.3c-1.3,0-2.3-1-2.3-2.3c0-1.3,1-2.3,2.3-2.3C28,35.1,29.1,36.1,29.1,37.4z"/>
	
		<path fill="#FFFFFF" stroke="#58595B" stroke-width="0.5" stroke-linecap="round" stroke-linejoin="round" stroke-miterlimit="10" d="
		M29.1,37.4c0,1.3-1,2.3-2.3,2.3c-1.3,0-2.3-1-2.3-2.3c0-1.3,1-2.3,2.3-2.3C28,35.1,29.1,36.1,29.1,37.4z"/>
</g>
</svg>
