<?xml version="1.0" encoding="utf-8"?>
<!-- Generator: Adobe Illustrator 20.1.0, SVG Export Plug-In . SVG Version: 6.00 Build 0)  -->
<svg version="1.1" id="Layer_1" xmlns="http://www.w3.org/2000/svg" xmlns:xlink="http://www.w3.org/1999/xlink" x="0px" y="0px"
	 viewBox="0 0 53.4 56" enable-background="new 0 0 53.4 56" xml:space="preserve">
<g>
	
		<path fill="#FFFFFF" stroke="#58595B" stroke-width="0.5" stroke-linecap="round" stroke-linejoin="round" stroke-miterlimit="10" d="
		M16.8,26.9c1.3-1.7,1.8-4.9,1.5-6.9c-0.4-3.8-1.9-7.3-1.2-11.2c0.9-4.7,4.8-10,9.5-8.1c4.8-1.8,8.6,3.4,9.5,8.2
		C37,12.7,35.4,16.2,35,20c-0.2,2.1,0.2,5.2,1.5,6.9"/>
	<g>
		
			<path fill="#FFFFFF" stroke="#58595B" stroke-width="0.5" stroke-linecap="round" stroke-linejoin="round" stroke-miterlimit="10" d="
			M43.2,33.8c-0.5-2.6-2.8-4.6-5.6-4.6H15.8c-2.9,0-5.4,2.2-5.7,5.1c0.3-2.4,1.1-5.6,2.8-6.4c0,0,0.1,0,0.1,0c1.1-0.4,2.4-0.7,3.8-1
			c0.1,0,0.3-0.1,0.4-0.1c1.5-0.3,3.1-0.6,4.3-0.8c2.1-0.4,1.9-4.8,1.9-5.8c1,1,2.1,1.6,3.3,1.6s2.3-0.6,3.3-1.6
			c0,1-0.2,5.4,1.9,5.8c1.2,0.2,2.7,0.5,4.3,0.8c0.1,0,0.2,0,0.3,0.1c1.4,0.3,2.7,0.6,3.9,1c0,0,0.1,0,0.1,0
			C42.1,28.6,42.9,31.5,43.2,33.8z"/>
		
			<path fill="#FFFFFF" stroke="#58595B" stroke-width="0.5" stroke-linecap="round" stroke-linejoin="round" stroke-miterlimit="10" d="
			M31.7,26c0,1.1-2.2,2.3-5,2.3s-5-1.1-5-2.3"/>
	</g>
	
		<path fill="#FFFFFF" stroke="#58595B" stroke-width="0.5" stroke-linecap="round" stroke-linejoin="round" stroke-miterlimit="10" d="
		M33.8,11.2L33.8,11.2c0,1.7-0.5,3.8-1.5,5.7l0,0c-0.6,1.3-1.4,2.4-2.3,3.3c-1,1-2.1,1.6-3.3,1.6s-2.3-0.6-3.3-1.6
		c-0.9-0.9-1.7-2.1-2.2-3.3c0,0,0-0.1-0.1-0.1c-0.9-1.9-1.4-3.9-1.4-5.5v0c0-2.9,1.8-5.4,4.3-6.5c0,0,0.1,0,0.1-0.1
		c0.5-0.2,1.1-0.4,1.7-0.4c0.7,1.6,2.1,3.2,4,4.4c1.2,0.7,2.5,1.1,3.7,1.3C33.6,10.3,33.7,10.8,33.8,11.2z"/>
</g>
<g>
	
		<path fill="#FFFFFF" stroke="#58595B" stroke-width="0.5" stroke-linecap="round" stroke-linejoin="round" stroke-miterlimit="10" d="
		M43.3,34.3c0-0.2-0.1-0.4-0.1-0.5c-0.5-2.6-2.8-4.6-5.6-4.6H15.8c-2.9,0-5.4,2.2-5.7,5.1c0,0.2,0,0.4,0,0.6v12.2
		c0,3.2,2.6,5.7,5.7,5.7h21.8c3.2,0,5.7-2.5,5.7-5.7V34.9C43.3,34.7,43.3,34.5,43.3,34.3z M26.7,43.4c-1.3,0-2.3-1-2.3-2.3
		c0-1.3,1-2.3,2.3-2.3s2.3,1,2.3,2.3C29.1,42.3,28,43.4,26.7,43.4z"/>
	
		<path fill="#FFFFFF" stroke="#58595B" stroke-width="0.5" stroke-linecap="round" stroke-linejoin="round" stroke-miterlimit="10" d="
		M29.1,41c0,1.3-1.1,2.3-2.3,2.3s-2.3-1-2.3-2.3c0-1.3,1-2.3,2.3-2.3S29.1,39.7,29.1,41z"/>
	
		<path fill="#FFFFFF" stroke="#58595B" stroke-width="0.5" stroke-linecap="round" stroke-linejoin="round" stroke-miterlimit="10" d="
		M29.1,41c0,1.3-1.1,2.3-2.3,2.3s-2.3-1-2.3-2.3c0-1.3,1-2.3,2.3-2.3S29.1,39.7,29.1,41z"/>
</g>
<rect x="0.2" y="52.8" fill="#FFFFFF" stroke="#58595B" stroke-width="0.5" stroke-linecap="round" stroke-linejoin="round" stroke-miterlimit="10" width="52.9" height="2.9"/>
</svg>
