<?xml version="1.0" encoding="utf-8"?>
<!-- Generator: Adobe Illustrator 18.1.1, SVG Export Plug-In . SVG Version: 6.00 Build 0)  -->
<svg version="1.1" id="Layer_1" xmlns="http://www.w3.org/2000/svg" xmlns:xlink="http://www.w3.org/1999/xlink" x="0px" y="0px"
	 viewBox="11.304 86.5 114.667 22.901" enable-background="new 11.304 86.5 114.667 22.901" xml:space="preserve">
<g>
	<path fill="#847C78" d="M111.278,93.065h-0.384c-0.198,0-0.378,0.18-0.378,0.378v3.102c-0.244-0.111-0.859-0.35-1.681-0.35
		c-1.843,0-3.082,1.354-3.082,3.369c0,1.881,1.308,3.41,2.917,3.41c0.981,0,1.7-0.53,1.957-0.751l0.059,0.29
		c0.074,0.206,0.191,0.31,0.345,0.31h0.247c0.208,0,0.391-0.177,0.391-0.378v-9.002C111.669,93.248,111.479,93.065,111.278,93.065z
		 M110.517,97.594v3.346c-0.09,0.128-0.716,0.965-1.723,0.965c-1.148,0-1.86-1.208-1.86-2.328c0-1.113,0.638-2.312,2.038-2.312
		C109.705,97.264,110.347,97.521,110.517,97.594z"/>
	<path fill="#847C78" d="M60.082,96.331h-0.425c-0.218,0-0.363,0.195-0.363,0.378v4.321c-0.363,0.412-0.885,0.874-1.723,0.874
		c-0.869,0-1.256-0.544-1.256-1.763V96.71c0-0.198-0.18-0.378-0.378-0.378h-0.411c-0.233,0-0.378,0.196-0.378,0.378v3.418
		c0,1.408,0.278,2.847,2.34,2.847c0.763,0,1.412-0.253,1.929-0.754l0.085,0.272c0.039,0.155,0.114,0.332,0.361,0.332h0.219
		c0.197,0,0.363-0.173,0.363-0.378V96.71C60.445,96.511,60.272,96.331,60.082,96.331z"/>
	<path fill="#847C78" d="M51.947,93.178c-0.035-0.143-0.173-0.25-0.32-0.25h-0.22c-0.13,0-0.267,0.091-0.306,0.201l-2.639,7.456
		l-2.68-7.455c-0.037-0.112-0.175-0.203-0.306-0.203h-0.219c-0.149,0-0.286,0.108-0.322,0.254l-1.77,9.22
		c-0.028,0.126-0.009,0.233,0.054,0.311c0.04,0.051,0.12,0.111,0.268,0.111h0.549c0.146,0,0.303-0.125,0.323-0.256l1.162-6.884
		l2.492,7.073c0.039,0.117,0.193,0.203,0.305,0.203h0.248c0.112,0,0.267-0.086,0.306-0.201l2.465-7.073l1.192,6.89
		c0.039,0.137,0.182,0.248,0.32,0.248h0.549c0.147,0,0.227-0.06,0.268-0.111c0.062-0.077,0.081-0.184,0.055-0.308L51.947,93.178z"/>
	<path fill="#847C78" d="M116.137,96.195c-1.825,0-3.149,1.423-3.149,3.383c0,2,1.295,3.397,3.149,3.397
		c1.047,0,1.91-0.384,2.366-0.742c0.269-0.205,0.21-0.326,0.084-0.523l-0.176-0.252c-0.067-0.1-0.152-0.204-0.279-0.204
		c-0.094,0-0.178,0.054-0.305,0.14c-0.384,0.253-0.884,0.511-1.675,0.511c-1.115,0-1.928-1.048-1.994-2.019h4.533
		c0.187,0,0.347-0.15,0.363-0.34c0.013-0.114,0.028-0.28,0.028-0.392C119.081,97.439,117.843,96.195,116.137,96.195z
		 M117.911,98.926h-3.731c0.161-0.954,0.988-1.662,1.957-1.662C117.185,97.264,117.849,98.096,117.911,98.926z"/>
	<path fill="#847C78" d="M125.58,93.065h-0.384c-0.198,0-0.378,0.18-0.378,0.378v3.102c-0.244-0.111-0.859-0.35-1.681-0.35
		c-1.843,0-3.082,1.354-3.082,3.369c0,1.881,1.308,3.41,2.917,3.41c0.981,0,1.7-0.53,1.957-0.751l0.059,0.29
		c0.074,0.206,0.191,0.31,0.345,0.31h0.247c0.208,0,0.391-0.177,0.391-0.378v-9.002C125.971,93.248,125.782,93.065,125.58,93.065z
		 M124.819,97.594v3.346c-0.09,0.128-0.716,0.965-1.723,0.965c-1.149,0-1.86-1.208-1.86-2.328c0-1.113,0.638-2.312,2.039-2.312
		C124.008,97.264,124.65,97.521,124.819,97.594z"/>
	<path fill="#847C78" d="M83.616,96.195c-0.999,0-1.673,0.474-1.944,0.708v-3.459c0-0.195-0.183-0.378-0.377-0.378h-0.411
		c-0.201,0-0.378,0.177-0.378,0.378v9.002c0,0.209,0.169,0.378,0.378,0.378h0.411c0.201,0,0.377-0.177,0.377-0.378v-4.323
		c0.117-0.13,0.817-0.858,1.875-0.858c0.869,0,1.256,0.566,1.256,1.832v3.349c0,0.205,0.172,0.378,0.378,0.378h0.425
		c0.201,0,0.377-0.177,0.377-0.378v-3.349C85.982,97.144,85.209,96.195,83.616,96.195z"/>
	<path fill="#847C78" d="M79.167,93.065h-5.819c-0.185,0-0.336,0.151-0.336,0.336v0.398c0,0.185,0.151,0.336,0.336,0.336h2.312
		v8.353c0,0.18,0.157,0.337,0.337,0.337h0.52c0.18,0,0.337-0.157,0.337-0.337v-8.353h2.312c0.186,0,0.337-0.151,0.337-0.336v-0.398
		C79.504,93.215,79.353,93.065,79.167,93.065z"/>
	<path fill="#847C78" d="M95.374,96.195c-1.825,0-3.149,1.423-3.149,3.383c0,2,1.295,3.397,3.149,3.397
		c1.047,0,1.91-0.384,2.366-0.742c0.268-0.205,0.21-0.326,0.083-0.523l-0.176-0.252c-0.067-0.1-0.152-0.204-0.279-0.204
		c-0.094,0-0.178,0.054-0.306,0.14c-0.385,0.253-0.885,0.511-1.675,0.511c-1.116,0-1.928-1.048-1.994-2.019h4.533
		c0.165,0,0.346-0.128,0.363-0.34c0.013-0.109,0.028-0.279,0.028-0.393C98.317,97.439,97.08,96.195,95.374,96.195z M93.415,98.926
		c0.161-0.954,0.988-1.662,1.959-1.662c1.048,0,1.711,0.832,1.774,1.662H93.415z"/>
	<path fill="#847C78" d="M90.802,96.195c-1.055,0-1.678,0.499-1.908,0.727l-0.076-0.315c-0.048-0.172-0.178-0.275-0.349-0.275H88.25
		c-0.198,0-0.378,0.18-0.378,0.378v5.735c0,0.205,0.172,0.378,0.378,0.378h0.412c0.201,0,0.377-0.177,0.377-0.378v-4.369
		c0.079-0.113,0.575-0.757,1.64-0.757c0.274,0,0.493,0.1,0.654,0.172c0.064,0.029,0.126,0.044,0.182,0.044
		c0.08,0,0.223-0.031,0.291-0.239l0.179-0.494c0.039-0.115,0.028-0.223-0.036-0.311C91.776,96.246,91.229,96.195,90.802,96.195z"/>
	<path fill="#847C78" d="M63.019,93.065h-0.411c-0.201,0-0.377,0.177-0.377,0.378v9.002c0,0.209,0.169,0.378,0.377,0.378h0.411
		c0.201,0,0.378-0.177,0.378-0.378v-9.002C63.396,93.248,63.213,93.065,63.019,93.065z"/>
	<path fill="#847C78" d="M102.182,96.195c-1.196,0-2.054,0.347-2.214,0.418c-0.147,0.067-0.306,0.176-0.232,0.438l0.138,0.37
		c0.021,0.059,0.085,0.239,0.266,0.239c0.042,0,0.087-0.01,0.131-0.028l0.076-0.026c0.323-0.111,0.996-0.341,1.782-0.341
		c0.313,0,0.527,0.069,0.674,0.218c0.242,0.245,0.296,0.717,0.294,1.351c-0.215-0.057-0.749-0.182-1.284-0.182
		c-1.588,0-2.614,0.853-2.614,2.175c0,1.265,0.837,2.148,2.037,2.148c0.94,0,1.584-0.431,1.926-0.743l0.088,0.306
		c0.042,0.142,0.115,0.287,0.333,0.287h0.261c0.208,0,0.377-0.169,0.377-0.378v-3.512C104.219,97.116,103.904,96.195,102.182,96.195
		z M103.081,99.884v1.22c-0.279,0.401-0.934,0.801-1.668,0.801c-0.627,0-1.064-0.444-1.064-1.079c0-0.715,0.56-1.16,1.463-1.16
		C102.371,99.666,102.848,99.776,103.081,99.884z"/>
	<path fill="#847C78" d="M69.147,101.661c-0.037-0.083-0.107-0.237-0.275-0.237c-0.068,0-0.143,0.026-0.233,0.08
		c-0.253,0.16-0.635,0.401-1.209,0.401c-0.227,0-0.487-0.094-0.487-0.831V97.36h1.791c0.216,0,0.392-0.169,0.392-0.378v-0.274
		c0-0.215-0.168-0.377-0.392-0.377h-1.791v-1.708c0-0.21-0.154-0.38-0.343-0.38c-0.009,0-0.017,0.001-0.025,0.001l-0.427,0.028
		c-0.178,0.017-0.369,0.166-0.369,0.378v1.681h-0.762c-0.231,0-0.392,0.155-0.392,0.377v0.274c0,0.216,0.168,0.378,0.392,0.378
		h0.762v3.783c0,0.853,0.173,1.832,1.529,1.832c0.798,0,1.484-0.28,1.827-0.52c0.195-0.131,0.233-0.267,0.137-0.504L69.147,101.661z
		"/>
	<path fill="#847C78" d="M71.495,96.331h-0.411c-0.201,0-0.378,0.177-0.378,0.378v5.735c0,0.209,0.169,0.378,0.378,0.378h0.411
		c0.201,0,0.377-0.177,0.377-0.378V96.71C71.871,96.515,71.689,96.331,71.495,96.331z"/>
	<path fill="#847C78" d="M71.261,93.189c-0.457,0-0.815,0.37-0.815,0.843c0,0.45,0.366,0.816,0.815,0.816
		c0.458,0,0.83-0.366,0.83-0.816C72.091,93.551,71.735,93.189,71.261,93.189z"/>
</g>
<path fill="#847C78" d="M34.08,97.642l-2.505-2.505l2.167-2.168c0.167-0.167,0.167-0.438,0-0.606c-0.167-0.167-0.438-0.167-0.606,0
	l-2.167,2.168l-3.497-3.497l2.169-2.169c0.167-0.167,0.167-0.438,0-0.606c-0.167-0.167-0.438-0.167-0.606,0l-2.169,2.169
	l-3.809-3.809c-0.161-0.161-0.445-0.161-0.606,0l-3.793,3.793l-2.153-2.153c-0.167-0.167-0.438-0.167-0.606,0s-0.167,0.438,0,0.606
	l2.153,2.153l-3.5,3.5l-2.154-2.154c-0.167-0.167-0.438-0.167-0.606,0s-0.167,0.438,0,0.606l2.154,2.154l-2.518,2.518
	c-0.08,0.08-0.125,0.189-0.125,0.303s0.045,0.222,0.125,0.303l2.505,2.505l-2.167,2.167c-0.167,0.167-0.167,0.438,0,0.606
	c0.084,0.084,0.193,0.125,0.303,0.125s0.219-0.042,0.303-0.125l2.167-2.167l3.497,3.497l-2.169,2.169
	c-0.167,0.167-0.167,0.438,0,0.606c0.084,0.084,0.193,0.125,0.303,0.125s0.219-0.042,0.303-0.125l2.169-2.169l3.809,3.809
	c0.084,0.084,0.193,0.125,0.303,0.125s0.219-0.042,0.303-0.125l3.793-3.793l2.153,2.153c0.084,0.084,0.193,0.125,0.303,0.125
	s0.219-0.042,0.303-0.125c0.167-0.167,0.167-0.438,0-0.606l-2.153-2.153l3.5-3.5l2.154,2.154c0.084,0.084,0.193,0.125,0.303,0.125
	s0.219-0.042,0.303-0.125c0.167-0.167,0.167-0.438,0-0.606l-2.154-2.154l2.518-2.518C34.247,98.08,34.247,97.809,34.08,97.642z
	 M22.755,87.528l3.506,3.506l-3.49,3.49l-3.506-3.506L22.755,87.528z M12.338,97.945l2.216-2.216l2.203,2.203l-2.216,2.216
	L12.338,97.945z M15.146,100.753l2.518-2.519c0.167-0.167,0.167-0.438,0-0.606l-2.505-2.505l3.5-3.5l3.506,3.506l-2.528,2.528
	c-0.167,0.167-0.167,0.438,0,0.606l2.496,2.496l-3.49,3.49L15.146,100.753z M22.771,95.736l2.193,2.193l-2.225,2.225l-2.193-2.193
	L22.771,95.736z M22.755,108.361l-3.507-3.506l3.49-3.49l3.506,3.506L22.755,108.361z M26.85,104.266l-3.506-3.506l2.528-2.528
	c0.167-0.167,0.167-0.438,0-0.606l-2.496-2.496l3.49-3.49l3.497,3.497l-2.518,2.518c-0.167,0.167-0.167,0.438,0,0.606l2.505,2.505
	L26.85,104.266z M30.956,100.16l-2.203-2.203l2.216-2.216l2.203,2.203L30.956,100.16z"/>
</svg>
