<svg width="603" height="84" viewBox="0 0 603 84" fill="none" xmlns="http://www.w3.org/2000/svg">
<path d="M78.4865 39.4086H50.7703L61.324 24.8368H78.8452C85.6589 24.8368 91.5506 19.244 91.5506 12.4199C91.5506 5.49317 85.8639 -0.150852 78.8964 0.00307558C75.0028 0.0543848 71.4166 2.10676 69.1624 5.23662L58.7112 19.7571H12.6542C5.89161 19.7571 0.35862 25.1959 0.256157 31.9687C0.153694 38.8955 5.99408 44.5908 12.9616 44.5908H40.7802L30.2265 59.1627H12.7054C5.89161 59.1627 0 64.7554 0 71.5795C0 78.301 5.32807 83.7911 12.0394 83.9963C16.1891 84.0989 20.0827 82.0466 22.4906 78.7115L32.8906 64.2936H78.8452C85.6077 64.2936 91.1407 58.8548 91.2432 52.082C91.2944 45.1039 85.454 39.4086 78.4865 39.4086ZM73.4659 8.00732C74.7979 6.21149 76.8984 5.134 79.1013 5.134C83.1486 5.134 86.3762 8.41779 86.3762 12.4199C86.3762 16.4733 83.0974 19.7058 79.1013 19.7058H65.0127L73.4659 8.00732ZM18.2384 75.7355C16.8551 77.6853 14.601 78.9167 12.1931 78.8654C8.24826 78.7628 5.07191 75.5303 5.07191 71.5795C5.07191 67.5774 8.35072 64.2936 12.3468 64.2936H26.4866L18.2384 75.7355ZM12.6542 39.4086C8.65811 39.4086 5.3793 36.1248 5.3793 32.1227C5.3793 28.1205 8.65811 24.8368 12.6542 24.8368H55.0225L44.4689 39.4086H12.6542ZM78.7939 59.1627H36.528L47.0817 44.5908H78.7939C82.79 44.5908 86.0688 47.8746 86.0688 51.8767C86.0688 55.8789 82.79 59.1627 78.7939 59.1627Z" fill="#001E60"/>
<path d="M129.92 66V19.2H141.02C145.88 30.12 150.68 41.1 155.48 52.08H155.6C160.4 41.1 165.2 30.12 170.06 19.2H181.16V66H172.1V35.88H171.86C167.54 45.9 163.16 55.98 158.78 66H152.3C147.92 55.98 143.54 45.9 139.22 35.88H138.98V66H129.92ZM201.895 67.02C194.515 67.02 189.835 62.52 189.835 53.52V32.52H198.235V50.64C198.235 55.74 200.275 58.98 204.295 58.98C208.675 58.98 211.315 55.26 211.315 50.52V32.52H219.715V55.56C219.715 61.08 220.135 63.36 220.795 66H212.395C211.975 64.14 211.735 62.88 211.795 61.92H211.675C209.815 64.98 206.815 67.02 201.895 67.02ZM228.046 66V18H236.446V66H228.046ZM259.087 67.02C247.867 67.02 247.867 58.8 247.867 55.32V40.14C245.647 40.14 243.487 40.14 241.267 40.14V32.52H247.867C247.867 29.4 247.867 26.22 247.867 23.04H256.267V32.52C259.267 32.52 262.327 32.52 265.327 32.52V40.14H256.267C256.267 44.22 256.267 48.24 256.267 52.32C256.267 55.5 256.267 59.4 260.827 59.4C262.447 59.4 264.007 58.92 265.327 58.2V65.76C263.647 66.66 261.427 67.02 259.087 67.02ZM271.23 66V32.52H279.63V66H271.23ZM270.27 22.14C270.27 19.38 272.49 17.04 275.49 17.04C278.43 17.04 280.65 19.38 280.65 22.14C280.65 25.14 278.43 27.48 275.49 27.48C272.49 27.48 270.27 25.14 270.27 22.14ZM298.55 27.42H284.51V19.2H321.47V27.42H307.43V66H298.55V27.42ZM326.249 66V18H334.649V37.44H334.769C337.229 33.42 340.949 31.56 345.029 31.56C351.149 31.56 356.729 35.76 356.729 44.88V66H348.329V48.6C348.329 44.16 347.189 39.6 342.029 39.6C338.069 39.6 334.649 42.36 334.649 48.72V66H326.249ZM364.628 66V32.52H372.908V37.68H373.148C374.828 34.44 378.008 31.56 382.568 31.56C383.588 31.56 384.608 31.68 385.808 32.16V41.58C384.428 41.1 382.748 40.92 381.728 40.92C373.928 40.92 373.028 48.18 373.028 53.04V66H364.628ZM405.181 67.02C395.281 67.02 387.841 60.06 387.841 49.44C387.841 39.12 394.801 31.56 404.581 31.56C412.921 31.56 420.721 37.08 420.721 49.38V51.66H396.241C396.961 56.7 400.741 59.46 405.121 59.46C408.541 59.46 411.481 57.6 412.981 54.12L420.841 57.3C418.621 62.76 412.981 67.02 405.181 67.02ZM396.661 45.9H412.261C411.661 40.74 408.301 38.76 404.521 38.76C400.201 38.76 397.501 41.7 396.661 45.9ZM436.091 67.02C430.391 67.02 424.871 63.84 424.871 57.24C424.871 51 429.851 48.48 435.671 47.22C443.231 45.6 445.631 45.36 445.631 42.72C445.631 40.26 443.531 38.4 440.291 38.4C437.351 38.4 434.831 39.96 433.751 43.74L425.891 41.1C427.991 34.08 434.111 31.56 440.591 31.56C448.871 31.56 454.091 35.64 454.091 43.44V55.56C454.091 61.02 454.511 63.36 455.171 66H446.831C446.351 64.56 446.171 63.18 446.171 61.62H446.051C444.311 64.92 440.471 67.02 436.091 67.02ZM434.051 57C434.051 59.4 435.971 60.54 438.551 60.54C442.991 60.54 445.691 56.82 445.691 53.4V50.7C443.951 51.42 441.011 52.2 439.151 52.56C436.511 53.22 434.051 54.48 434.051 57ZM475.268 67.02C465.968 67.02 460.088 59.52 460.088 49.26C460.088 38.22 466.928 31.56 475.208 31.56C480.128 31.56 483.488 33.96 485.348 36.96H485.468V18H493.868V55.56C493.868 61.08 494.288 63.36 494.948 66H486.668C486.188 64.14 485.948 62.88 486.008 61.74H485.888C483.428 65.46 479.348 67.02 475.268 67.02ZM468.788 49.26C468.788 54.78 472.208 58.98 477.188 58.98C482.168 58.98 485.648 54.84 485.648 49.2C485.648 43.5 482.048 39.54 477.188 39.54C472.268 39.54 468.788 43.56 468.788 49.26ZM517.446 67.02C507.546 67.02 500.106 60.06 500.106 49.44C500.106 39.12 507.066 31.56 516.846 31.56C525.186 31.56 532.986 37.08 532.986 49.38V51.66H508.506C509.226 56.7 513.006 59.46 517.386 59.46C520.806 59.46 523.746 57.6 525.246 54.12L533.106 57.3C530.886 62.76 525.246 67.02 517.446 67.02ZM508.926 45.9H524.526C523.926 40.74 520.566 38.76 516.786 38.76C512.466 38.76 509.766 41.7 508.926 45.9ZM552.436 67.02C543.136 67.02 537.256 59.52 537.256 49.26C537.256 38.22 544.096 31.56 552.376 31.56C557.296 31.56 560.656 33.96 562.516 36.96H562.636V18H571.036V55.56C571.036 61.08 571.456 63.36 572.116 66H563.836C563.356 64.14 563.116 62.88 563.176 61.74H563.056C560.596 65.46 556.516 67.02 552.436 67.02ZM545.956 49.26C545.956 54.78 549.376 58.98 554.356 58.98C559.336 58.98 562.816 54.84 562.816 49.2C562.816 43.5 559.216 39.54 554.356 39.54C549.436 39.54 545.956 43.56 545.956 49.26Z" fill="#001E60"/>
</svg>
