<?xml version="1.0" encoding="utf-8"?>
<!-- Generator: Adobe Illustrator 18.1.1, SVG Export Plug-In . SVG Version: 6.00 Build 0)  -->
<svg version="1.1" id="Layer_1" xmlns="http://www.w3.org/2000/svg" xmlns:xlink="http://www.w3.org/1999/xlink" x="0px" y="0px"
	 viewBox="488.033 281.743 120.333 120.307" enable-background="new 488.033 281.743 120.333 120.307" xml:space="preserve">
<path fill="#847C78" d="M607.707,340.293l-13.164-13.164l11.389-11.389c0.879-0.879,0.879-2.303,0-3.182s-2.303-0.879-3.182,0
	l-11.389,11.389l-18.374-18.374l11.397-11.397c0.879-0.879,0.879-2.303,0-3.182s-2.303-0.879-3.182,0l-11.397,11.397l-20.015-20.015
	c-0.844-0.844-2.338-0.844-3.182,0l-19.93,19.93l-11.312-11.312c-0.879-0.879-2.303-0.879-3.182,0s-0.879,2.303,0,3.182
	l11.312,11.312l-18.39,18.39l-11.32-11.32c-0.879-0.879-2.303-0.879-3.182,0s-0.879,2.303,0,3.182l11.32,11.32l-13.233,13.233
	c-0.422,0.422-0.659,0.994-0.659,1.591s0.237,1.169,0.659,1.591l13.164,13.164l-11.388,11.388c-0.879,0.879-0.879,2.303,0,3.182
	c0.439,0.439,1.015,0.659,1.591,0.659s1.151-0.22,1.591-0.659l11.388-11.389l18.373,18.373l-11.397,11.397
	c-0.879,0.879-0.879,2.303,0,3.182c0.439,0.439,1.015,0.659,1.591,0.659s1.151-0.22,1.591-0.659l11.397-11.397l20.016,20.015
	c0.439,0.439,1.015,0.659,1.591,0.659s1.151-0.22,1.591-0.659l19.93-19.93l11.312,11.312c0.439,0.439,1.015,0.659,1.591,0.659
	s1.151-0.22,1.591-0.659c0.879-0.879,0.879-2.303,0-3.182l-11.312-11.312l18.391-18.391l11.32,11.32
	c0.439,0.439,1.015,0.659,1.591,0.659s1.151-0.22,1.591-0.659c0.879-0.879,0.879-2.303,0-3.182l-11.32-11.32l13.232-13.232
	C608.586,342.596,608.586,341.172,607.707,340.293z M548.2,287.148l18.424,18.424l-18.339,18.339l-18.424-18.424L548.2,287.148z
	 M493.465,341.884l11.643-11.643l11.573,11.573l-11.642,11.643L493.465,341.884z M508.22,356.639l13.233-13.234
	c0.879-0.879,0.879-2.303,0-3.182l-13.164-13.164l18.39-18.39l18.424,18.424l-13.284,13.284c-0.879,0.879-0.879,2.303,0,3.182
	l13.113,13.113l-18.339,18.339L508.22,356.639z M548.285,330.275l11.522,11.522l-11.693,11.693l-11.522-11.522L548.285,330.275z
	 M548.2,396.618l-18.425-18.425l18.339-18.339l18.425,18.425L548.2,396.618z M569.721,375.098l-18.425-18.425l13.284-13.284
	c0.879-0.879,0.879-2.303,0-3.182l-13.113-13.113l18.339-18.339l18.374,18.374l-13.232,13.233c-0.879,0.879-0.879,2.303,0,3.182
	l13.164,13.164L569.721,375.098z M591.293,353.525l-11.573-11.573l11.641-11.642l11.573,11.574L591.293,353.525z"/>
</svg>
