<?xml version="1.0" encoding="utf-8"?>
<!-- Generator: Adobe Illustrator 18.1.0, SVG Export Plug-In . SVG Version: 6.00 Build 0)  -->
<!DOCTYPE svg PUBLIC "-//W3C//DTD SVG 1.1//EN" "http://www.w3.org/Graphics/SVG/1.1/DTD/svg11.dtd">
<svg version="1.1" id="Layer_1" xmlns="http://www.w3.org/2000/svg" xmlns:xlink="http://www.w3.org/1999/xlink" x="0px" y="0px"
	 viewBox="0 0 52 52" style="enable-background:new 0 0 52 52;" xml:space="preserve">
<style type="text/css">
	.st0{fill:#847D78;stroke:#847D78;stroke-width:0.5;stroke-miterlimit:10;}
</style>
<g>
	<path class="st0" d="M51,26c0-5.7-1.9-10.9-5.1-15.1l0,0c-0.1-0.2-0.3-0.4-0.4-0.6l0,0c-0.8-1-1.6-1.9-2.5-2.7l0,0c0,0,0,0-0.1-0.1
		c-0.1-0.1-0.2-0.1-0.2-0.2c-0.1-0.1-0.2-0.1-0.2-0.2l0,0c-1.2-1-2.4-1.9-3.7-2.7l0,0c-0.2-0.1-0.4-0.3-0.6-0.4l0,0
		c-1.2-0.6-2.4-1.2-3.6-1.6l0,0c-0.3-0.1-0.5-0.2-0.8-0.3l0,0C31.2,1.4,28.7,1,26,1c-2.7,0-5.3,0.4-7.7,1.2l0,0
		c-0.3,0.1-0.5,0.2-0.8,0.3l0,0c-1.3,0.5-2.5,1-3.6,1.6l0,0c-0.2,0.1-0.4,0.2-0.6,0.4l0,0C12,5.2,10.7,6.1,9.6,7.1l0,0
		C9.5,7.2,9.4,7.3,9.3,7.4c-0.1,0-0.1,0.1-0.2,0.1c0,0-0.1,0.1-0.1,0.1l0,0c-0.9,0.8-1.8,1.7-2.5,2.7l0,0c-0.2,0.2-0.3,0.4-0.4,0.6
		l0,0C2.9,15.1,1,20.3,1,26C1,31.6,2.9,36.9,6,41.1l0,0c0.1,0.2,0.3,0.4,0.4,0.6l0,0c0.8,1,1.6,1.9,2.5,2.7l0,0c0,0,0.1,0.1,0.1,0.1
		c0,0,0.1,0.1,0.1,0.1c0.1,0.1,0.2,0.2,0.3,0.3l0,0c1.1,1,2.4,1.9,3.7,2.7l0,0c0.2,0.1,0.4,0.3,0.6,0.4l0,0c1.2,0.6,2.4,1.2,3.6,1.6
		l0,0c0.3,0.1,0.5,0.2,0.8,0.3l0,0c2.4,0.8,5,1.2,7.7,1.2c2.7,0,5.3-0.4,7.7-1.2l0,0c0.3-0.1,0.5-0.2,0.8-0.3l0,0
		c1.3-0.5,2.5-1,3.6-1.6l0,0c0.2-0.1,0.4-0.2,0.6-0.4l0,0c1.3-0.8,2.6-1.7,3.7-2.7l0,0c0.1-0.1,0.2-0.2,0.3-0.2
		c0.1-0.1,0.1-0.1,0.2-0.2c0,0,0.1-0.1,0.1-0.1l0,0c0.9-0.8,1.8-1.7,2.5-2.7l0,0c0.2-0.2,0.3-0.4,0.4-0.6l0,0
		C49.1,36.9,51,31.6,51,26z M50.3,26c0,5.5-1.8,10.5-4.9,14.6l-8.9-8.9l5.4-5.4c0.1-0.1,0.1-0.4,0-0.5l-5.4-5.4l8.9-8.9
		C48.5,15.5,50.3,20.5,50.3,26z M21.9,26.2c0.1-0.1,0.1-0.2,0.1-0.3c0-0.1,0-0.2-0.1-0.3l-2.2-2.2l2.6-2.6l3.2,3.2l-1.7,1.7
		c-0.1,0.1-0.1,0.4,0,0.5l1.7,1.7l-3.2,3.2l-2.6-2.6L21.9,26.2z M19.1,28l-2-2l2-2l2,2L19.1,28z M22.8,20.4l3.2-3.2l3.2,3.2L26,23.6
		L22.8,20.4z M27.4,26L26,27.4L24.6,26l1.4-1.4L27.4,26z M26,28.4l3.2,3.2L26,34.8l-3.2-3.2L26,28.4z M26.5,27.9l1.7-1.7
		c0.1-0.1,0.1-0.2,0.1-0.3c0-0.1,0-0.2-0.1-0.3l-1.7-1.7l3.2-3.2l2.6,2.6l-2.2,2.2C30,25.8,30,25.9,30,26c0,0.1,0,0.2,0.1,0.3
		l2.2,2.2l-2.6,2.6L26.5,27.9z M30.8,26l2-2l2,2l-2,2L30.8,26z M30.2,20.4l2.6-2.6l2.6,2.6L32.8,23L30.2,20.4z M29.7,19.8l-3.2-3.2
		l2.6-2.6l3.2,3.2L29.7,19.8z M26,16.1l-2.6-2.6l2.6-2.6l2.6,2.6L26,16.1z M25.5,16.6l-3.2,3.2l-2.6-2.6l3.2-3.2L25.5,16.6z
		 M21.8,20.4L19.1,23l-2.6-2.6l2.6-2.6L21.8,20.4z M18.6,23.5l-2.2,2.2c-0.1,0.1-0.1,0.2-0.1,0.3c0,0.1,0,0.2,0.1,0.3l2.2,2.2
		L16,31.1L10.9,26l5.1-5.1L18.6,23.5z M19.1,29l2.6,2.6l-2.6,2.6l-2.6-2.6L19.1,29z M22.3,32.1l3.2,3.2l-2.6,2.6l-3.2-3.2L22.3,32.1
		z M26,35.8l2.6,2.6L26,41.1l-2.6-2.6L26,35.8z M26.5,35.3l3.2-3.2l2.6,2.6l-3.2,3.2L26.5,35.3z M30.2,31.6l2.6-2.6l2.6,2.6
		l-2.6,2.6L30.2,31.6z M33.3,28.5l2.2-2.2c0.1-0.1,0.1-0.2,0.1-0.3c0-0.1,0-0.2-0.1-0.3l-2.2-2.2l2.6-2.6l5.1,5.1L36,31.1L33.3,28.5
		z M45,10.9l-9,9l-2.6-2.6l9.1-9.1C43.3,9,44.2,9.9,45,10.9z M41.9,7.7l-9.1,9.1l-3.2-3.2L38.2,5C39.5,5.8,40.7,6.7,41.9,7.7z
		 M37.5,4.6L29.1,13l-2.6-2.6L33.9,3C35.1,3.5,36.3,4,37.5,4.6z M26,1.7c2.5,0,4.9,0.4,7.1,1.1L26,9.9l-7.1-7.1
		C21.1,2.1,23.5,1.7,26,1.7z M18.1,3l7.4,7.4L22.8,13l-8.4-8.4C15.6,4,16.8,3.5,18.1,3z M13.8,5l8.5,8.5l-3.2,3.2l-9.1-9.1
		C11.2,6.7,12.5,5.8,13.8,5z M9.5,8.1l9.1,9.1L16,19.8l-9-9C7.8,9.9,8.6,9,9.5,8.1z M1.7,26c0-5.5,1.8-10.5,4.9-14.6l8.9,8.9
		l-5.4,5.4c-0.1,0.1-0.1,0.4,0,0.5l5.4,5.4l-8.9,8.9C3.5,36.5,1.7,31.4,1.7,26z M7,41.1l9-9l2.6,2.6l-9.1,9.1
		C8.6,43,7.8,42.1,7,41.1z M10.1,44.3l9.1-9.1l3.2,3.2L13.8,47C12.5,46.2,11.2,45.3,10.1,44.3z M14.5,47.3l8.4-8.4l2.6,2.6l-7.4,7.4
		C16.8,48.5,15.6,48,14.5,47.3z M26,50.3c-2.5,0-4.9-0.4-7.1-1.1l7.1-7.1l7.1,7.1C30.8,49.9,28.5,50.3,26,50.3z M33.9,48.9l-7.4-7.4
		l2.6-2.6l8.4,8.4C36.3,48,35.1,48.5,33.9,48.9z M38.2,47l-8.5-8.5l3.2-3.2l9.1,9.1C40.7,45.3,39.5,46.2,38.2,47z M42.4,43.8
		l-9.1-9.1l2.6-2.6l9,9C44.2,42.1,43.3,43,42.4,43.8z"/>
</g>
</svg>
