<?xml version="1.0" encoding="utf-8"?>
<!-- Generator: Adobe Illustrator 19.1.0, SVG Export Plug-In . SVG Version: 6.00 Build 0)  -->
<svg version="1.1" id="Layer_1" xmlns="http://www.w3.org/2000/svg" xmlns:xlink="http://www.w3.org/1999/xlink" x="0px" y="0px"
	 viewBox="0 0 72 72" style="enable-background:new 0 0 72 72;" xml:space="preserve">
<style type="text/css">
	.st0{fill-rule:evenodd;clip-rule:evenodd;fill:#847C78;}
	.st1{fill:#847C78;}
</style>
<path class="st0" d="M36,71c-15.3,0-22.2-8.2-10.5-2.4c1.7,0.3,2.4-0.8,2.4-1.7c0-0.8,0-3,0-5.9c-9.6,2.1-11.7-4.6-11.7-4.6
	c-1.6-4-3.9-5.1-3.9-5.1c-3.1-2.2,0.2-2.1,0.2-2.1c3.5,0.2,5.3,3.6,5.3,3.6C21,58.1,26,56.5,28,55.6c0.3-2.2,1.2-3.8,2.2-4.6
	c-7.7-0.9-15.8-3.9-15.8-17.1c0-3.8,1.4-6.9,3.6-9.3c-0.4-0.9-1.5-4.4,0.3-9.2c0,0,2.9-0.9,9.5,3.6c2.8-0.8,5.7-1.2,8.7-1.2
	c2.9,0,5.9,0.4,8.7,1.2c6.6-4.5,9.5-3.6,9.5-3.6c1.9,4.8,0.7,8.3,0.3,9.2c2.2,2.4,3.6,5.5,3.6,9.3c0,13.3-8.1,16.3-15.8,17.1
	c1.2,1.1,2.4,3.2,2.4,6.4c0,4.6,0,8.4,0,9.5c0,0.9,0.6,2,2.4,1.7C55.8,64.1,51.3,71,36,71"/>
<g>
	<path class="st1" d="M36,0C16.2,0,0,16.2,0,36s16.2,36,36,36s36-16.2,36-36C72,16.2,55.8,0,36,0z M36,69.5
		c-18.5,0-33.5-15-33.5-33.5S17.5,2.5,36,2.5s33.5,15,33.5,33.5S54.5,69.5,36,69.5z"/>
</g>
</svg>
