<?xml version="1.0" encoding="utf-8"?>
<!-- Generator: Adobe Illustrator 18.1.0, SVG Export Plug-In . SVG Version: 6.00 Build 0)  -->
<!DOCTYPE svg PUBLIC "-//W3C//DTD SVG 1.1//EN" "http://www.w3.org/Graphics/SVG/1.1/DTD/svg11.dtd">
<svg version="1.1" id="Layer_1" xmlns="http://www.w3.org/2000/svg" xmlns:xlink="http://www.w3.org/1999/xlink" x="0px" y="0px"
	 viewBox="0 0 189.9 40.8" style="enable-background:new 0 0 189.9 40.8;" xml:space="preserve">
<style type="text/css">
	.st0{fill:#6A615F;}
</style>
<g>
	<g>
		<path class="st0" d="M3.4,32.8l-3.3-4.6c-0.1-0.2,0-0.4,0.2-0.4h0.6c0.1,0,0.2,0.1,0.2,0.1L4,31.8l2.8-3.9c0-0.1,0.1-0.1,0.2-0.1
			h0.6c0.2,0,0.3,0.2,0.2,0.4l-3.4,4.6v4.4c0,0.1-0.1,0.3-0.3,0.3H3.7c-0.2,0-0.3-0.1-0.3-0.3V32.8z"/>
		<path class="st0" d="M10.4,31c1.8,0,3.2,1.5,3.2,3.3c0,1.8-1.4,3.4-3.2,3.4s-3.2-1.5-3.2-3.4C7.2,32.5,8.6,31,10.4,31z M10.4,36.7
			c1.3,0,2.2-1.1,2.2-2.4c0-1.3-0.9-2.4-2.2-2.4c-1.3,0-2.2,1.1-2.2,2.4C8.2,35.6,9.1,36.7,10.4,36.7z"/>
		<path class="st0" d="M15.3,31.4c0-0.2,0.1-0.3,0.3-0.3H16c0.2,0,0.3,0.2,0.3,0.3v3.5c0,1.3,0.4,1.9,1.3,1.9c1,0,1.5-0.6,1.8-0.9
			v-4.4c0-0.2,0.1-0.3,0.3-0.3h0.4c0.2,0,0.3,0.2,0.3,0.3v5.8c0,0.2-0.1,0.3-0.3,0.3h-0.2c-0.2,0-0.2-0.1-0.3-0.3l-0.1-0.4
			c-0.2,0.2-0.8,0.8-2,0.8c-1.8,0-2.3-1.1-2.3-2.8V31.4z"/>
		<path class="st0" d="M22.6,31.4c0-0.2,0.1-0.3,0.3-0.3h0.2c0.1,0,0.2,0.1,0.3,0.2l0.1,0.5c0,0,0.6-0.8,2-0.8
			c0.5,0,1.3,0.1,1.1,0.5L26.4,32c-0.1,0.2-0.2,0.2-0.4,0.2c-0.2-0.1-0.4-0.2-0.7-0.2c-1.2,0-1.7,0.8-1.7,0.8v4.4
			c0,0.2-0.2,0.3-0.3,0.3h-0.4c-0.2,0-0.3-0.1-0.3-0.3V31.4z"/>
		<path class="st0" d="M31.9,40.5c0,0.2-0.2,0.3-0.3,0.3h-0.4c-0.2,0-0.3-0.1-0.3-0.3v-9.1c0-0.2,0.1-0.3,0.3-0.3h0.2
			c0.2,0,0.2,0,0.3,0.2l0.1,0.3c0,0,0.8-0.6,1.9-0.6c1.7,0,3,1.5,3,3.3c0,1.9-1.3,3.3-3,3.3c-1.1,0-1.8-0.5-1.8-0.5V40.5z
			 M33.6,36.7c1.2,0,2.1-1,2.1-2.4c0-1.2-0.8-2.4-2.1-2.4c-1,0-1.7,0.8-1.7,0.8v3.5C31.9,36.1,32.7,36.7,33.6,36.7z"/>
		<path class="st0" d="M40.5,33.4c0.7,0,1.4,0.2,1.4,0.2c0-1.2-0.1-1.8-1-1.8c-0.9,0-1.6,0.3-1.9,0.4c-0.2,0.1-0.2,0-0.3-0.2
			l-0.1-0.4c-0.1-0.2,0-0.3,0.2-0.3c0.3-0.1,1.1-0.4,2.2-0.4c1.6,0,2,0.8,2,2.7v3.5c0,0.2-0.1,0.3-0.3,0.3h-0.3
			c-0.2,0-0.2-0.1-0.3-0.2l-0.1-0.4c-0.3,0.3-1,0.8-2,0.8c-1.1,0-2-0.8-2-2.1C38,34.3,38.9,33.4,40.5,33.4z M40.1,36.7
			c0.8,0,1.5-0.4,1.8-0.9v-1.3c-0.2-0.1-0.7-0.2-1.4-0.2c-0.9,0-1.5,0.4-1.5,1.2C39,36.2,39.4,36.7,40.1,36.7z"/>
		<path class="st0" d="M45,31.4c0-0.2,0.1-0.3,0.3-0.3h0.2c0.1,0,0.2,0.1,0.3,0.2l0.1,0.5c0,0,0.6-0.8,2-0.8c0.5,0,1.3,0.1,1.1,0.5
			L48.8,32c-0.1,0.2-0.2,0.2-0.4,0.2c-0.2-0.1-0.4-0.2-0.7-0.2c-1.2,0-1.7,0.8-1.7,0.8v4.4c0,0.2-0.2,0.3-0.3,0.3h-0.4
			c-0.2,0-0.3-0.1-0.3-0.3V31.4z"/>
		<path class="st0" d="M49.9,32c-0.2,0-0.3-0.1-0.3-0.3v-0.3c0-0.2,0.1-0.3,0.3-0.3h0.8v-1.8c0-0.2,0.2-0.3,0.3-0.3l0.4,0
			c0.2,0,0.3,0.1,0.3,0.3v1.8h1.9c0.2,0,0.3,0.1,0.3,0.3v0.3c0,0.2-0.1,0.3-0.3,0.3h-1.9v3.8c0,0.7,0.2,0.9,0.6,0.9
			c0.6,0,1-0.2,1.3-0.4c0.2-0.2,0.3,0,0.4,0.1l0.1,0.3c0.1,0.2,0.1,0.3-0.1,0.4c-0.3,0.2-0.9,0.5-1.8,0.5c-1.2,0-1.5-0.8-1.5-1.8V32
			H49.9z"/>
		<path class="st0" d="M55.5,31.4c0-0.2,0.1-0.3,0.3-0.3h0.2c0.1,0,0.2,0.1,0.2,0.2l0.1,0.5c0,0,0.8-0.8,2.1-0.8
			c1.9,0,2.3,1.2,2.3,2.8v3.4c0,0.2-0.2,0.3-0.3,0.3h-0.4c-0.2,0-0.3-0.1-0.3-0.3v-3.5c0-1.2-0.4-1.8-1.4-1.8c-1.2,0-2,0.9-2,0.9
			v4.4c0,0.2-0.2,0.3-0.3,0.3h-0.4c-0.2,0-0.3-0.1-0.3-0.3V31.4z"/>
		<path class="st0" d="M65.7,31c1.7,0,2.9,1.2,2.9,2.9c0,0.1,0,0.3,0,0.4c0,0.2-0.2,0.3-0.3,0.3h-4.6c0,1.1,0.9,2.2,2.1,2.2
			c0.8,0,1.4-0.3,1.7-0.5c0.2-0.2,0.3-0.2,0.5,0l0.2,0.2c0.1,0.2,0.2,0.3-0.1,0.4c-0.4,0.3-1.2,0.7-2.3,0.7c-1.9,0-3.1-1.5-3.1-3.3
			C62.6,32.5,63.7,31,65.7,31z M67.5,33.7c0-0.9-0.8-1.8-1.9-1.8c-1.1,0-1.9,0.8-2.1,1.8H67.5z"/>
		<path class="st0" d="M70.2,31.4c0-0.2,0.1-0.3,0.3-0.3h0.2c0.1,0,0.2,0.1,0.3,0.2l0.1,0.5c0,0,0.6-0.8,2-0.8
			c0.5,0,1.3,0.1,1.1,0.5L74,32c-0.1,0.2-0.2,0.2-0.4,0.2c-0.2-0.1-0.4-0.2-0.7-0.2c-1.2,0-1.7,0.8-1.7,0.8v4.4
			c0,0.2-0.2,0.3-0.3,0.3h-0.4c-0.2,0-0.3-0.1-0.3-0.3V31.4z"/>
		<path class="st0" d="M78.3,28.7c0-0.4,0.3-0.8,0.7-0.8c0.4,0,0.8,0.3,0.8,0.8c0,0.4-0.3,0.7-0.8,0.7
			C78.6,29.5,78.3,29.1,78.3,28.7z M78.6,31.4c0-0.2,0.1-0.3,0.3-0.3h0.4c0.2,0,0.3,0.2,0.3,0.3v5.8c0,0.2-0.2,0.3-0.3,0.3h-0.4
			c-0.2,0-0.3-0.1-0.3-0.3V31.4z"/>
		<path class="st0" d="M81.8,31.4c0-0.2,0.1-0.3,0.3-0.3h0.2c0.1,0,0.2,0.1,0.2,0.2l0.1,0.5c0,0,0.8-0.8,2.1-0.8
			c1.9,0,2.3,1.2,2.3,2.8v3.4c0,0.2-0.2,0.3-0.3,0.3h-0.4c-0.2,0-0.3-0.1-0.3-0.3v-3.5c0-1.2-0.4-1.8-1.4-1.8c-1.2,0-2,0.9-2,0.9
			v4.4c0,0.2-0.2,0.3-0.3,0.3h-0.4c-0.2,0-0.3-0.1-0.3-0.3V31.4z"/>
		<path class="st0" d="M93.5,40.5c0,0.2-0.2,0.3-0.3,0.3h-0.4c-0.2,0-0.3-0.1-0.3-0.3v-9.1c0-0.2,0.1-0.3,0.3-0.3h0.2
			c0.2,0,0.2,0,0.3,0.2l0.1,0.3c0,0,0.8-0.6,1.9-0.6c1.7,0,3,1.5,3,3.3c0,1.9-1.3,3.3-3,3.3c-1.1,0-1.8-0.5-1.8-0.5V40.5z
			 M95.1,36.7c1.2,0,2.1-1,2.1-2.4c0-1.2-0.8-2.4-2.1-2.4c-1,0-1.7,0.8-1.7,0.8v3.5C93.5,36.1,94.3,36.7,95.1,36.7z"/>
		<path class="st0" d="M102.7,31c1.7,0,2.9,1.2,2.9,2.9c0,0.1,0,0.3,0,0.4c0,0.2-0.2,0.3-0.3,0.3h-4.6c0,1.1,0.9,2.2,2.1,2.2
			c0.8,0,1.4-0.3,1.7-0.5c0.2-0.2,0.3-0.2,0.5,0l0.2,0.2c0.1,0.2,0.2,0.3-0.1,0.4c-0.4,0.3-1.2,0.7-2.3,0.7c-1.9,0-3.1-1.5-3.1-3.3
			C99.7,32.5,100.8,31,102.7,31z M104.6,33.7c0-0.9-0.8-1.8-1.9-1.8c-1.1,0-1.9,0.8-2.1,1.8H104.6z"/>
		<path class="st0" d="M107.3,31.4c0-0.2,0.1-0.3,0.3-0.3h0.2c0.1,0,0.2,0.1,0.3,0.2l0.1,0.5c0,0,0.6-0.8,2-0.8
			c0.5,0,1.3,0.1,1.1,0.5l-0.2,0.5c-0.1,0.2-0.2,0.2-0.4,0.2c-0.2-0.1-0.4-0.2-0.7-0.2c-1.2,0-1.7,0.8-1.7,0.8v4.4
			c0,0.2-0.2,0.3-0.3,0.3h-0.4c-0.2,0-0.3-0.1-0.3-0.3V31.4z"/>
		<path class="st0" d="M112.3,36.9c-0.1-0.1-0.1-0.2,0-0.3l0.2-0.4c0.1-0.2,0.2-0.2,0.4-0.1c0.2,0.2,0.8,0.6,1.6,0.6
			c0.6,0,1.1-0.3,1.1-0.8c0-0.6-0.5-0.9-1.4-1.3c-0.8-0.4-1.8-0.9-1.8-2c0-0.7,0.5-1.7,2-1.7c0.8,0,1.5,0.3,1.8,0.5
			c0.1,0.1,0.2,0.2,0.1,0.4l-0.1,0.3c-0.1,0.2-0.3,0.2-0.4,0.1c-0.3-0.2-0.7-0.4-1.3-0.4c-0.7,0-0.9,0.4-0.9,0.7
			c0,0.6,0.4,0.8,1.2,1.1c1.1,0.5,2.1,0.9,2.1,2.1c0,1-0.9,1.8-2.2,1.8C113.4,37.6,112.6,37.2,112.3,36.9z"/>
		<path class="st0" d="M121,31c1.8,0,3.2,1.5,3.2,3.3c0,1.8-1.4,3.4-3.2,3.4s-3.2-1.5-3.2-3.4C117.8,32.5,119.3,31,121,31z
			 M121,36.7c1.3,0,2.2-1.1,2.2-2.4c0-1.3-0.9-2.4-2.2-2.4c-1.3,0-2.2,1.1-2.2,2.4C118.8,35.6,119.8,36.7,121,36.7z"/>
		<path class="st0" d="M126,31.4c0-0.2,0.1-0.3,0.3-0.3h0.2c0.1,0,0.2,0.1,0.2,0.2l0.1,0.5c0,0,0.8-0.8,2.1-0.8
			c1.9,0,2.3,1.2,2.3,2.8v3.4c0,0.2-0.2,0.3-0.3,0.3h-0.4c-0.2,0-0.3-0.1-0.3-0.3v-3.5c0-1.2-0.4-1.8-1.4-1.8c-1.2,0-2,0.9-2,0.9
			v4.4c0,0.2-0.2,0.3-0.3,0.3h-0.4c-0.2,0-0.3-0.1-0.3-0.3V31.4z"/>
		<path class="st0" d="M135.5,33.4c0.7,0,1.4,0.2,1.4,0.2c0-1.2-0.1-1.8-1-1.8c-0.9,0-1.6,0.3-1.9,0.4c-0.2,0.1-0.2,0-0.3-0.2
			l-0.1-0.4c-0.1-0.2,0-0.3,0.2-0.3c0.3-0.1,1.1-0.4,2.2-0.4c1.6,0,2,0.8,2,2.7v3.5c0,0.2-0.1,0.3-0.3,0.3h-0.3
			c-0.2,0-0.2-0.1-0.3-0.2l-0.1-0.4c-0.3,0.3-1,0.8-2,0.8c-1.1,0-2-0.8-2-2.1C132.9,34.3,133.8,33.4,135.5,33.4z M135.1,36.7
			c0.8,0,1.5-0.4,1.8-0.9v-1.3c-0.2-0.1-0.7-0.2-1.4-0.2c-0.9,0-1.5,0.4-1.5,1.2C133.9,36.2,134.4,36.7,135.1,36.7z"/>
		<path class="st0" d="M140,28.1c0-0.2,0.1-0.3,0.3-0.3h0.4c0.2,0,0.3,0.2,0.3,0.3v9.1c0,0.2-0.2,0.3-0.3,0.3h-0.4
			c-0.2,0-0.3-0.1-0.3-0.3V28.1z"/>
		<path class="st0" d="M146.2,36.9c-0.1-0.1-0.1-0.2,0-0.3l0.2-0.4c0.1-0.2,0.2-0.2,0.4-0.1c0.2,0.2,0.8,0.6,1.6,0.6
			c0.6,0,1.1-0.3,1.1-0.8c0-0.6-0.5-0.9-1.4-1.3c-0.8-0.4-1.8-0.9-1.8-2c0-0.7,0.5-1.7,2-1.7c0.8,0,1.5,0.3,1.8,0.5
			c0.1,0.1,0.2,0.2,0.1,0.4l-0.1,0.3c-0.1,0.2-0.3,0.2-0.4,0.1c-0.3-0.2-0.7-0.4-1.3-0.4c-0.7,0-0.9,0.4-0.9,0.7
			c0,0.6,0.4,0.8,1.2,1.1c1.1,0.5,2.1,0.9,2.1,2.1c0,1-0.9,1.8-2.2,1.8C147.3,37.6,146.6,37.2,146.2,36.9z"/>
		<path class="st0" d="M151.7,32c-0.2,0-0.3-0.1-0.3-0.3v-0.3c0-0.2,0.1-0.3,0.3-0.3h0.8v-1.8c0-0.2,0.2-0.3,0.3-0.3l0.4,0
			c0.2,0,0.3,0.1,0.3,0.3v1.8h1.9c0.2,0,0.3,0.1,0.3,0.3v0.3c0,0.2-0.1,0.3-0.3,0.3h-1.9v3.8c0,0.7,0.2,0.9,0.6,0.9
			c0.6,0,1-0.2,1.3-0.4c0.2-0.2,0.3,0,0.4,0.1l0.1,0.3c0.1,0.2,0.1,0.3-0.1,0.4c-0.3,0.2-0.9,0.5-1.8,0.5c-1.2,0-1.5-0.8-1.5-1.8V32
			H151.7z"/>
		<path class="st0" d="M156.7,31.4c-0.1-0.2,0-0.3,0.2-0.3h0.6c0.1,0,0.2,0.1,0.3,0.2l1.8,5.1h0l2.2-5.1c0-0.1,0.2-0.2,0.3-0.2h0.5
			c0.2,0,0.3,0.2,0.2,0.4l-4,9.1c0,0.1-0.2,0.2-0.3,0.2h-0.5c-0.2,0-0.4-0.2-0.3-0.4l1.2-2.9L156.7,31.4z"/>
		<path class="st0" d="M164.4,28.1c0-0.2,0.1-0.3,0.3-0.3h0.4c0.2,0,0.3,0.2,0.3,0.3v9.1c0,0.2-0.2,0.3-0.3,0.3h-0.4
			c-0.2,0-0.3-0.1-0.3-0.3V28.1z"/>
		<path class="st0" d="M170.3,31c1.7,0,2.9,1.2,2.9,2.9c0,0.1,0,0.3,0,0.4c0,0.2-0.2,0.3-0.3,0.3h-4.6c0,1.1,0.9,2.2,2.1,2.2
			c0.8,0,1.4-0.3,1.7-0.5c0.2-0.2,0.3-0.2,0.5,0l0.2,0.2c0.1,0.2,0.2,0.3-0.1,0.4c-0.4,0.3-1.2,0.7-2.3,0.7c-1.9,0-3.1-1.5-3.1-3.3
			C167.2,32.5,168.4,31,170.3,31z M172.2,33.7c0-0.9-0.8-1.8-1.9-1.8c-1.1,0-1.9,0.8-2.1,1.8H172.2z"/>
	</g>
	<g>
		<path class="st0" d="M14.7,15.2c0,3.5-2.7,6.1-6.5,6.1c-2.5,0-4.5-0.9-6.3-2.7l-0.7,2.7H0v-6.9h1.1l0,0c1.7,3.8,4.1,5.7,7.2,5.7
			c2.5,0,3.9-1.5,3.9-4c0-2.9-1.7-3.6-5.4-4.5c-3.6-0.9-6.8-2-6.8-5.8C0.1,2.4,2.7,0,6.4,0c2.1,0,4,0.8,5.3,2.3l0.6-2.2h1.2v6.5
			h-1.1l0,0C11.2,3.2,9,1.3,6.3,1.3C4,1.3,2.5,2.8,2.5,5.1c0,2.8,1.9,3.6,5,4.4l0.2,0.1C11.4,10.5,14.7,11.4,14.7,15.2z M19.2,7.5
			h1.1l0-0.3C20.9,2.7,21,1.8,23,1.8h3.6v17.7h-3.4v1.3h9.4v-1.3h-3.4V1.8H33c2,0,2.2,0.9,2.8,5.4l0,0.3h1.1v-7H19.2V7.5z M42.5,1.8
			h3.2v17.7h-3.2v1.3h9.2v-1.3h-3.2V1.8h3.2V0.5h-9.2V1.8z M57.3,7.5h1.1l0-0.3c0.6-4.4,0.7-5.4,2.8-5.4h3.6v17.7h-3.4v1.3h9.4v-1.3
			h-3.4V1.8h3.6c2,0,2.2,0.9,2.8,5.4l0,0.3H75v-7H57.3V7.5z M94.4,13c-0.6,4.3-3.1,6.8-6.6,6.8c-4.3,0-7-3.6-7-9.3
			c0-5.5,2.6-9,6.6-9c3.4,0,5.5,1.9,6.8,6.1l0,0h1.1V0.1h-1.3l-0.6,2.4C92,0.8,90,0,87.5,0c-5.5,0-9.6,4.6-9.6,10.7
			c0,3.1,0.9,5.8,2.7,7.8c1.7,1.9,4.1,2.9,6.8,2.9c4.8,0,7.8-3,8.5-8.3l0-0.1L94.4,13L94.4,13z M113.5,1.8h2.9v7.9h-10.5V1.8h2.9
			V0.5H100v1.3h3.2v17.7H100v1.3h8.9v-1.3h-2.9V11h10.5v8.6h-2.9v1.3h8.9v-1.3h-3.2V1.8h3.2V0.5h-8.9V1.8z M135.4,1.8h3.2v17.7h-3.2
			v1.3h9.5v-1.3h-3.6V11h3.5c1.4,0,1.7,0.4,2,3.3l0,0h1.1V6.4h-1.1l0,0c-0.4,2.9-0.6,3.2-2,3.2h-3.5V1.8h7.6c1.6,0,2.1,0.6,2.7,5
			l0,0h1.3V0.5h-17.6V1.8z M156.7,1.8h3.2v17.7h-3.2v1.3h9.2v-1.3h-3.2V1.8h3.2V0.5h-9.2V1.8z M181.5,10.2l5.7-8.4h2.3V0.5H182v1.3
			h3l-4.8,7.2l-4.6-7.2h2.6V0.5h-8.3v1.3h2.7l5.8,8.8l-6.3,8.9h-2.5v1.3h7.4v-1.3h-2.8l5.3-7.7l4.7,7.7h-2.8v1.3h8.2v-1.3h-2.5
			L181.5,10.2z"/>
	</g>
</g>
</svg>
