<?xml version="1.0" encoding="utf-8"?>
<!-- Generator: Adobe Illustrator 20.1.0, SVG Export Plug-In . SVG Version: 6.00 Build 0)  -->
<svg version="1.1" id="Layer_1" xmlns="http://www.w3.org/2000/svg" xmlns:xlink="http://www.w3.org/1999/xlink" x="0px" y="0px"
	 viewBox="0 0 938 243" style="enable-background:new 0 0 938 243;" xml:space="preserve">
<style type="text/css">
	.st0{fill:#F15D62;}
</style>
<path class="st0" d="M43.3,156.1c14.7,0,27.9-3.7,40.4-13.1c-13.2-1.6-21.9-7.6-26.8-19.4c4-0.2,7.6-0.3,11.2-0.5
	c0.1-0.3,0.3-0.6,0.4-0.9c-13.2-4.5-21-13.3-22.2-27.6c4.2,1,8,2,11.8,2.9C46.7,86.4,43.5,74,50.2,58.8c16,18.4,35.6,28.5,59.9,30.1
	c-1.1-7.4-0.5-14,2.8-20.2c8.6-16.2,30.3-20.5,44-8.4c2,1.8,3.7,2.3,6,1.4c4.6-1.7,9.2-3.3,14-5c-1.7,6.2-6.3,10.2-10.5,14.8
	c4.4-1.1,8.9-2.2,13.3-3.2c0.2,0.2,0.4,0.5,0.7,0.7c-3.3,3.3-6.3,7-9.9,9.9c-2.6,2.1-3.3,4.3-3.4,7.4c-1.8,34.5-17.2,60.5-49.1,74.7
	c-24.2,10.8-48.8,9.1-72.4-3.4C44.8,157.2,44,156.6,43.3,156.1z"/>
<g>
	<path class="st0" d="M238.6,87.9h-18.1c-1.1,0-2-0.9-2-2v-3c0-1,0.8-2,2-2h44.1c1.1,0,2,0.9,2,2v3c0,1-0.8,2-2,2h-18.1v63.9
		c0,1-0.9,2-2,2h-4c-1,0-2-0.9-2-2V87.9z"/>
	<path class="st0" d="M298.1,117.6L284,153.7c-0.2,0.6-0.8,1.2-2,1.2h-0.6c-1.1,0-1.8-0.5-2.1-1.2L266,108.4c-0.4-1.6,0-2.7,1.9-2.7
		h3.5c1.1,0,2,0.5,2.2,1.4l8.8,32.7h0.2l13.5-33.9c0.2-0.6,0.9-1.1,2.1-1.1h0.6c0.9,0,1.8,0.5,2,1.1l13.4,34h0.2l8.8-32.8
		c0.2-0.8,1-1.4,2-1.4h3.6c1.7,0,2.2,1.1,1.7,2.7l-13.1,45.3c-0.2,0.7-1,1.2-2,1.2h-0.6c-1,0-1.8-0.6-2.1-1.2l-14.5-36.1H298.1z"/>
	<path class="st0" d="M362.7,104.6c12.6,0,21.8,9.3,21.8,21.9c0,0.8-0.1,2.1-0.2,2.9c-0.1,1.2-1.1,2.1-2.2,2.1h-35
		c0.2,8,7,16.4,15.7,16.4c6.3,0,10.3-2.2,13-4c1.7-1.1,2.4-1.6,3.6,0.3l1.2,1.8c0.9,1.5,1.4,2-0.4,3.3c-2.9,2.3-9.3,5.5-17.6,5.5
		c-14.6,0-23.3-11.4-23.3-25.2C339.3,116.2,348.1,104.6,362.7,104.6z M376.7,125.4c-0.2-7.1-5.8-13.7-14.1-13.7
		c-8.1,0-14.6,6.2-15.5,13.7H376.7z"/>
	<path class="st0" d="M417.3,104.6c12.6,0,21.8,9.3,21.8,21.9c0,0.8-0.1,2.1-0.2,2.9c-0.1,1.2-1.1,2.1-2.2,2.1h-35
		c0.2,8,7,16.4,15.7,16.4c6.3,0,10.3-2.2,13-4c1.7-1.1,2.4-1.6,3.6,0.3l1.2,1.8c0.9,1.5,1.4,2-0.4,3.3c-2.9,2.3-9.3,5.5-17.6,5.5
		c-14.6,0-23.3-11.4-23.3-25.2C394,116.2,402.7,104.6,417.3,104.6z M431.3,125.4c-0.2-7.1-5.8-13.7-14.1-13.7
		c-8.1,0-14.6,6.2-15.5,13.7H431.3z"/>
	<path class="st0" d="M448.4,112.4c-1.5,0-2.4-1-2.4-2.3V108c0-1.4,0.9-2.3,2.4-2.3h6.3V92.4c0-1.2,1.1-2.2,2.3-2.3l3.2-0.2
		c1.2-0.1,2.2,1,2.2,2.3v13.5h14.2c1.4,0,2.4,0.9,2.4,2.3v2.1c0,1.2-1,2.3-2.4,2.3h-14.2v28.7c0,5,1.6,6.9,4.3,6.9
		c4.5,0,7.5-1.9,9.5-3.1c1.9-1.1,2.5-0.2,3,0.9l0.9,2.2c0.6,1.6,0.4,2.3-0.8,3.1c-2.1,1.5-7.1,3.9-13.5,3.9c-9.2,0-11-5.8-11-13.3
		v-29.2H448.4z"/>
	<path class="st0" d="M511.2,112.4c-1.5,0-2.4-1-2.4-2.3V108c0-1.4,0.9-2.3,2.4-2.3h6.3V92.4c0-1.2,1.1-2.2,2.3-2.3l3.2-0.2
		c1.2-0.1,2.2,1,2.2,2.3v13.5h14.2c1.4,0,2.4,0.9,2.4,2.3v2.1c0,1.2-1,2.3-2.4,2.3h-14.2v28.7c0,5,1.6,6.9,4.3,6.9
		c4.5,0,7.5-1.9,9.5-3.1c1.9-1.1,2.5-0.2,3,0.9l0.9,2.2c0.6,1.6,0.4,2.3-0.8,3.1c-2.1,1.5-7.1,3.9-13.5,3.9c-9.2,0-11-5.8-11-13.3
		v-29.2H511.2z"/>
	<path class="st0" d="M553.8,83.2c0-1.1,1-2.3,2.3-2.3h3.1c1.1,0,2.3,1.1,2.3,2.3v27.6c0,0,5.6-6.1,15.3-6.1
		c12,0,17.4,7.4,17.4,21.4v25.4c0,1.2-1.1,2.3-2.3,2.3h-3.2c-1.2,0-2.3-1-2.3-2.3v-25.4c0-9.2-2.7-14.5-10.1-14.5
		c-9.2,0-14.8,6.9-14.8,6.9v33c0,1.2-1.1,2.3-2.3,2.3h-3.1c-1.2,0-2.3-1-2.3-2.3V83.2z"/>
	<path class="st0" d="M630.2,104.6c12.6,0,21.8,9.3,21.8,21.9c0,0.8-0.1,2.1-0.2,2.9c-0.1,1.2-1.1,2.1-2.2,2.1h-35
		c0.2,8,7,16.4,15.7,16.4c6.3,0,10.3-2.2,13-4c1.7-1.1,2.4-1.6,3.6,0.3l1.2,1.8c0.9,1.5,1.4,2-0.4,3.3c-2.9,2.3-9.3,5.5-17.6,5.5
		c-14.6,0-23.3-11.4-23.3-25.2C606.9,116.2,615.7,104.6,630.2,104.6z M644.3,125.4c-0.2-7.1-5.8-13.7-14.1-13.7
		c-8.1,0-14.6,6.2-15.5,13.7H644.3z"/>
	<path class="st0" d="M701.1,87.9H683c-1.1,0-2-0.9-2-2v-3c0-1,0.8-2,2-2h44.1c1.1,0,2,0.9,2,2v3c0,1-0.8,2-2,2H709v63.9
		c0,1-0.9,2-2,2h-4c-1,0-2-0.9-2-2V87.9z"/>
	<path class="st0" d="M752.8,104.6c13.3,0,24.1,11.4,24.1,25c0,13.7-10.8,25.3-24.1,25.3s-24.1-11.6-24.1-25.3
		C728.7,116.1,739.5,104.6,752.8,104.6z M752.8,147.9c9.5,0,16.4-8.3,16.4-18.3c0-9.8-7-18-16.4-18c-9.5,0-16.5,8.2-16.5,18
		C736.3,139.6,743.4,147.9,752.8,147.9z"/>
	<path class="st0" d="M789.6,108c0-1.1,0.9-2.3,2.3-2.3h3.1c1.2,0,2.3,1.1,2.3,2.3v26c0,9.6,3.1,13.9,10.1,13.9
		c7.2,0,11.4-4.5,13.6-7v-33c0-1.1,0.9-2.3,2.2-2.3h3.2c1.1,0,2.2,1.1,2.2,2.3v43.5c0,1.2-1,2.3-2.2,2.3h-1.7
		c-1.4,0-1.9-0.8-2.2-2.1l-0.9-3c-1.8,1.9-6.2,6.2-14.9,6.2c-13.8,0-17.2-8.3-17.2-21V108z"/>
	<path class="st0" d="M844.8,108c0-1.1,1-2.3,2.3-2.3h1.7c0.9,0,1.8,0.5,2.1,1.7l0.8,3.4c0,0,4.8-6.1,14.8-6.1
		c3.6,0,9.6,0.5,8.4,3.9l-1.4,3.7c-0.5,1.6-1.7,1.7-2.8,1.1c-1.1-0.5-2.9-1.4-5.2-1.4c-9.3,0-13,6.1-13,6.1v33.3
		c0,1.2-1.1,2.3-2.3,2.3h-3.1c-1.2,0-2.3-1-2.3-2.3V108z"/>
	<path class="st0" d="M890.4,143c3.3,0,5.9,2.6,5.9,5.9c0,3.2-2.6,5.9-5.9,5.9c-3.2,0-5.9-2.7-5.9-5.9
		C884.5,145.6,887.2,143,890.4,143z M887.8,123.8l-2-29V82.9c0-1,0.9-2,2-2h5.2c1,0,2,0.9,2,2v11.7l-2,29.2c-0.1,0.8-1,1.7-2,1.7
		h-1.2C888.8,125.5,887.9,124.6,887.8,123.8z"/>
</g>
</svg>
