<?xml version="1.0" encoding="utf-8"?>
<!-- Generator: Adobe Illustrator 20.1.0, SVG Export Plug-In . SVG Version: 6.00 Build 0)  -->
<svg version="1.1" id="Layer_1" xmlns="http://www.w3.org/2000/svg" xmlns:xlink="http://www.w3.org/1999/xlink" x="0px" y="0px"
	 viewBox="0 0 33 43.3" enable-background="new 0 0 33 43.3" xml:space="preserve">
<polygon fill="#FFFFFF" points="6.6,37.8 1.8,37.9 1.6,43.1 6.3,42.1 "/>
<polygon fill="#FFFFFF" points="26.4,37.8 31.3,37.8 31.4,43 26.9,42.1 "/>
<path fill="#FFFFFF" stroke="#000000" stroke-width="0.5" stroke-linecap="round" stroke-linejoin="round" stroke-miterlimit="10" d="
	M8.2,43c-0.2-1.3-0.5-2.5-0.9-3.6c-0.3-0.9-0.5-1.8-0.6-2.6l0.1-3.6c0,0-0.4,1.6-0.1,3.6c0,0.8-0.1,1.5-0.1,2.3l0,0h0
	C5,39.5,3.1,39,1.7,38.7c-0.9-0.2-1.5-0.5-1.5-0.5c-0.1-0.1,0.1-1.3,0.1-1.4c0.1-0.5,0.1-1,0.2-1.5C1,33.4,1.4,31.4,2,29.5
	c0.3-1,0.6-1.9,1-2.9c0.3-0.9,0.6-1.6,1.4-2.1c1.1-0.6,2.4-0.8,3.6-1c1.1-1.5,1.5-4.2,1.3-6c-0.4-3.3-1.7-6.4-1-9.8
	c0.8-4.1,4.2-8.7,8.3-7.1c4.1-1.6,7.5,3,8.3,7.1c0.6,3.4-0.7,6.4-1.1,9.7c-0.2,1.8,0.2,4.5,1.3,6c1.2,0.2,2.5,0.4,3.5,1
	c0.8,0.5,1.1,1.3,1.4,2.1c0.4,1,0.7,1.9,1,2.9c0.6,1.9,1,3.9,1.3,5.8c0.1,0.5,0.2,1,0.2,1.5c0,0.2,0.3,1.3,0.2,1.4
	c0,0-0.6,0.2-1.5,0.5c-1.3,0.4-3.3,0.8-4.7,0.5l0,0c-0.1-0.8-0.1-1.5-0.2-2.3v0c0,0,0,0,0,0c0.3-2.1-0.1-3.6-0.1-3.6l0.1,3.6
	c0,0,0,0,0,0v0c-0.1,0.8-0.3,1.7-0.6,2.5c-0.4,1-0.7,2.2-0.9,3.6"/>
<path fill="#FFFFFF" stroke="#000000" stroke-width="0.5" stroke-linecap="round" stroke-linejoin="round" stroke-miterlimit="10" d="
	M14.2,18.1C14.1,18.1,14,18,14,18c0,0,0,0,0,0c0,0,0,0,0,0c-0.1-0.1-0.2-0.2-0.3-0.3"/>
<path fill="#FFFFFF" stroke="#000000" stroke-width="0.5" stroke-linecap="round" stroke-linejoin="round" stroke-miterlimit="10" d="
	M31.4,43c0-0.3,0-0.6,0-0.9c-0.1-1.1-0.1-2.2-0.1-3.4v0"/>
<path fill="#FFFFFF" stroke="#000000" stroke-width="0.5" stroke-linecap="round" stroke-linejoin="round" stroke-miterlimit="10" d="
	M1.8,38.7L1.8,38.7c-0.1,1.6-0.1,2.9-0.2,4.3"/>
<path fill="#FFFFFF" stroke="#000000" stroke-width="0.5" stroke-linecap="round" stroke-linejoin="round" stroke-miterlimit="10" d="
	M8,23.4C7.9,23.4,7.9,23.4,8,23.4"/>
<path fill="#FFFFFF" stroke="#000000" stroke-width="0.5" stroke-linecap="round" stroke-linejoin="round" stroke-miterlimit="10" d="
	M13.9,17.9c-0.1-0.1-0.2-0.2-0.3-0.3l0,0C13.7,17.7,13.8,17.8,13.9,17.9z"/>
<path fill="#FFFFFF" stroke="#000000" stroke-width="0.5" stroke-linecap="round" stroke-linejoin="round" stroke-miterlimit="10" d="
	M14.2,18.1C14.1,18.1,14,18,14,18c0,0,0,0,0,0C14,18,14.1,18.1,14.2,18.1z"/>
<path fill="#FFFFFF" stroke="#000000" stroke-width="0.5" stroke-linecap="round" stroke-linejoin="round" stroke-miterlimit="10" d="
	M20.9,22.6c0,1-2,2-4.4,2s-4.4-1-4.4-2"/>
<path fill="none" stroke="#000000" stroke-width="0.5" stroke-linecap="round" stroke-linejoin="round" stroke-miterlimit="10" d="
	M25.1,23.4c-0.1,0-0.2,0-0.3-0.1c-0.4-0.1-0.7-0.2-1.1-0.2c-0.2,0-0.4-0.1-0.6-0.1c-0.8-0.1-1.5-0.3-2.1-0.4
	c-0.8-0.1-1.2-0.9-1.4-1.8c-0.3-1.2-0.3-2.7-0.2-3.2c0,0,0,0,0,0c0.8-0.8,1.4-1.8,2-2.9l0,0c0.8-1.7,1.3-3.5,1.3-4.9V9.8
	c0-0.4-0.1-0.7-0.2-1.1c-1-0.1-2.1-0.5-3.2-1.1c-1.7-1-2.9-2.4-3.5-3.8c-0.5,0.1-1,0.2-1.5,0.4c0,0-0.1,0-0.1,0
	c-2.2,0.9-3.7,3.1-3.7,5.7v0c0,1.4,0.5,3.1,1.2,4.8c0,0,0,0.1,0.1,0.1c0.5,1.1,1.2,2.1,1.9,2.9c0,0,0,0,0,0h0l0,0
	c0,0.5,0.1,2-0.2,3.2c-0.2,0.9-0.6,1.7-1.4,1.8c-0.6,0.1-1.3,0.2-2.1,0.4c-0.2,0-0.4,0.1-0.5,0.1c-0.4,0.1-0.7,0.1-1.1,0.2
	c-0.1,0-0.2,0-0.3,0.1"/>
<path fill="none" stroke="#000000" stroke-width="0.5" stroke-linecap="round" stroke-linejoin="round" stroke-miterlimit="10" d="
	M22.6,9.8L22.6,9.8c0,1.5-0.5,3.3-1.3,5l0,0c-0.5,1.1-1.2,2.1-2,2.9c0,0,0,0,0,0c-0.9,0.9-1.8,1.4-2.9,1.4c-0.8,0-1.6-0.3-2.3-0.9
	c-0.1-0.1-0.1-0.1-0.2-0.2c0,0,0,0,0,0c0,0,0,0,0,0c-0.1-0.1-0.2-0.2-0.3-0.3h0c0,0,0,0,0,0c-0.8-0.8-1.4-1.8-1.9-2.9
	c0,0-0.1-0.1-0.1-0.1c-0.8-1.6-1.2-3.4-1.2-4.8v0c0-2.5,1.5-4.7,3.7-5.7c0,0,0.1,0,0.1,0c0.5-0.2,1-0.3,1.5-0.4
	c0.6,1.4,1.8,2.8,3.5,3.8c1,0.6,2.1,1,3.2,1.1C22.5,9,22.6,9.4,22.6,9.8z"/>
<path fill="#FFFFFF" stroke="#000000" stroke-width="0.5" stroke-linecap="round" stroke-linejoin="round" stroke-miterlimit="10" d="
	M26.5,39.2L26.5,39.2c0.1,1,0.2,1.9,0.4,2.9"/>
<path fill="#FFFFFF" stroke="#000000" stroke-width="0.5" stroke-linecap="round" stroke-linejoin="round" stroke-miterlimit="10" d="
	M6.2,42.1c0.1-1,0.2-1.9,0.3-2.9"/>
</svg>
