<?xml version="1.0" encoding="utf-8"?>
<!-- Generator: Adobe Illustrator 20.1.0, SVG Export Plug-In . SVG Version: 6.00 Build 0)  -->
<svg version="1.1" id="Layer_1" xmlns="http://www.w3.org/2000/svg" xmlns:xlink="http://www.w3.org/1999/xlink" x="0px" y="0px"
	 viewBox="0 0 53.4 56" enable-background="new 0 0 53.4 56" xml:space="preserve">
<g>
	
		<path fill="#FFFFFF" stroke="#58595B" stroke-width="0.5" stroke-linecap="round" stroke-linejoin="round" stroke-miterlimit="10" d="
		M33.2,11l0,0.5c0,0-0.5,0.6-0.7,1.2c-0.1,0.5-0.3,0.9-0.6,1.1c-0.9,0.4-2.6,0.4-3.3,0c-0.5-0.4-1.1-1.6-1.3-2.1h-1
		c-0.2,0.5-0.7,1.8-1.3,2.1c-0.6,0.4-2.4,0.4-3.3,0c-0.3-0.2-0.5-0.6-0.6-1.1c-0.2-0.6-0.7-1.2-0.7-1.2l0-0.5l0.6-0.1
		c2.8-0.8,5.4,0.5,5.4,0.5s0,0,0,0h0.8c0,0,2.7-1.3,5.4-0.5L33.2,11z"/>
	
		<path fill="#FFFFFF" stroke="#58595B" stroke-width="0.5" stroke-linecap="round" stroke-linejoin="round" stroke-miterlimit="10" d="
		M35.6,8.8c-0.9-4.8-4.4-10-8.8-8.2c-4.4-1.8-8,3.4-8.8,8.2c-0.7,3.9-1.5,8.9,1.1,11.3c1.5,1.4,3,2.3,4.3,2.8
		c0.2-1.2,0.1-2.3,0.1-2.7c-0.9-0.9-1.7-2.1-2.3-3.3c0,0,0-0.1-0.1-0.1c-0.9-1.9-1.4-3.9-1.4-5.5v0c0-2.9,1.8-5.4,4.3-6.5
		c0,0,0.1,0,0.1-0.1c0.5-0.2,1.1-0.4,1.8-0.4c0.7,1.6,2.1,3.2,4,4.4c1.2,0.7,2.5,1.1,3.7,1.3c0.1,0.4,0.2,0.8,0.2,1.3v0.1
		c0,1.6-0.5,3.7-1.5,5.6l0,0c-0.6,1.3-1.4,2.5-2.3,3.3c0,0.5-0.1,1.6,0.1,2.7c1.4-0.5,2.9-1.4,4.4-2.8C37,17.7,36.3,12.8,35.6,8.8z"
		/>
	
		<path fill="#FFFFFF" stroke="#58595B" stroke-width="0.5" stroke-linecap="round" stroke-linejoin="round" stroke-miterlimit="10" d="
		M31.3,25.7l-4.6,1.5l-4.5-1.5c0.7-0.5,1-1.7,1.2-2.8c0.2-1.2,0.1-2.3,0.1-2.7c1,1,2.1,1.6,3.3,1.6s2.3-0.6,3.3-1.6
		c0,0.5-0.1,1.6,0.1,2.7C30.3,24.1,30.6,25.2,31.3,25.7z"/>
	<g>
		<g>
			
				<path fill="#FFFFFF" stroke="#58595B" stroke-width="0.5" stroke-linecap="round" stroke-linejoin="round" stroke-miterlimit="10" d="
				M43.3,34.3L43.3,34.3c-0.3-2.9-2.7-5.1-5.7-5.1H15.8c-2.9,0-5.4,2.2-5.7,5.1h0c0.3-2.3,1.1-5.6,2.8-6.4c0,0,0.1,0,0.1,0
				c1.2-0.4,2.7-0.8,4.2-1.1c1.5-0.3,3.1-0.6,4.3-0.8c0.2,0,0.4-0.1,0.6-0.3l4.5,1.5l4.6-1.5c0.2,0.1,0.4,0.2,0.6,0.3
				c1.2,0.2,2.7,0.5,4.3,0.8c1.5,0.3,2.9,0.6,4.2,1.1c0,0,0.1,0,0.1,0C42.2,28.7,43,32,43.3,34.3z"/>
		</g>
		
			<path fill="#FFFFFF" stroke="#58595B" stroke-width="0.5" stroke-linecap="round" stroke-linejoin="round" stroke-miterlimit="10" d="
			M33.5,9.9c-1.2-0.2-2.5-0.6-3.7-1.3c-1.9-1.1-3.3-2.7-4-4.4c-0.6,0.1-1.2,0.2-1.8,0.4c-0.1,0-0.1,0-0.1,0.1
			c-2.5,1.1-4.3,3.6-4.3,6.5v0c0,1.6,0.5,3.6,1.4,5.5c0,0,0,0.1,0.1,0.1c0.6,1.3,1.4,2.5,2.3,3.3c1,1,2.1,1.6,3.3,1.6
			s2.3-0.6,3.3-1.6c0.9-0.9,1.7-2.1,2.3-3.3l0,0c0.9-1.9,1.5-4,1.5-5.6v-0.1C33.7,10.8,33.6,10.3,33.5,9.9z M33.1,11.4
			c0,0-0.5,0.6-0.7,1.2c-0.1,0.5-0.3,0.9-0.6,1.1c-0.9,0.4-2.6,0.4-3.3,0c-0.5-0.4-1.1-1.6-1.3-2.1h-1c-0.2,0.5-0.7,1.8-1.3,2.1
			c-0.6,0.4-2.4,0.4-3.3,0c-0.3-0.2-0.5-0.6-0.6-1.1c-0.2-0.6-0.7-1.2-0.7-1.2l0-0.5l0.6-0.1c2.8-0.8,5.4,0.5,5.4,0.5s0,0,0,0h0.8
			c0,0,2.7-1.3,5.4-0.5l0.6,0.1L33.1,11.4z"/>
		
			<path fill="#FFFFFF" stroke="#58595B" stroke-width="0.5" stroke-linecap="round" stroke-linejoin="round" stroke-miterlimit="10" d="
			M33.2,11l0,0.5c0,0-0.5,0.6-0.7,1.2c-0.1,0.5-0.3,0.9-0.6,1.1c-0.9,0.4-2.6,0.4-3.3,0c-0.5-0.4-1.1-1.6-1.3-2.1h-1
			c-0.2,0.5-0.7,1.8-1.3,2.1c-0.6,0.4-2.4,0.4-3.3,0c-0.3-0.2-0.5-0.6-0.6-1.1c-0.2-0.6-0.7-1.2-0.7-1.2l0-0.5l0.6-0.1
			c2.8-0.8,5.4,0.5,5.4,0.5s0,0,0,0h0.8c0,0,2.7-1.3,5.4-0.5L33.2,11z"/>
	</g>
	<g>
		
			<line fill="#FFFFFF" stroke="#58595B" stroke-width="0.5" stroke-linecap="round" stroke-linejoin="round" stroke-miterlimit="10" x1="23" y1="29.2" x2="20.9" y2="26.1"/>
		
			<line fill="#FFFFFF" stroke="#58595B" stroke-width="0.5" stroke-linecap="round" stroke-linejoin="round" stroke-miterlimit="10" x1="26.7" y1="27.3" x2="25.9" y2="29.2"/>
		
			<line fill="#FFFFFF" stroke="#58595B" stroke-width="0.5" stroke-linecap="round" stroke-linejoin="round" stroke-miterlimit="10" x1="32.5" y1="26.1" x2="30.4" y2="29.2"/>
		
			<line fill="#FFFFFF" stroke="#58595B" stroke-width="0.5" stroke-linecap="round" stroke-linejoin="round" stroke-miterlimit="10" x1="27.4" y1="29.2" x2="26.7" y2="27.3"/>
	</g>
</g>
<g>
	
		<path fill="#FFFFFF" stroke="#58595B" stroke-width="0.5" stroke-linecap="round" stroke-linejoin="round" stroke-miterlimit="10" d="
		M43.3,34.9v12.2c0,3.2-2.5,5.7-5.7,5.7H15.8c-3.2,0-5.7-2.6-5.7-5.7V34.9c0-0.2,0-0.4,0-0.6c0.3-2.9,2.7-5.1,5.7-5.1h21.8
		c2.9,0,5.4,2.2,5.7,5.1C43.3,34.5,43.3,34.7,43.3,34.9z"/>
</g>
<rect x="0.2" y="52.8" fill="#FFFFFF" stroke="#58595B" stroke-width="0.5" stroke-linecap="round" stroke-linejoin="round" stroke-miterlimit="10" width="52.9" height="2.9"/>
<g>
	<g>
		
			<path fill="#FFFFFF" stroke="#58595B" stroke-width="0.5" stroke-linecap="round" stroke-linejoin="round" stroke-miterlimit="10" d="
			M26.3,11.4C26.3,11.4,26.3,11.4,26.3,11.4c0,0,0,0.1-0.1,0.2v0h0c-0.2,0.5-0.7,1.8-1.3,2.1c-0.6,0.4-2.4,0.4-3.3,0
			c-0.3-0.2-0.5-0.6-0.6-1.1c-0.2-0.8-0.1-1.8-0.1-1.8C23.6,10.1,26.3,11.4,26.3,11.4z"/>
		
			<path fill="#FFFFFF" stroke="#58595B" stroke-width="0.5" stroke-linecap="round" stroke-linejoin="round" stroke-miterlimit="10" d="
			M32.6,11.5c0,0.1,0,0.1,0,0.2c0,0.3-0.1,0.7-0.1,1c-0.1,0.5-0.3,0.9-0.6,1.1c-0.9,0.4-2.6,0.4-3.3,0c-0.5-0.4-1.1-1.6-1.3-2.1
			c-0.1-0.1-0.1-0.2-0.1-0.2s2.7-1.3,5.4-0.5C32.6,10.8,32.6,11.1,32.6,11.5z"/>
	</g>
	
		<path fill="#FFFFFF" stroke="#58595B" stroke-width="0.5" stroke-linecap="round" stroke-linejoin="round" stroke-miterlimit="10" d="
		M21,12.6c-0.2-0.6-0.7-1.2-0.7-1.2l0-0.5l0.6-0.1C20.9,10.8,20.8,11.8,21,12.6z"/>
	
		<path fill="#FFFFFF" stroke="#58595B" stroke-width="0.5" stroke-linecap="round" stroke-linejoin="round" stroke-miterlimit="10" d="
		M33.2,11l0,0.5c0,0-0.5,0.6-0.7,1.2c0.1-0.3,0.1-0.7,0.1-1c0-0.1,0-0.1,0-0.2c0-0.4,0-0.6,0-0.6L33.2,11z"/>
</g>
<path fill="#FFFFFF" stroke="#58595B" stroke-width="0.5" stroke-linecap="round" stroke-linejoin="round" stroke-miterlimit="10" d="
	M29.2,41.1c0,1.3-1,2.3-2.3,2.3c-1.3,0-2.3-1-2.3-2.3c0-1.3,1-2.3,2.3-2.3C28.1,38.8,29.2,39.8,29.2,41.1z"/>
<path fill="#FFFFFF" stroke="#58595B" stroke-width="0.5" stroke-linecap="round" stroke-linejoin="round" stroke-miterlimit="10" d="
	M29.2,41.1c0,1.3-1,2.3-2.3,2.3c-1.3,0-2.3-1-2.3-2.3c0-1.3,1-2.3,2.3-2.3C28.1,38.8,29.2,39.8,29.2,41.1z"/>
</svg>
